<svg width="42" height="40" viewBox="0 0 42 40" fill="none" xmlns="http://www.w3.org/2000/svg">
<rect x="1.125" y="0.5" width="40" height="39" rx="19.5" stroke="#252B37"/>
<path d="M21.125 11C20.025 11 19.125 11.9 19.125 13C19.125 14.1 20.025 15 21.125 15C22.225 15 23.125 14.1 23.125 13C23.125 11.9 22.225 11 21.125 11ZM21.125 25C20.025 25 19.125 25.9 19.125 27C19.125 28.1 20.025 29 21.125 29C22.225 29 23.125 28.1 23.125 27C23.125 25.9 22.225 25 21.125 25ZM21.125 18C20.025 18 19.125 18.9 19.125 20C19.125 21.1 20.025 22 21.125 22C22.225 22 23.125 21.1 23.125 20C23.125 18.9 22.225 18 21.125 18Z" fill="#717680"/>
</svg>
