<svg width="46" height="46" viewBox="0 0 46 46" fill="none" xmlns="http://www.w3.org/2000/svg">
<rect width="46" height="46" rx="23" fill="#A77ED3"/>
<path d="M37.003 23.7498C37.003 23.9488 36.9239 24.1395 36.7833 24.2802C36.6426 24.4208 36.4519 24.4998 36.253 24.4998H34.753V25.9998C34.753 26.1988 34.6739 26.3895 34.5333 26.5302C34.3926 26.6708 34.2019 26.7498 34.003 26.7498C33.804 26.7498 33.6133 26.6708 33.4726 26.5302C33.332 26.3895 33.253 26.1988 33.253 25.9998V24.4998H31.753C31.554 24.4998 31.3633 24.4208 31.2226 24.2802C31.082 24.1395 31.003 23.9488 31.003 23.7498C31.003 23.5509 31.082 23.3602 31.2226 23.2195C31.3633 23.0789 31.554 22.9998 31.753 22.9998H33.253V21.4998C33.253 21.3009 33.332 21.1102 33.4726 20.9695C33.6133 20.8289 33.804 20.7498 34.003 20.7498C34.2019 20.7498 34.3926 20.8289 34.5333 20.9695C34.6739 21.1102 34.753 21.3009 34.753 21.4998V22.9998H36.253C36.4519 22.9998 36.6426 23.0789 36.7833 23.2195C36.9239 23.3602 37.003 23.5509 37.003 23.7498ZM26.503 25.7823C27.6787 25.0501 28.5839 23.9548 29.0817 22.6622C29.5795 21.3697 29.6428 19.9501 29.262 18.6184C28.8812 17.2867 28.077 16.1152 26.9711 15.2812C25.8652 14.4472 24.5178 13.9961 23.1326 13.9961C21.7475 13.9961 20.4001 14.4472 19.2942 15.2812C18.1883 16.1152 17.3841 17.2867 17.0033 18.6184C16.6225 19.9501 16.6858 21.3697 17.1836 22.6622C17.6814 23.9548 18.5866 25.0501 19.7623 25.7823C17.8264 26.4161 16.0845 27.6002 14.6839 29.267C14.5922 29.376 14.5334 29.5089 14.5145 29.65C14.4955 29.7912 14.5172 29.9349 14.5769 30.0642C14.6366 30.1935 14.7318 30.3032 14.8516 30.3803C14.9713 30.4575 15.1105 30.4989 15.253 30.4998H31.003C31.1459 30.5 31.2859 30.4593 31.4064 30.3826C31.527 30.3058 31.6231 30.1963 31.6835 30.0667C31.7439 29.9372 31.766 29.7931 31.7472 29.6514C31.7285 29.5098 31.6696 29.3764 31.5777 29.267C30.1761 27.6002 28.4342 26.4161 26.503 25.7823Z" fill="#341A4F"/>
</svg>
