<svg width="10" height="12" viewBox="0 0 10 12" fill="none" xmlns="http://www.w3.org/2000/svg">
<path d="M0.625 0C0.45924 0 0.300269 0.0451529 0.183059 0.125526C0.0658484 0.205898 2.9486e-07 0.314907 2.9486e-07 0.428571V4.71429C-0.000417831 5.54958 0.443869 6.35624 1.24943 6.98281C2.055 7.60937 3.16642 8.01273 4.375 8.11714V11.1429H2.5C2.33424 11.1429 2.17527 11.188 2.05806 11.2684C1.94085 11.3488 1.875 11.4578 1.875 11.5714C1.875 11.6851 1.94085 11.7941 2.05806 11.8745C2.17527 11.9548 2.33424 12 2.5 12H7.5C7.66576 12 7.82473 11.9548 7.94194 11.8745C8.05915 11.7941 8.125 11.6851 8.125 11.5714C8.125 11.4578 8.05915 11.3488 7.94194 11.2684C7.82473 11.188 7.66576 11.1429 7.5 11.1429H5.625V8.11714C6.83358 8.01273 7.945 7.60937 8.75057 6.98281C9.55613 6.35624 10.0004 5.54958 10 4.71429V0.428571C10 0.314907 9.93415 0.205898 9.81694 0.125526C9.69973 0.0451529 9.54076 0 9.375 0H0.625ZM1.25 2.57143V0.857143H8.75V2.57143H1.25ZM8.41625 4.54543C8.33622 5.04018 8.02983 5.50486 7.54098 5.87287C7.05214 6.24088 6.40594 6.49331 5.695 6.594C5.53255 6.61696 5.36346 6.59473 5.22492 6.5322C5.08638 6.46967 4.98973 6.37196 4.95625 6.26057C4.92277 6.14918 4.95519 6.03323 5.04637 5.93823C5.13756 5.84323 5.28006 5.77696 5.4425 5.754C5.89466 5.68991 6.30566 5.52936 6.61663 5.29533C6.92761 5.0613 7.12263 4.7658 7.17375 4.45114C7.18278 4.3952 7.20779 4.34102 7.24735 4.29171C7.28691 4.24239 7.34025 4.1989 7.40432 4.16372C7.4684 4.12854 7.54195 4.10236 7.62077 4.08667C7.6996 4.07098 7.78217 4.06609 7.86375 4.07229C7.94533 4.07848 8.02434 4.09563 8.09626 4.12275C8.16818 4.14988 8.2316 4.18646 8.2829 4.23039C8.33421 4.27433 8.37239 4.32476 8.39527 4.37882C8.41815 4.43287 8.42528 4.48949 8.41625 4.54543Z" fill="#0D001D"/>
</svg>
