<svg width="57" height="56" viewBox="0 0 57 56" fill="none" xmlns="http://www.w3.org/2000/svg">
<rect x="4.5" y="4" width="48" height="48" rx="24" fill="#B54708"/>
<rect x="4.5" y="4" width="48" height="48" rx="24" stroke="#792E0D" stroke-width="8"/>
<path d="M28.5027 24.0012V28.0012M28.5027 32.0012H28.5127M26.7927 18.8612L18.3227 33.0012C18.1481 33.3036 18.0557 33.6465 18.0547 33.9957C18.0537 34.3449 18.1442 34.6883 18.3171 34.9917C18.4901 35.2951 18.7394 35.5479 19.0404 35.725C19.3414 35.9021 19.6835 35.9973 20.0327 36.0012H36.9727C37.3219 35.9973 37.664 35.9021 37.965 35.725C38.266 35.5479 38.5153 35.2951 38.6883 34.9917C38.8612 34.6883 38.9517 34.3449 38.9507 33.9957C38.9497 33.6465 38.8573 33.3036 38.6827 33.0012L30.2127 18.8612C30.0344 18.5673 29.7834 18.3243 29.4839 18.1557C29.1844 17.987 28.8464 17.8984 28.5027 17.8984C28.159 17.8984 27.821 17.987 27.5215 18.1557C27.222 18.3243 26.971 18.5673 26.7927 18.8612Z" stroke="#FEDF89" stroke-width="2" stroke-linecap="round" stroke-linejoin="round"/>
</svg>
