<svg width="19" height="24" viewBox="0 0 19 24" fill="none" xmlns="http://www.w3.org/2000/svg">
<g clip-path="url(#clip0_4479_63443)">
<path d="M1.40646 7.5578C0.580717 6.97256 0.675903 5.75471 1.45881 5.39652C2.31191 5.00554 2.50467 6.39459 2.12868 6.93856C2.29883 6.24767 1.41478 6.59494 1.92165 7.5578C2.2786 8.23897 2.60699 8.75501 1.94426 9.30505C2.26194 8.69309 1.90975 7.93906 1.40646 7.5578Z" fill="url(#paint0_linear_4479_63443)"/>
<path d="M1.2899 14.2467C0.881791 14.611 0.837767 15.2181 1.00672 15.688C1.2316 16.3181 1.8396 17.0236 1.85864 17.7242C1.98595 17.5651 2.13825 17.1924 2.33457 17.1171C2.03711 17.8456 1.94787 18.9093 2.39644 19.5928C3.13056 18.1771 3.06631 17.3575 2.19655 16.0292C2.16619 16.1919 2.08868 16.3416 1.97405 16.459C2.0744 16.1366 2.13358 15.8024 2.15014 15.4645C2.08191 15.4097 2.01787 15.3496 1.95858 15.2848C1.70753 14.9388 1.85507 14.3548 1.77416 13.9492C1.68016 14.1253 1.50764 14.3171 1.2899 14.2467Z" fill="url(#paint1_linear_4479_63443)"/>
<path d="M6.52464 9.20769C6.27834 9.30483 5.60728 9.78687 5.60728 9.78687C5.57374 9.67657 5.53401 9.56833 5.4883 9.46268C5.42476 9.36433 5.35563 9.26987 5.28127 9.17977C5.27651 9.13241 6.16769 8.89928 6.52464 9.20769Z" fill="url(#paint2_linear_4479_63443)"/>
<path d="M9.25136 15.6463C9.02565 15.6624 8.79901 15.634 8.58387 15.5625C8.46338 15.6688 8.33619 15.767 8.20312 15.8563C8.21722 15.8708 8.23233 15.8842 8.24834 15.8964C8.38425 15.9996 8.54501 16.0634 8.71356 16.081L8.85634 16.098C9.22756 16.1101 9.77607 16.098 10.0807 15.8454C9.94187 15.7413 9.79639 15.6468 9.64519 15.5625L9.39533 15.6244C9.34805 15.6359 9.29988 15.6433 9.25136 15.6463Z" fill="url(#paint3_linear_4479_63443)"/>
<path d="M6.64388 16.2114C6.96059 16.2693 7.28605 16.2531 7.59574 16.1641C7.87297 16.2527 8.24658 16.4178 8.54046 16.4397C8.53332 16.453 8.52618 16.4664 8.51667 16.481C8.3748 16.7038 8.15317 16.8611 7.89915 16.9193C7.73138 16.9606 7.5541 16.997 7.44106 17.0164C7.20812 17.0979 6.99423 17.2277 6.81284 17.3977C6.86646 17.2397 6.90627 17.0772 6.93182 16.912C6.93871 16.8704 6.93664 16.8278 6.92575 16.7871C6.91486 16.7465 6.89541 16.7087 6.86876 16.6765C6.76524 16.549 6.63079 16.3972 6.60938 16.2624L6.64388 16.2114Z" fill="url(#paint4_linear_4479_63443)"/>
<path d="M6.43735 16.5664C6.43735 16.9003 6.12443 17.0946 5.84244 17.2731C5.70115 17.3605 5.57831 17.4757 5.48108 17.6121C5.38385 17.7484 5.31416 17.9031 5.27608 18.0672V18.0842C5.23523 18.302 5.24244 18.5264 5.29719 18.7411C5.35193 18.9557 5.45284 19.1552 5.59258 19.3251C6.14704 20.0281 6.59203 21.0553 5.89241 21.7887C6.70268 21.9186 7.14173 21.0104 6.96326 20.3025C6.71815 19.676 6.10063 19.0531 6.13038 18.3404C6.1042 17.7697 6.92161 17.0229 6.43735 16.5664Z" fill="url(#paint5_linear_4479_63443)"/>
<path d="M4.85807 18.5315C2.71638 20.1598 4.73909 21.2028 3.84553 22.2033C4.42259 22.4218 4.98538 21.805 4.85807 21.2222C5.14482 21.5974 4.94493 22.2179 4.64509 22.5263C4.83308 22.9439 5.33519 23.2402 5.76829 23.29L6.13594 23.3361C6.17847 23.34 6.21975 23.3528 6.25721 23.3737C6.29467 23.3946 6.32751 23.4231 6.35368 23.4576C6.45006 23.596 6.38819 23.7441 6.1764 23.8218C6.27638 23.8419 6.37791 23.8529 6.4798 23.8546C6.61075 23.8618 6.73935 23.817 6.83869 23.7297C6.93804 23.6423 7.00044 23.5191 7.01284 23.3859V23.3762C7.01344 23.2865 6.98161 23.1998 6.92343 23.1326C6.86525 23.0654 6.78482 23.0224 6.69754 23.0119C6.29776 22.9524 6.01815 22.7691 6.1871 22.2749C5.84133 22.3292 5.48755 22.2741 5.17337 22.1171C5.70285 21.8342 5.88727 21.2477 5.88727 20.6746C5.89064 20.4659 5.83217 20.2611 5.7195 20.0869C5.3685 19.5551 4.67722 19.0949 4.94136 18.4453L4.85807 18.5315Z" fill="url(#paint6_linear_4479_63443)"/>
<path d="M11.1786 18.5546C11.087 17.5699 11.4725 17.5917 11.6914 17.0805C11.482 16.6046 10.6931 16.5803 10.4421 16.1638C10.4232 16.1352 10.4091 16.1036 10.4004 16.0703C9.94546 16.3798 9.3955 16.5093 8.85365 16.4346C9.01309 16.7867 8.54549 17.066 8.32418 17.2505C7.78876 17.6961 7.3402 18.6044 7.93273 19.0718C8.00566 19.1242 8.08587 19.1651 8.17069 19.1933C8.99643 19.4992 9.4914 20.4451 9.0702 21.2902C8.86674 19.3912 7.90417 19.8514 7.38898 18.8776C7.27166 18.6508 7.22989 18.3912 7.27 18.1381C7.32498 17.8112 7.49717 17.5169 7.75307 17.3124C7.39017 17.3854 7.05794 17.5701 6.80121 17.8418C6.14561 18.5461 6.89996 19.532 7.26048 20.1683C7.59839 20.8434 7.37946 22.2045 6.48828 22.2603C6.50533 22.3544 6.54226 22.4435 6.59651 22.5215C6.65076 22.5996 6.72102 22.6646 6.8024 22.712L7.09985 22.8844C7.20631 22.9419 7.29663 23.0261 7.36222 23.1292C7.42781 23.2323 7.46651 23.3507 7.47465 23.4733C7.47966 23.549 7.46853 23.6249 7.44203 23.6957C7.41553 23.7666 7.37429 23.8307 7.32116 23.8837C7.98984 23.9299 8.12667 23.6725 8.41461 23.1261C7.99936 22.9937 7.75545 22.7484 7.70071 22.3975C7.67368 22.1835 7.72633 21.9668 7.84825 21.7904C7.94903 21.6435 8.02913 21.4829 8.08622 21.3133C8.13189 21.1753 8.14209 21.0278 8.11584 20.8847C8.08959 20.7416 8.02777 20.6078 7.9363 20.4961C7.88259 20.4272 7.82371 20.3626 7.76021 20.303C7.63228 20.2305 7.53178 20.1164 7.47465 19.9788C8.04814 20.3589 9.02142 20.9502 8.50979 21.669C8.13262 22.1086 8.23851 22.899 8.90125 22.9379C8.68946 22.2215 9.27842 21.493 9.94116 21.3169C9.42001 21.6144 9.07853 22.3356 9.25939 22.9379C10.1375 23.0386 11.413 22.7812 11.4332 21.6095C11.4463 20.8288 10.6753 20.4742 10.1779 20.059C9.90784 19.7591 9.93997 19.339 10.103 18.9953C10.2545 18.7089 10.3077 18.3789 10.2541 18.058C10.2278 17.8728 10.1444 17.701 10.016 17.5674C9.88771 17.4339 9.72105 17.3454 9.54018 17.3149C9.75496 17.2907 9.97171 17.3365 10.1595 17.4455C10.3473 17.5545 10.4966 17.7213 10.586 17.922C10.6983 18.1786 10.7094 18.4695 10.617 18.7343C10.5075 19.0791 10.4326 19.5174 10.617 19.8174C10.8044 20.0503 11.0163 20.2616 11.2488 20.4475C11.4012 20.5805 11.5247 20.7444 11.6116 20.9288C11.6985 21.1131 11.7467 21.314 11.7533 21.5184C11.7599 21.7229 11.7247 21.9266 11.6499 22.1164C11.5752 22.3062 11.4624 22.4781 11.319 22.621C11.2461 22.6896 11.1663 22.7502 11.081 22.8019C11.4259 22.7448 11.7666 22.6637 12.1007 22.559C11.921 22.4813 11.7997 22.3465 11.9567 22.1887C12.0641 22.0898 12.1377 21.9584 12.1666 21.8138C12.1955 21.6691 12.1782 21.5188 12.1173 21.3849C12.1959 21.0401 12.2363 20.5872 12.4469 20.2921C12.5369 20.1764 12.5971 20.0394 12.6218 19.8938C12.7551 18.9917 11.3344 19.4555 11.1786 18.5546Z" fill="url(#paint7_linear_4479_63443)"/>
<path d="M12.0202 17.3633C11.8921 17.4192 11.7872 17.5194 11.724 17.6462C11.6386 17.8038 11.5938 17.9809 11.5938 18.161C11.5938 18.3411 11.6386 18.5182 11.724 18.6758V18.6819C11.7513 18.7361 11.7902 18.7835 11.8378 18.8204C11.8853 18.8574 11.9403 18.8831 11.9988 18.8956C12.052 18.9053 12.1067 18.9126 12.163 18.9175C12.3066 18.9287 12.4448 18.9778 12.5642 19.0599C12.6836 19.1419 12.7802 19.2542 12.8444 19.3856C12.9087 19.5171 12.9384 19.6634 12.9308 19.8101C12.9231 19.9568 12.8783 20.099 12.8008 20.2227L12.7829 20.2494C12.7234 20.3301 12.6819 20.4231 12.6614 20.5219C12.6408 20.6207 12.6417 20.7229 12.6639 20.8213C12.7139 21.0132 12.8436 21.1395 13.1304 21.1431C12.8924 20.6574 13.2815 20.0588 13.6372 19.7468C14.0287 19.4153 14.1131 19.1979 13.8906 18.7195C13.4611 18.0639 12.6294 17.7846 12.0202 17.3633Z" fill="url(#paint8_linear_4479_63443)"/>
<path d="M12.4018 21.1443C12.1638 21.8473 13.218 21.5085 13.5916 21.5887C14.0794 21.6992 14.5435 22.0076 14.2984 22.5673C15.0884 22.2031 15.0789 20.9318 14.252 20.6015C13.9878 20.7642 13.6106 20.8274 13.4 20.5469C13.2942 20.7897 13.3572 21.2353 13.5535 21.4162C13.1978 21.4114 12.6326 21.477 12.4018 21.1443Z" fill="url(#paint9_linear_4479_63443)"/>
<path d="M8.69423 23.2022C9.43549 23.3589 10.2803 23.2775 11.0168 23.0747C11.1213 23.0456 11.2274 23.0225 11.3345 23.0055L11.9651 22.912C12.1542 22.8963 12.6242 22.8695 12.7551 22.6923C11.7783 22.1046 12.5171 22.2916 12.4101 21.8047C12.6314 22.0949 13.0775 21.9868 13.3845 21.9795C14.3542 21.9297 14.2364 22.7081 13.5154 23.0723C13.1965 23.2374 12.7468 23.1937 12.4017 23.3152C12.1638 23.4002 12.5207 23.6296 12.5326 23.6041C12.3541 23.7571 12.0757 23.7377 11.8651 23.6831C11.7973 23.6661 11.6581 23.5204 11.5807 23.5179C11.273 23.5119 10.9657 23.5445 10.6658 23.6151C10.5073 23.6558 10.3548 23.7178 10.2124 23.7996C9.9769 23.9043 9.72754 23.973 9.47238 24.0036C9.50159 23.9985 9.5279 23.9825 9.54615 23.9587C9.56924 23.9272 9.58204 23.8891 9.58272 23.8498C9.58339 23.8105 9.57192 23.772 9.54992 23.7398C9.52792 23.7075 9.49651 23.6831 9.46016 23.6701C9.42382 23.6571 9.38438 23.6561 9.34745 23.6673C9.119 23.7328 8.84296 23.83 8.75848 23.8543C8.55383 23.9453 8.34442 24.0048 8.14453 23.8907H8.15762C8.2699 23.8554 8.37313 23.7951 8.45994 23.7143C8.54674 23.6335 8.61496 23.5341 8.65973 23.4232C8.68763 23.3532 8.69944 23.2776 8.69423 23.2022Z" fill="url(#paint10_linear_4479_63443)"/>
<path d="M16.2479 14.7972C15.9109 14.577 15.6471 14.2578 15.4912 13.8817C15.3763 13.616 15.3586 13.317 15.4412 13.0391C15.0997 13.2224 14.7773 13.5721 14.7273 13.9789C14.8618 13.8125 15.1271 13.906 15.2877 14.0153C15.2942 14.0197 15.2995 14.0256 15.3035 14.0324C15.3074 14.0393 15.3098 14.0469 15.3105 14.0548C15.3112 14.0627 15.3102 14.0707 15.3074 14.0781C15.3047 14.0856 15.3004 14.0923 15.2949 14.0979C15.0569 14.3213 14.5203 13.9072 14.0443 14.5192C14.011 14.5677 13.9741 14.6285 13.9361 14.6977C13.8664 14.8234 13.8251 14.9633 13.8151 15.1074C13.8051 15.2514 13.8267 15.3959 13.8783 15.5303C13.9299 15.6648 14.0103 15.7858 14.1135 15.8846C14.2168 15.9833 14.3403 16.0574 14.4751 16.1013C14.6188 16.1493 14.7739 16.1489 14.9175 16.1002C15.061 16.0514 15.1854 15.9569 15.2722 15.8305C15.3258 16.4376 14.882 16.627 14.4298 16.5518C14.2476 16.5168 14.0751 16.4415 13.9244 16.3311C13.7737 16.2208 13.6485 16.0781 13.5577 15.9131C13.1853 15.2732 12.9806 14.5775 12.1406 14.371C12.268 14.5475 12.3617 14.7469 12.4167 14.9587C12.4535 15.2016 12.4869 15.68 12.563 15.9058C12.7665 16.5688 13.4542 17.5328 14.2062 17.018C14.1026 17.4831 13.5982 17.7004 13.1698 17.653C13.8683 18.0549 15.0355 19.2412 14.0027 19.909C13.8587 19.988 13.6243 20.1434 13.6458 20.3401C13.6874 20.3839 13.7404 20.4146 13.7986 20.4286C13.8568 20.4426 13.9177 20.4392 13.9741 20.419C14.1219 20.3468 14.2772 20.2918 14.437 20.2551C14.7725 20.1919 15.1318 20.2247 15.3888 20.4651C15.2699 20.1397 15.0069 20.0074 14.7511 19.8155C15.0616 19.7536 15.3651 19.9443 15.6649 20.073C15.7459 20.1075 15.8346 20.1185 15.9213 20.1048C16.008 20.0911 16.0894 20.0532 16.1563 19.9952C16.1495 19.9323 16.1495 19.8688 16.1563 19.8058C16.1953 19.4617 16.3289 19.1359 16.5418 18.866C16.8012 18.5273 16.5263 18.5261 16.518 17.8242C16.518 17.5602 16.5685 17.2987 16.6667 17.0544C16.7609 16.809 16.8349 16.556 16.888 16.298C16.9378 16.0113 16.9036 15.716 16.7897 15.4491C16.6759 15.1822 16.4874 14.9554 16.2479 14.7972ZM15.7482 18.4399C15.6137 18.5431 15.3377 18.4617 15.3912 18.2614C14.4774 19.2012 15.6673 19.7184 16.217 18.5661C16.1848 18.9304 16.1051 19.3517 15.7482 19.5156C14.832 19.852 14.3965 18.934 14.8499 18.18C15.2901 17.7259 15.0176 17.0994 14.5667 16.78C15.3722 17.2596 15.7696 16.6659 15.841 15.8694C15.7755 15.3691 15.2841 14.949 15.0652 14.5143C16.5489 15.465 16.6382 15.9714 15.5947 17.3968C15.4472 17.6822 15.3139 18.3451 15.7482 18.435V18.4399Z" fill="url(#paint11_linear_4479_63443)"/>
<path d="M14.8341 20.5391C15.3838 20.5476 15.5242 20.998 15.1804 21.4874C15.1804 21.1486 14.8877 20.6981 14.5664 20.6022C14.6498 20.5607 14.7413 20.5392 14.8341 20.5391Z" fill="url(#paint12_linear_4479_63443)"/>
<path d="M16.8757 14.9368C16.9674 14.9793 17.0483 15.0428 17.112 15.1224C17.1758 15.202 17.2207 15.2956 17.2433 15.3958C17.2663 15.4979 17.2803 15.6019 17.285 15.7066C17.4856 15.628 17.6679 15.5077 17.8204 15.3533C17.9165 15.121 17.9203 14.8598 17.8311 14.6247C17.7999 14.5549 17.7805 14.4802 17.774 14.4037C17.7979 14.3644 17.8324 14.3329 17.8733 14.3129C17.9142 14.2929 17.9598 14.2852 18.0048 14.2908C18.0375 14.2932 18.069 14.3041 18.0964 14.3224C18.0938 14.2805 18.0842 14.2395 18.0679 14.201C17.9604 14.1478 17.8372 14.1378 17.7228 14.173L17.6502 14.1961C17.6338 14.2013 17.619 14.2109 17.6075 14.2239C17.596 14.237 17.5881 14.253 17.5848 14.2702C17.556 14.4424 17.4666 14.598 17.3334 14.7077C17.2003 14.8175 17.0324 14.8739 16.8614 14.8664C16.7977 14.8634 16.7349 14.8495 16.6758 14.8251L16.8757 14.9368Z" fill="url(#paint13_linear_4479_63443)"/>
<path d="M15.9929 10.9618C15.3182 11.3079 15.5003 12.4468 16.3498 12.0133C16.0333 11.7936 15.9227 11.252 16.0738 10.9023L15.9929 10.9618Z" fill="url(#paint14_linear_4479_63443)"/>
<path d="M16.4113 11.1641C16.3875 11.5745 16.7243 12.1451 17.1716 11.9108C16.8349 11.8064 16.5613 11.4773 16.4113 11.1641Z" fill="url(#paint15_linear_4479_63443)"/>
<path d="M18.7642 11.2197C18.7292 11.1092 18.6593 11.0135 18.5655 10.9477C18.4967 10.8949 18.4239 10.8478 18.3478 10.8069C18.2567 10.7655 18.1853 10.6891 18.1491 10.5944C18.1357 10.5639 18.13 10.5305 18.1325 10.4972C18.135 10.4639 18.1456 10.4318 18.1634 10.4037C17.6934 10.5847 17.9647 11.3642 18.4227 11.346C17.7267 11.6774 17.2448 10.5725 17.7838 10.1475C17.1948 9.64607 17.923 8.78763 17.2139 8.44765C18.1467 8.57757 17.6969 9.69586 18.1181 10.1111C18.1217 10.0742 18.1197 10.0369 18.1122 10.0006C18.0892 9.86027 18.0936 9.71666 18.1253 9.57808V9.56958C18.1718 9.37662 18.18 9.1761 18.1494 8.97986C18.1187 8.78362 18.0498 8.59564 17.9468 8.42701C17.8649 8.29267 17.7574 8.17647 17.6307 8.08533C17.504 7.99418 17.3606 7.92993 17.2091 7.8964L16.8212 7.81748C16.895 7.7507 17.1782 7.73613 17.3233 7.72763C17.3636 7.72423 17.4042 7.72961 17.4423 7.74341C17.5846 7.79501 17.7088 7.88837 17.7993 8.01175C17.7378 7.7845 17.7305 7.54554 17.7779 7.3148C17.8143 7.15988 17.8271 7.00016 17.8159 6.84126C17.8106 6.76397 17.7916 6.68829 17.76 6.61784C17.7073 6.49703 17.6181 6.39661 17.5054 6.33129C17.4688 6.30917 17.428 6.29523 17.3858 6.29042C17.3435 6.2856 17.3007 6.29002 17.2603 6.30336C17.1254 6.34494 17.01 6.43513 16.9355 6.55713L16.8391 6.72227C16.8791 6.36764 16.9751 6.02197 17.1235 5.69869C17.2151 5.49956 17.3091 5.29072 17.39 5.09159C17.5128 4.80164 17.554 4.48251 17.509 4.17C17.4328 3.68432 17.152 3.4087 16.569 3.15736C16.6439 3.23507 16.807 3.36863 16.7915 3.49369C16.7686 3.58273 16.7766 3.67709 16.8141 3.76082C16.9062 3.81586 16.9812 3.89623 17.0306 3.99273C17.4245 4.76254 17.1068 5.28465 16.5761 5.93546C16.3834 6.1698 16.3739 6.5802 16.3536 6.86797C16.2318 6.64533 16.1683 6.39442 16.1692 6.13945C16.1693 6.05014 16.1918 5.96235 16.2346 5.88446C16.3249 5.72141 16.4288 5.56663 16.5452 5.42185C16.7832 5.12073 16.9021 4.89974 16.8224 4.3922C16.4655 3.99273 16.3465 3.37956 16.1621 2.88902C15.9929 2.64433 15.7873 2.42804 15.5529 2.24792C15.4633 2.17976 15.3637 2.12649 15.2578 2.09007C15.071 2.02572 14.8069 1.93951 14.7033 1.96865C14.6878 2.10192 14.7093 2.23695 14.7652 2.35841C14.8497 2.54394 14.9842 2.70105 15.1531 2.81131L15.2078 2.84773C15.4577 3.01607 15.7308 3.14539 16.0181 3.23142H16.03C15.6576 3.43298 15.334 3.34192 14.9865 3.14521C14.9915 3.30956 14.9554 3.4725 14.8818 3.61875C14.8547 3.666 14.8215 3.7093 14.7831 3.74746C14.6245 3.89918 14.4483 4.03049 14.2584 4.13843L14.2155 4.15422L13.8467 4.21979L13.8669 4.21129C14.0882 4.10354 14.2794 3.94058 14.4227 3.73748C14.566 3.53438 14.6568 3.29769 14.6867 3.04929C14.6994 2.94616 14.6958 2.84163 14.676 2.73967C14.5515 2.61068 14.4391 2.47002 14.3404 2.31955C14.283 2.15316 14.2455 1.9803 14.2286 1.80473C14.2166 1.69454 14.1951 1.58565 14.1644 1.47932C14.1214 1.32128 14.0291 1.18186 13.9014 1.08228C13.5956 0.839437 13.3957 0.823652 12.9281 0.789655C12.7187 0.779941 12.1892 0.755657 12.0143 0.898933C12.0365 0.924016 12.06 0.947926 12.0845 0.970571C12.3609 1.22436 12.7194 1.36491 13.0911 1.36519C13.3007 1.37897 13.511 1.35261 13.711 1.28748L13.6991 1.29841C13.5357 1.45876 13.3281 1.56425 13.1042 1.60074L12.9745 1.61896C12.6321 1.65767 12.2883 1.5593 12.0155 1.34455C11.6955 1.09321 11.3695 0.783584 11.1136 0.538314C10.6377 0.0951287 9.62874 0.155839 9.21706 0.659735C10.0975 1.13935 9.28845 1.8193 10.5259 2.39848C10.0404 2.47862 9.65372 2.01722 9.43599 1.6311C9.54783 1.16242 9.26108 0.971786 8.89581 0.930503C8.72567 0.90859 8.55288 0.932882 8.39489 1.00093C8.29115 1.04356 8.19953 1.11202 8.12837 1.20006C8.01462 1.33902 7.93852 1.50596 7.90762 1.68426C7.87673 1.86256 7.89212 2.046 7.95227 2.21635C7.95176 2.22119 7.95176 2.22607 7.95227 2.23092C8.0308 2.49076 8.25568 2.74331 8.41868 2.98251C8.48418 3.078 8.5221 3.19032 8.52815 3.3067C8.5369 3.42349 8.50109 3.5392 8.4282 3.62968C8.38018 3.67603 8.32514 3.71416 8.2652 3.7426V3.71832C8.2713 3.63603 8.25966 3.55338 8.23109 3.47618C8.20251 3.39898 8.1577 3.32911 8.09981 3.27149C8.0082 3.18043 7.90944 3.076 7.82377 2.98373C7.71236 2.86631 7.63068 2.72294 7.58581 2.56604C7.52727 2.34046 7.51151 2.10555 7.5394 1.87394C7.57318 1.56762 7.70351 1.28077 7.91078 1.05655C8.11806 0.832321 8.39108 0.682842 8.68878 0.630594C8.76261 0.607204 8.84033 0.599356 8.91722 0.607524C8.91722 0.351326 9.54783 0.192265 9.762 0.16191C8.61382 -0.294631 6.91356 0.262689 6.16754 1.22798C6.72318 1.28869 7.08846 1.87394 7.04325 2.41912C6.90999 2.9813 6.38765 3.45969 6.12232 3.95388C5.87246 4.39099 5.87008 5.06487 6.02238 5.53234C5.79393 5.33564 5.47149 4.89367 5.62022 4.37156C5.98668 3.076 7.35022 2.0925 5.40724 1.38219C5.11136 1.2814 4.79404 1.26544 4.48988 1.33605C4.38948 1.3536 4.29131 1.38251 4.19718 1.42226C3.72125 1.6651 3.27031 2.45433 3.36431 3.04322C4.28166 3.54833 4.09248 4.13601 4.1246 4.99445C4.32806 4.89731 4.23169 4.68847 4.37685 4.52455C4.60529 4.26714 4.86349 4.00487 4.53866 3.40748C4.18172 2.74938 4.95153 2.43612 4.86468 1.81809C4.99794 2.14228 4.83612 2.46526 4.74569 2.80888C4.53033 3.6309 5.32395 3.7596 4.57674 4.6569C4.01395 5.33443 5.17165 5.61005 4.76949 6.33372C4.67549 5.88689 3.83786 5.61855 3.87117 5.18265C3.89378 4.87667 3.93661 4.23071 3.83191 3.89802C3.68255 3.53232 3.40273 3.23809 3.049 3.07479C2.98118 2.87809 2.90027 2.79917 2.81104 2.78702C2.67444 2.76043 2.53396 2.7625 2.39817 2.79309C2.06978 2.89752 1.95198 3.05051 1.77232 3.3492C1.55458 3.71346 1.57719 4.15786 2.02932 4.40677C2.11207 4.22101 2.20585 4.04057 2.31012 3.86645C2.4291 3.69768 2.76582 3.34434 2.99665 3.46698C2.18638 3.95266 1.71402 5.23608 2.92764 5.36964C2.8158 5.48135 2.55641 5.44978 2.42077 5.41699C2.91931 5.9646 2.66707 6.79755 2.14473 7.22616C2.39103 7.51028 2.7801 7.85755 2.9205 8.2206C2.94489 8.42815 2.92326 8.63864 2.85721 8.83652C2.79116 9.0344 2.68238 9.2146 2.53891 9.3638C2.39544 9.51301 2.22095 9.62741 2.02833 9.69854C1.83571 9.76968 1.62989 9.79573 1.42608 9.77478C1.83895 9.34009 2.15068 8.41365 1.42608 8.13682C0.780005 8.53265 0.189851 9.68736 0.872811 10.2835C1.44631 10.5264 1.89606 11.2063 1.77827 11.8499C1.69855 11.2428 1.14052 10.4948 0.596772 10.9647C-0.248005 11.6932 0.457562 13.3215 1.39514 13.8084C1.08341 12.31 2.79319 12.3015 1.94722 10.2362C3.00974 11.0667 2.75749 12.2688 2.15425 13.3069C1.9032 13.6445 2.22088 15.8155 2.5469 14.5685C2.71347 15.0189 2.33273 15.5556 2.51596 16.0182C2.75393 16.3363 2.91812 16.8682 3.16798 17.1766C3.48448 16.7686 3.72482 16.1287 3.68199 15.5981C3.751 14.2418 2.61115 13.7404 2.76939 12.6524C2.86696 13.1831 3.31195 13.6238 3.60227 14.0464C4.08653 15.008 4.22217 16.2647 3.55587 17.1717C3.3179 17.434 3.19892 17.9865 3.24889 18.3313C3.10968 18.9712 2.60282 19.7519 2.81104 20.4149C2.93002 19.5868 3.48924 20.1222 3.59394 19.3658C3.82794 18.9892 4.1078 18.6445 4.42682 18.3398C4.65408 18.2536 4.96819 18.0714 4.9325 17.7752C4.43634 18.018 3.16679 18.1941 4.05084 17.3684C4.34472 16.6217 4.68025 15.4767 5.39296 15.0724C4.57317 14.5102 5.34894 13.2511 3.84619 13.8278C4.32212 12.9171 5.22043 13.9177 4.76711 12.5189C4.64813 12.185 4.57793 12.276 4.35305 12.4642C3.92828 12.6112 3.3179 12.6464 2.91812 12.4096C3.6106 12.5772 4.65646 12.2542 4.59102 11.3836C4.80162 11.2622 5.18593 10.9501 5.29777 10.7255C5.23709 10.3285 5.32752 9.70071 4.9908 9.41659C5.18712 9.92898 4.71476 10.3965 4.24716 10.5252C4.20908 10.4232 4.15792 10.3807 4.25311 10.3175C4.95748 9.85127 4.42444 9.01469 5.39653 8.25338C5.89982 7.85755 5.74039 7.05739 5.25851 6.67491C5.75705 6.78662 5.90696 7.21159 5.9962 7.67056C5.9962 7.5115 6.15207 7.3063 6.2651 7.21523C5.93552 6.42478 5.98787 5.3065 6.81956 4.85724C6.32102 5.68898 6.10566 6.96146 6.88381 7.63413C6.91572 7.66778 6.95748 7.68993 7.00279 7.69727C7.00279 7.69727 6.91237 7.55764 6.88381 7.50907C6.04855 6.1613 8.69829 5.49227 7.20625 4.76132C7.68218 4.67876 8.0308 5.03695 7.98083 5.5202L8.57574 5.61612L8.93269 5.6914C9.07125 5.71952 9.20647 5.76267 9.33604 5.82011C9.35845 5.83122 9.3815 5.84095 9.40505 5.84925L9.42409 5.85775C9.63716 5.95208 9.83717 6.07454 10.019 6.22201L10.0785 6.27058L10.1808 6.37136C10.3027 6.49172 10.4095 6.62714 10.4985 6.77448C10.5286 6.82559 10.5526 6.88021 10.5699 6.93718C10.6234 7.10505 10.6437 7.28213 10.6294 7.45807L10.6175 7.59649L10.6794 7.50907C10.7106 7.46611 10.7336 7.4175 10.7472 7.36579C10.7756 7.2577 10.7901 7.14625 10.79 7.03432C10.79 6.92758 10.7756 6.82135 10.7472 6.71862C10.7218 6.62678 10.6842 6.53894 10.6353 6.45757L10.5592 6.33615L10.5223 6.29122C10.417 6.1617 10.2855 6.05692 10.1368 5.98403L10.0476 5.9391C10.0285 5.92924 10.0086 5.92112 9.98807 5.91482L9.72392 5.82861L9.4693 5.75576C8.53767 5.18265 8.94697 4.45413 8.21879 4.15786C9.95118 4.24529 9.3408 5.32836 10.6222 5.75576C10.4842 5.29922 10.7174 4.80382 10.959 4.38492C11.1036 4.14271 11.1635 3.85769 11.1291 3.57626C11.0883 3.24609 10.9604 2.93344 10.7591 2.67167C10.9439 2.68832 11.1149 2.77862 11.235 2.92301C11.5563 3.31035 11.6895 3.87617 11.6907 4.38006C11.6905 4.50371 11.6585 4.62514 11.5979 4.73218C11.5209 4.87018 11.4234 4.99512 11.3088 5.10251L11.3004 5.1098C11.2037 5.19914 11.1231 5.30518 11.0625 5.42306V5.42914C10.9984 5.55153 10.9707 5.69037 10.9828 5.82861C10.9963 5.99464 11.0437 6.15596 11.1217 6.3023C11.1998 6.44863 11.3068 6.57677 11.4361 6.67855C11.6937 6.69944 11.9473 6.75706 12.1892 6.84976C12.4482 6.93907 12.6733 7.10891 12.8329 7.33544C12.854 7.41223 12.8691 7.49058 12.8782 7.56978C13.2244 7.3148 13.2648 7.0841 13.2589 6.71984C13.2577 6.6236 13.2327 6.52923 13.1863 6.44543C13.0737 6.23328 12.9057 6.05717 12.7009 5.93667C12.3777 5.75972 12.0297 5.63441 11.6693 5.56513L11.755 5.54934C12.0463 5.49744 12.3448 5.50529 12.633 5.57241C12.6557 5.57781 12.6774 5.58683 12.6973 5.59912C12.9729 5.77423 13.2259 5.9839 13.4505 6.22323C13.9204 6.74291 14.0168 7.32937 13.88 8.00932C14.1846 7.78955 14.275 7.57949 14.3 7.32208C14.3232 7.01553 14.2618 6.70846 14.1227 6.43571L14.0037 6.20016C14.0562 6.2143 14.1055 6.23863 14.1489 6.2718C14.2649 6.35418 14.3631 6.46011 14.4372 6.58295C14.5113 6.7058 14.5598 6.84292 14.5796 6.98575C14.6044 7.1353 14.612 7.2873 14.6022 7.43865C14.5713 7.80291 14.5189 8.32866 14.7712 8.62857C15.0123 8.77123 15.2614 8.89935 15.5172 9.01226C15.7058 9.11178 15.8745 9.24645 16.0145 9.4093C16.3715 9.81363 16.6915 10.0164 16.8807 10.5567C16.8272 11.318 17.127 11.7199 17.9516 11.7394C17.789 11.7835 17.6426 11.875 17.5304 12.0028C17.3999 12.1416 17.2393 12.2472 17.0616 12.3113C16.8367 12.3865 16.6011 12.3768 16.5071 12.1206C16.4381 12.2444 16.334 12.3438 16.2084 12.4058C16.0829 12.4678 15.9418 12.4895 15.8039 12.4679C15.7248 12.5691 15.6682 12.6867 15.6382 12.8126C15.6082 12.9384 15.6055 13.0694 15.6302 13.1964C15.659 13.3806 15.7282 13.5558 15.8326 13.7089C15.9371 13.862 16.0741 13.989 16.2335 14.0804H16.2394C16.4389 14.2008 16.6699 14.2554 16.901 14.237C17.1984 14.2115 17.4959 14.0961 17.641 13.8448C17.1437 13.9917 16.9593 13.8448 16.9152 13.5352C16.891 13.3272 16.9225 13.1165 17.0063 12.9253C17.0901 12.7342 17.2231 12.5698 17.3912 12.4497C17.5351 12.3416 17.6874 12.2469 17.81 12.1583C18.2014 11.9506 18.9153 11.7321 18.7642 11.2197ZM3.65343 9.30488C3.84024 9.691 4.07582 10.1427 4.11628 10.5932C4.04132 11.2828 3.39048 11.7904 2.8622 12.1486C3.14657 11.7503 3.68556 11.3095 3.69508 10.7765C3.67723 10.4414 3.75933 9.00012 3.22629 9.657C3.62012 9.08754 4.33401 8.39423 3.91757 7.64385C3.75695 7.38279 3.64035 7.16424 3.53802 7.00518C3.74386 7.1266 3.95684 7.26016 4.0901 7.35851C4.75521 7.85512 4.41849 9.08875 3.65224 9.30488H3.65343ZM10.8923 2.1265C10.8923 1.98079 10.9197 1.77923 10.8233 1.6566C11.0494 1.68817 11.1517 1.88365 11.1803 2.09007C11.2043 2.24992 11.252 2.4051 11.3219 2.55025C11.4238 2.74004 11.5037 2.94135 11.5598 3.15007C11.4087 2.78217 10.9578 2.55632 10.8923 2.1265ZM14.864 4.88396C14.8586 4.98389 14.8305 5.08118 14.7819 5.16808C14.7725 5.18574 14.759 5.20076 14.7426 5.21179C14.5235 5.36969 14.2749 5.47995 14.0123 5.53572C13.7497 5.59148 13.4787 5.59158 13.2161 5.53599C13.0841 5.44863 12.9774 5.32672 12.9073 5.18299C12.8372 5.03926 12.8062 4.87897 12.8175 4.71883C12.8394 4.53451 12.8342 4.34789 12.802 4.16515C12.6286 3.94182 12.4247 3.74513 12.1964 3.58111L11.9977 3.43662C11.752 3.14731 11.5663 2.81029 11.4516 2.44583C11.4004 2.28556 11.3492 2.12164 11.2933 1.96865C11.2077 1.7319 11.0377 1.5368 10.8174 1.42226C10.7093 1.36342 10.5946 1.31816 10.4759 1.28748C10.322 1.27809 10.1678 1.30039 10.0226 1.35305C10.3081 1.11021 10.7186 1.16849 11.0803 1.29962C11.341 1.39622 11.573 1.55972 11.7538 1.77438C11.8874 1.93801 12.0334 2.09066 12.1904 2.23092C12.3643 2.37617 12.5847 2.45057 12.8091 2.43976C13.3505 2.41669 13.3695 2.29284 13.5052 2.29041C12.9924 2.87323 12.6723 3.24721 11.8727 2.83438C12.0798 3.07722 12.5498 3.38684 12.8734 3.58111C13.0108 3.66304 13.1237 3.78161 13.2 3.92408C13.2763 4.06655 13.3131 4.22755 13.3065 4.38978V4.39706V4.46263C13.293 4.66358 13.3342 4.86444 13.4255 5.04302C13.4628 5.11546 13.5238 5.17219 13.598 5.20329C13.7556 5.27016 13.9289 5.28832 14.0965 5.2555H14.1025C14.242 5.2283 14.3767 5.18001 14.5023 5.11223C14.6445 5.03523 14.7582 4.91284 14.8259 4.76375L14.864 4.67876V4.88396ZM15.0413 5.9561C15.072 5.71653 15.181 5.49452 15.3506 5.32593C15.6231 5.04666 15.9646 4.76011 15.9241 4.35456C16.4298 5.55299 14.3523 6.14066 16.4191 7.49207C15.6861 7.32451 14.958 6.71255 15.0413 5.9561ZM16.4119 9.37531C16.3043 9.06341 16.2516 8.73457 16.2561 8.40394C16.2194 8.16192 16.1047 7.9393 15.9301 7.77134C15.8622 7.70353 15.7872 7.64366 15.7064 7.59285C16.2275 7.71427 16.5214 7.86848 16.7225 8.26795C16.7492 8.40056 16.7544 8.53673 16.7379 8.67107C16.7044 9.02075 16.7156 9.37341 16.7713 9.72014C16.7831 9.79532 16.7906 9.87113 16.7939 9.9472C16.6523 9.74685 16.5095 9.54165 16.4119 9.37531Z" fill="url(#paint16_linear_4479_63443)"/>
<path d="M5.75215 8.67969C5.63064 8.71223 5.51324 8.75909 5.40234 8.81932C5.51452 8.76197 5.63162 8.71524 5.75215 8.67969Z" fill="url(#paint17_linear_4479_63443)"/>
<path d="M14.9375 11.3583C14.9873 11.198 15.0825 11.0565 15.2111 10.9515C15.668 10.5642 15.8703 10.2825 15.5764 9.79314C15.4649 9.61076 15.3174 9.45405 15.1433 9.33296C14.7269 9.03305 14.1688 8.66636 14.2676 8.13089C14.1665 8.34216 13.7298 8.47815 13.5299 8.53765C13.5918 8.44901 13.6072 8.20374 13.6096 7.98154C13.6125 7.74841 13.5532 7.51886 13.4383 7.31737C13.4383 7.31737 12.7375 8.4478 12.1985 8.5073C12.4971 8.2086 12.7018 7.91112 12.6221 7.51286C12.6094 7.44763 12.5825 7.38614 12.5433 7.33297C12.5042 7.27979 12.4538 7.23628 12.396 7.20567C12.0176 7.00654 11.4774 7.01139 11.0872 6.96283C11.1824 7.62214 11.1003 7.93419 10.566 8.33124C10.4399 8.42594 10.177 8.67971 9.9985 8.60443C9.80218 7.79091 10.6779 7.96333 9.96756 6.8584C9.1799 6.04124 8.4779 6.5075 7.81755 5.85547C7.77114 6.14931 7.52604 6.38608 7.34162 6.63377C7.28033 6.71164 7.23523 6.80143 7.20905 6.89766C7.18286 6.99389 7.17615 7.09456 7.18932 7.19352C7.21669 7.37808 7.3083 7.48129 7.50462 7.68892C7.66763 7.81034 8.06741 8.1746 8.29467 8.07989C8.09716 8.29238 7.71046 8.26688 7.38564 8.22196C7.18071 8.1929 6.98475 8.11739 6.81214 8.00097C6.67948 7.91179 6.56709 7.79461 6.48256 7.65735L6.33978 7.44486C6.27315 7.53472 6.17797 7.67921 6.08992 7.82613C5.91544 8.12223 5.72187 8.40617 5.51048 8.67607L5.4022 8.81692C5.5131 8.75668 5.63049 8.70982 5.75201 8.67728C6.27196 8.53644 6.88472 8.61415 7.37612 8.75256C7.77747 8.83933 8.1726 8.95372 8.55881 9.09497C8.73065 9.16035 8.898 9.23742 9.05972 9.32567C9.1538 9.37791 9.23232 9.45509 9.28698 9.54908C9.2785 9.67625 9.23747 9.79892 9.168 9.90485C9.1489 9.9438 9.12446 9.97978 9.09542 10.0117C9.08352 10.0238 8.911 10.1659 8.83842 10.2181L8.46957 10.2655L8.40056 10.2436C8.35297 10.2278 8.30538 10.2157 8.25659 10.2048C8.18188 10.1897 8.10918 10.1657 8.04004 10.1331C7.78774 10.0293 7.56191 9.86816 7.37969 9.662C7.06439 9.83685 6.54681 9.97891 6.21247 9.78343C5.91858 10.0481 5.95785 10.2011 6.1506 10.3225C6.29868 10.4167 6.46992 10.4659 6.64438 10.4646C6.69576 10.4642 6.74704 10.4601 6.79787 10.4525C6.84816 10.4441 6.8997 10.4486 6.94788 10.4655C6.99605 10.4825 7.03935 10.5114 7.07391 10.5496C7.08465 10.5712 7.0915 10.5947 7.09413 10.6188C7.09413 10.9272 6.57061 10.8386 6.24698 10.7973C6.01318 10.769 5.791 10.6776 5.60328 10.5326C5.57711 10.5132 5.55569 10.495 5.53903 10.4804C5.777 10.8568 5.46526 11.1482 5.18208 11.4238C5.09095 11.5119 5.02018 11.6197 4.9749 11.7392C4.92963 11.8587 4.91098 11.9869 4.92032 12.1147C4.92364 12.159 4.93243 12.2026 4.9465 12.2446C4.96791 12.3078 4.9929 12.3843 5.01908 12.4656C5.11169 12.7547 5.16845 13.0545 5.18803 13.358C5.1973 13.5581 5.22843 13.7564 5.28084 13.9494C5.3903 14.1813 5.49858 14.69 5.79484 14.8102L5.93643 14.8673C5.93475 14.8218 5.93754 14.7762 5.94476 14.7313C5.98666 14.6337 6.04108 14.5423 6.10658 14.4593C6.17095 14.3892 6.24233 14.3261 6.31956 14.2711C6.42921 14.1905 6.54935 14.126 6.6765 14.0793C6.88606 13.9678 7.12352 13.923 7.35827 13.9506C7.55222 13.7223 7.7414 13.5572 8.04956 13.5195C7.88299 12.9537 7.98412 12.757 8.44102 12.4268C8.61711 12.3223 8.75037 12.088 8.95383 12.1948C8.96793 12.2018 8.97966 12.213 8.9875 12.2268C8.99535 12.2407 8.99895 12.2566 8.99785 12.2725C8.99447 12.3326 8.97835 12.3911 8.95062 12.4442C8.92288 12.4972 8.88419 12.5435 8.83723 12.5797C8.73292 12.6587 8.63357 12.7443 8.53977 12.8359C8.48864 12.885 8.44862 12.9449 8.42252 13.0113C8.39642 13.0778 8.38486 13.1493 8.38866 13.2208C8.39014 13.2544 8.39841 13.2872 8.41295 13.3173C8.42749 13.3474 8.44799 13.3741 8.47314 13.3957C8.56522 13.4817 8.68623 13.5283 8.81105 13.5256H8.82057C8.84318 14.1327 8.10667 13.6288 7.65811 14.2772C7.58292 14.7685 7.34022 15.217 6.97277 15.5436C7.09378 15.3096 7.2026 15.0693 7.29878 14.8236C7.35065 14.6603 7.37283 14.4887 7.36422 14.3173C7.17227 14.3023 6.97949 14.3318 6.80025 14.4035C6.27315 14.69 5.98878 15.3202 5.89003 15.8957C5.8718 15.6939 5.86822 15.491 5.87932 15.2886C4.94412 15.5315 4.76207 16.7542 4.32422 17.4864C5.09999 17.4754 5.85195 16.7578 6.34692 16.2054C6.33738 16.0715 6.34377 15.937 6.36596 15.8047C6.37422 15.7639 6.39444 15.7267 6.42393 15.6979C6.45341 15.6692 6.49077 15.6502 6.53105 15.6436C6.57133 15.6371 6.61261 15.6431 6.64943 15.661C6.68625 15.679 6.71685 15.7079 6.73719 15.744C6.7591 15.7926 6.76373 15.8476 6.75027 15.8994C7.21193 16.0621 7.76163 15.801 8.06979 15.4234C8.13761 15.3408 8.20781 15.2619 8.2792 15.1806C8.60759 14.8163 8.69802 14.1667 8.92884 13.9372C8.9587 13.9113 8.99486 13.8941 9.0335 13.8875C9.07214 13.8808 9.11182 13.8849 9.14837 13.8993C9.18492 13.9137 9.21698 13.9379 9.24117 13.9694C9.26536 14.0009 9.28077 14.0384 9.28579 14.0781C9.35242 14.6269 9.28579 15.0045 9.99374 15.2631C9.93872 15.1281 9.92222 14.9799 9.94614 14.8357C9.95414 14.7855 9.978 14.7394 10.0141 14.7043C10.0502 14.6692 10.0965 14.6472 10.146 14.6415C10.1859 14.634 10.2271 14.6411 10.2623 14.6615C10.2976 14.682 10.3246 14.7144 10.3388 14.7532C10.3838 14.8971 10.4051 15.0477 10.4018 15.1988C10.4083 15.2917 10.4326 15.3825 10.4735 15.4658C10.5143 15.5491 10.5708 15.6234 10.6398 15.6845C11.1443 16.1325 11.9486 16.2697 12.1235 17.0055C12.2187 16.8574 12.1319 16.5842 12.0664 16.4421C12.2937 16.7882 12.6197 17.1707 13.0563 17.2059C12.3627 16.7845 12.3615 15.7173 12.0319 15.0434C11.5131 14.0368 10.8956 13.2888 9.7177 13.8219C9.49877 13.8219 9.45832 13.6179 9.45713 13.4042C9.50234 13.0399 10.2281 13.25 10.5054 13.1613C10.4707 13.0491 10.4546 12.9317 10.4578 12.8141C10.4875 12.7072 10.5315 12.6672 10.591 12.6635C10.649 12.6629 10.7049 12.6856 10.7466 12.7267C10.7882 12.7679 10.8123 12.8241 10.8135 12.8833C10.8492 13.4904 11.3954 13.1893 11.8903 14.0259C12.5388 14.0064 13.3264 14.2007 13.4252 14.9669C13.5608 14.4399 13.9475 13.936 14.4841 13.8073C14.4841 13.8073 14.5056 13.76 14.5341 13.6932C14.6414 13.4562 14.7756 13.2329 14.9339 13.0278C15.0647 12.859 15.1625 12.6661 15.2218 12.4595C15.2339 12.4169 15.2342 12.3718 15.2229 12.329C15.2116 12.2862 15.189 12.2473 15.1576 12.2167C15.0505 12.109 14.9728 11.9745 14.9323 11.8267C14.8918 11.6789 14.8899 11.5228 14.9268 11.374L14.9375 11.3583ZM14.4365 10.0578C14.3553 10.0937 14.2665 10.1083 14.1784 10.1003C14.066 10.09 13.9568 10.057 13.8571 10.0032C13.6706 9.90287 13.4773 9.81604 13.2788 9.74336C13.3371 9.824 13.4174 9.88526 13.5097 9.91942C13.6441 10.0117 13.8892 10.1088 13.8321 10.3189C13.5549 10.5933 13.0433 10.7244 12.6863 10.8361C12.1878 10.8459 11.324 10.9576 11.0967 10.3723C11.0421 10.356 10.9885 10.3365 10.9361 10.314L10.9718 10.2934C11.0442 10.2519 11.1269 10.2329 11.2097 10.2388C11.265 10.2415 11.3189 10.2564 11.368 10.2825C11.4667 10.3319 11.5685 10.3749 11.6726 10.4112C12.1937 10.5581 12.8005 10.427 13.2848 10.2133C13.0397 10.0289 12.7751 9.87334 12.4959 9.74943C12.1247 9.9777 11.6238 9.96556 11.2181 9.84899C10.6505 10.1708 10.2805 10.8276 10.1817 11.4712C10.113 11.1679 10.0981 10.8546 10.1377 10.5459C10.1772 10.1939 10.3074 9.85874 10.5149 9.57458L10.5411 9.53694C10.5733 9.48958 10.6136 9.44846 10.66 9.41552C11.2092 9.04482 11.841 8.82102 12.4971 8.76471C12.6452 8.75703 12.7924 8.79195 12.9219 8.86549C13.0813 8.95777 13.2598 9.08404 13.3479 9.14475C13.6477 9.32081 14.032 9.59522 14.3437 9.80771C14.4198 9.86018 14.4744 9.93921 14.4972 10.0299L14.4365 10.0578Z" fill="url(#paint18_linear_4479_63443)"/>
</g>
<defs>
<linearGradient id="paint0_linear_4479_63443" x1="-0.154595" y1="3.33237" x2="11.4851" y2="24.2367" gradientUnits="userSpaceOnUse">
<stop stop-color="#2E1988"/>
<stop offset="0.05" stop-color="#351C91"/>
<stop offset="0.14" stop-color="#4725AB"/>
<stop offset="0.25" stop-color="#6432D4"/>
<stop offset="0.26" stop-color="#6834D9"/>
<stop offset="0.51" stop-color="#8A2CF4"/>
<stop offset="0.79" stop-color="#5F09AF"/>
<stop offset="1" stop-color="#170023"/>
</linearGradient>
<linearGradient id="paint1_linear_4479_63443" x1="-3.97151" y1="5.45706" x2="7.66941" y2="26.3626" gradientUnits="userSpaceOnUse">
<stop stop-color="#2E1988"/>
<stop offset="0.05" stop-color="#351C91"/>
<stop offset="0.14" stop-color="#4725AB"/>
<stop offset="0.25" stop-color="#6432D4"/>
<stop offset="0.26" stop-color="#6834D9"/>
<stop offset="0.51" stop-color="#8A2CF4"/>
<stop offset="0.79" stop-color="#5F09AF"/>
<stop offset="1" stop-color="#170023"/>
</linearGradient>
<linearGradient id="paint2_linear_4479_63443" x1="2.09492" y1="2.08152" x2="13.7358" y2="22.9858" gradientUnits="userSpaceOnUse">
<stop stop-color="#2E1988"/>
<stop offset="0.05" stop-color="#351C91"/>
<stop offset="0.14" stop-color="#4725AB"/>
<stop offset="0.25" stop-color="#6432D4"/>
<stop offset="0.26" stop-color="#6834D9"/>
<stop offset="0.51" stop-color="#8A2CF4"/>
<stop offset="0.79" stop-color="#5F09AF"/>
<stop offset="1" stop-color="#170023"/>
</linearGradient>
<linearGradient id="paint3_linear_4479_63443" x1="1.85065" y1="2.21472" x2="13.4916" y2="23.1203" gradientUnits="userSpaceOnUse">
<stop stop-color="#2E1988"/>
<stop offset="0.05" stop-color="#351C91"/>
<stop offset="0.14" stop-color="#4725AB"/>
<stop offset="0.25" stop-color="#6432D4"/>
<stop offset="0.26" stop-color="#6834D9"/>
<stop offset="0.51" stop-color="#8A2CF4"/>
<stop offset="0.79" stop-color="#5F09AF"/>
<stop offset="1" stop-color="#170023"/>
</linearGradient>
<linearGradient id="paint4_linear_4479_63443" x1="0.285451" y1="3.08948" x2="11.9264" y2="23.9938" gradientUnits="userSpaceOnUse">
<stop stop-color="#2E1988"/>
<stop offset="0.05" stop-color="#351C91"/>
<stop offset="0.14" stop-color="#4725AB"/>
<stop offset="0.25" stop-color="#6432D4"/>
<stop offset="0.26" stop-color="#6834D9"/>
<stop offset="0.51" stop-color="#8A2CF4"/>
<stop offset="0.79" stop-color="#5F09AF"/>
<stop offset="1" stop-color="#170023"/>
</linearGradient>
<linearGradient id="paint5_linear_4479_63443" x1="-1.80338" y1="4.2495" x2="9.83754" y2="25.1538" gradientUnits="userSpaceOnUse">
<stop stop-color="#2E1988"/>
<stop offset="0.05" stop-color="#351C91"/>
<stop offset="0.14" stop-color="#4725AB"/>
<stop offset="0.25" stop-color="#6432D4"/>
<stop offset="0.26" stop-color="#6834D9"/>
<stop offset="0.51" stop-color="#8A2CF4"/>
<stop offset="0.79" stop-color="#5F09AF"/>
<stop offset="1" stop-color="#170023"/>
</linearGradient>
<linearGradient id="paint6_linear_4479_63443" x1="-3.65275" y1="5.28089" x2="7.98817" y2="26.1864" gradientUnits="userSpaceOnUse">
<stop stop-color="#2E1988"/>
<stop offset="0.05" stop-color="#351C91"/>
<stop offset="0.14" stop-color="#4725AB"/>
<stop offset="0.25" stop-color="#6432D4"/>
<stop offset="0.26" stop-color="#6834D9"/>
<stop offset="0.51" stop-color="#8A2CF4"/>
<stop offset="0.79" stop-color="#5F09AF"/>
<stop offset="1" stop-color="#170023"/>
</linearGradient>
<linearGradient id="paint7_linear_4479_63443" x1="0.223849" y1="3.12202" x2="11.8648" y2="24.0263" gradientUnits="userSpaceOnUse">
<stop stop-color="#2E1988"/>
<stop offset="0.05" stop-color="#351C91"/>
<stop offset="0.14" stop-color="#4725AB"/>
<stop offset="0.25" stop-color="#6432D4"/>
<stop offset="0.26" stop-color="#6834D9"/>
<stop offset="0.51" stop-color="#8A2CF4"/>
<stop offset="0.79" stop-color="#5F09AF"/>
<stop offset="1" stop-color="#170023"/>
</linearGradient>
<linearGradient id="paint8_linear_4479_63443" x1="3.4178" y1="1.34304" x2="15.0587" y2="22.2486" gradientUnits="userSpaceOnUse">
<stop stop-color="#2E1988"/>
<stop offset="0.05" stop-color="#351C91"/>
<stop offset="0.14" stop-color="#4725AB"/>
<stop offset="0.25" stop-color="#6432D4"/>
<stop offset="0.26" stop-color="#6834D9"/>
<stop offset="0.51" stop-color="#8A2CF4"/>
<stop offset="0.79" stop-color="#5F09AF"/>
<stop offset="1" stop-color="#170023"/>
</linearGradient>
<linearGradient id="paint9_linear_4479_63443" x1="3.04143" y1="1.55305" x2="14.6824" y2="22.4586" gradientUnits="userSpaceOnUse">
<stop stop-color="#2E1988"/>
<stop offset="0.05" stop-color="#351C91"/>
<stop offset="0.14" stop-color="#4725AB"/>
<stop offset="0.25" stop-color="#6432D4"/>
<stop offset="0.26" stop-color="#6834D9"/>
<stop offset="0.51" stop-color="#8A2CF4"/>
<stop offset="0.79" stop-color="#5F09AF"/>
<stop offset="1" stop-color="#170023"/>
</linearGradient>
<linearGradient id="paint10_linear_4479_63443" x1="0.389248" y1="3.03065" x2="12.0301" y2="23.935" gradientUnits="userSpaceOnUse">
<stop stop-color="#2E1988"/>
<stop offset="0.05" stop-color="#351C91"/>
<stop offset="0.14" stop-color="#4725AB"/>
<stop offset="0.25" stop-color="#6432D4"/>
<stop offset="0.26" stop-color="#6834D9"/>
<stop offset="0.51" stop-color="#8A2CF4"/>
<stop offset="0.79" stop-color="#5F09AF"/>
<stop offset="1" stop-color="#170023"/>
</linearGradient>
<linearGradient id="paint11_linear_4479_63443" x1="5.6882" y1="0.0761998" x2="17.3291" y2="20.9817" gradientUnits="userSpaceOnUse">
<stop stop-color="#2E1988"/>
<stop offset="0.05" stop-color="#351C91"/>
<stop offset="0.14" stop-color="#4725AB"/>
<stop offset="0.25" stop-color="#6432D4"/>
<stop offset="0.26" stop-color="#6834D9"/>
<stop offset="0.51" stop-color="#8A2CF4"/>
<stop offset="0.79" stop-color="#5F09AF"/>
<stop offset="1" stop-color="#170023"/>
</linearGradient>
<linearGradient id="paint12_linear_4479_63443" x1="4.32676" y1="0.837358" x2="15.9677" y2="21.7429" gradientUnits="userSpaceOnUse">
<stop stop-color="#2E1988"/>
<stop offset="0.05" stop-color="#351C91"/>
<stop offset="0.14" stop-color="#4725AB"/>
<stop offset="0.25" stop-color="#6432D4"/>
<stop offset="0.26" stop-color="#6834D9"/>
<stop offset="0.51" stop-color="#8A2CF4"/>
<stop offset="0.79" stop-color="#5F09AF"/>
<stop offset="1" stop-color="#170023"/>
</linearGradient>
<linearGradient id="paint13_linear_4479_63443" x1="8.7456" y1="-1.62256" x2="20.3865" y2="19.283" gradientUnits="userSpaceOnUse">
<stop stop-color="#2E1988"/>
<stop offset="0.05" stop-color="#351C91"/>
<stop offset="0.14" stop-color="#4725AB"/>
<stop offset="0.25" stop-color="#6432D4"/>
<stop offset="0.26" stop-color="#6834D9"/>
<stop offset="0.51" stop-color="#8A2CF4"/>
<stop offset="0.79" stop-color="#5F09AF"/>
<stop offset="1" stop-color="#170023"/>
</linearGradient>
<linearGradient id="paint14_linear_4479_63443" x1="8.85986" y1="-1.68897" x2="20.5008" y2="19.2166" gradientUnits="userSpaceOnUse">
<stop stop-color="#2E1988"/>
<stop offset="0.05" stop-color="#351C91"/>
<stop offset="0.14" stop-color="#4725AB"/>
<stop offset="0.25" stop-color="#6432D4"/>
<stop offset="0.26" stop-color="#6834D9"/>
<stop offset="0.51" stop-color="#8A2CF4"/>
<stop offset="0.79" stop-color="#5F09AF"/>
<stop offset="1" stop-color="#170023"/>
</linearGradient>
<linearGradient id="paint15_linear_4479_63443" x1="9.46752" y1="-2.02586" x2="21.1084" y2="18.8797" gradientUnits="userSpaceOnUse">
<stop stop-color="#2E1988"/>
<stop offset="0.05" stop-color="#351C91"/>
<stop offset="0.14" stop-color="#4725AB"/>
<stop offset="0.25" stop-color="#6432D4"/>
<stop offset="0.26" stop-color="#6834D9"/>
<stop offset="0.51" stop-color="#8A2CF4"/>
<stop offset="0.79" stop-color="#5F09AF"/>
<stop offset="1" stop-color="#170023"/>
</linearGradient>
<linearGradient id="paint16_linear_4479_63443" x1="4.13412" y1="0.943859" x2="15.775" y2="21.8494" gradientUnits="userSpaceOnUse">
<stop stop-color="#2E1988"/>
<stop offset="0.05" stop-color="#351C91"/>
<stop offset="0.14" stop-color="#4725AB"/>
<stop offset="0.25" stop-color="#6432D4"/>
<stop offset="0.26" stop-color="#6834D9"/>
<stop offset="0.51" stop-color="#8A2CF4"/>
<stop offset="0.79" stop-color="#5F09AF"/>
<stop offset="1" stop-color="#170023"/>
</linearGradient>
<linearGradient id="paint17_linear_4479_63443" x1="2.03038" y1="2.11572" x2="13.6712" y2="23.0212" gradientUnits="userSpaceOnUse">
<stop stop-color="#2E1988"/>
<stop offset="0.05" stop-color="#351C91"/>
<stop offset="0.14" stop-color="#4725AB"/>
<stop offset="0.25" stop-color="#6432D4"/>
<stop offset="0.26" stop-color="#6834D9"/>
<stop offset="0.51" stop-color="#8A2CF4"/>
<stop offset="0.79" stop-color="#5F09AF"/>
<stop offset="1" stop-color="#170023"/>
</linearGradient>
<linearGradient id="paint18_linear_4479_63443" x1="3.38545" y1="1.36291" x2="15.0264" y2="22.2684" gradientUnits="userSpaceOnUse">
<stop stop-color="#2E1988"/>
<stop offset="0.05" stop-color="#351C91"/>
<stop offset="0.14" stop-color="#4725AB"/>
<stop offset="0.25" stop-color="#6432D4"/>
<stop offset="0.26" stop-color="#6834D9"/>
<stop offset="0.51" stop-color="#8A2CF4"/>
<stop offset="0.79" stop-color="#5F09AF"/>
<stop offset="1" stop-color="#170023"/>
</linearGradient>
<clipPath id="clip0_4479_63443">
<rect width="18.566" height="24" fill="white" transform="translate(0.21875)"/>
</clipPath>
</defs>
</svg>
