<svg width="16" height="16" viewBox="0 0 16 16" fill="none" xmlns="http://www.w3.org/2000/svg">
<path d="M14.3538 6.85403L11.3538 9.85403C11.2599 9.94785 11.1327 10.0006 11 10.0006C10.8673 10.0006 10.7401 9.94785 10.6462 9.85403C10.5524 9.76021 10.4997 9.63296 10.4997 9.50028C10.4997 9.3676 10.5524 9.24035 10.6462 9.14653L12.7931 7.00028H8C6.54182 7.00193 5.14383 7.58193 4.11274 8.61302C3.08165 9.64411 2.50165 11.0421 2.5 12.5003C2.5 12.6329 2.44732 12.7601 2.35355 12.8538C2.25979 12.9476 2.13261 13.0003 2 13.0003C1.86739 13.0003 1.74021 12.9476 1.64645 12.8538C1.55268 12.7601 1.5 12.6329 1.5 12.5003C1.50182 10.7769 2.18722 9.12469 3.40582 7.90609C4.62441 6.6875 6.27665 6.0021 8 6.00028H12.7931L10.6462 3.85403C10.5998 3.80757 10.5629 3.75242 10.5378 3.69173C10.5127 3.63103 10.4997 3.56598 10.4997 3.50028C10.4997 3.43458 10.5127 3.36953 10.5378 3.30883C10.5629 3.24813 10.5998 3.19298 10.6462 3.14653C10.7401 3.05271 10.8673 3 11 3C11.0657 3 11.1308 3.01294 11.1914 3.03808C11.2521 3.06322 11.3073 3.10007 11.3538 3.14653L14.3538 6.14653C14.4002 6.19296 14.4371 6.24811 14.4623 6.30881C14.4874 6.36951 14.5004 6.43457 14.5004 6.50028C14.5004 6.56599 14.4874 6.63105 14.4623 6.69175C14.4371 6.75245 14.4002 6.80759 14.3538 6.85403Z" fill="#A4A7AE"/>
</svg>
