<svg width="16" height="16" viewBox="0 0 16 16" fill="none" xmlns="http://www.w3.org/2000/svg">
<path d="M2.99972 2C2.99972 2.13261 3.0524 2.25979 3.14617 2.35355C3.23994 2.44732 3.36711 2.5 3.49972 2.5C4.9579 2.50165 6.35589 3.08165 7.38698 4.11274C8.41807 5.14383 8.99807 6.54182 8.99972 8V12.7931L6.85347 10.6462C6.75965 10.5524 6.6324 10.4997 6.49972 10.4997C6.36704 10.4997 6.23979 10.5524 6.14597 10.6462C6.05215 10.7401 5.99944 10.8673 5.99944 11C5.99944 11.1327 6.05215 11.2599 6.14597 11.3538L9.14597 14.3538C9.19241 14.4002 9.24755 14.4371 9.30825 14.4623C9.36895 14.4874 9.43401 14.5004 9.49972 14.5004C9.56543 14.5004 9.63049 14.4874 9.69119 14.4623C9.75189 14.4371 9.80704 14.4002 9.85347 14.3538L12.8535 11.3538C12.8999 11.3073 12.9368 11.2521 12.9619 11.1914C12.9871 11.1308 13 11.0657 13 11C13 10.9343 12.9871 10.8692 12.9619 10.8086C12.9368 10.7479 12.8999 10.6927 12.8535 10.6462C12.7597 10.5524 12.6324 10.4997 12.4997 10.4997C12.434 10.4997 12.369 10.5127 12.3083 10.5378C12.2476 10.5629 12.1924 10.5998 12.146 10.6462L9.99972 12.7931V8C9.9979 6.27665 9.3125 4.62441 8.09391 3.40582C6.87531 2.18722 5.22307 1.50182 3.49972 1.5C3.36711 1.5 3.23994 1.55268 3.14617 1.64645C3.0524 1.74021 2.99972 1.86739 2.99972 2Z" fill="#A4A7AE"/>
</svg>
