<svg width="20" height="20" viewBox="0 0 20 20" fill="none" xmlns="http://www.w3.org/2000/svg">
<path d="M2.5 5.625C2.5 4.7962 2.82924 4.00134 3.41529 3.41529C4.00134 2.82924 4.7962 2.5 5.625 2.5H14.375C15.2038 2.5 15.9987 2.82924 16.5847 3.41529C17.1708 4.00134 17.5 4.7962 17.5 5.625V14.375C17.5 15.2038 17.1708 15.9987 16.5847 16.5847C15.9987 17.1708 15.2038 17.5 14.375 17.5H5.625C4.7962 17.5 4.00134 17.1708 3.41529 16.5847C2.82924 15.9987 2.5 15.2038 2.5 14.375V5.625ZM5.625 3.75C5.12772 3.75 4.65081 3.94754 4.29917 4.29917C3.94754 4.65081 3.75 5.12772 3.75 5.625V14.375C3.75 14.8723 3.94754 15.3492 4.29917 15.7008C4.65081 16.0525 5.12772 16.25 5.625 16.25H14.375C14.8723 16.25 15.3492 16.0525 15.7008 15.7008C16.0525 15.3492 16.25 14.8723 16.25 14.375V5.625C16.25 5.12772 16.0525 4.65081 15.7008 4.29917C15.3492 3.94754 14.8723 3.75 14.375 3.75H5.625Z" fill="#FCFAFF"/>
</svg>
