<svg width="20" height="20" viewBox="0 0 20 20" fill="none" xmlns="http://www.w3.org/2000/svg">
<path d="M1.67188 7.91667V3.33333C1.67188 2.8731 2.04498 2.5 2.50521 2.5H17.5052C17.9655 2.5 18.3386 2.8731 18.3386 3.33333V7.91667C17.188 7.91667 16.2552 8.84945 16.2552 10C16.2552 11.1506 17.188 12.0834 18.3386 12.0834V16.6667C18.3386 17.1269 17.9655 17.5 17.5052 17.5H2.50521C2.04498 17.5 1.67188 17.1269 1.67188 16.6667V12.0834C2.82247 12.0834 3.75521 11.1506 3.75521 10C3.75521 8.84945 2.82247 7.91667 1.67188 7.91667ZM7.50521 7.5V9.1667H12.5052V7.5H7.50521ZM7.50521 10.8334V12.5H12.5052V10.8334H7.50521Z" fill="#90E1F8"/>
</svg>
