<svg width="40" height="40" viewBox="0 0 40 40" fill="none" xmlns="http://www.w3.org/2000/svg">
<g filter="url(#filter0_d_4507_44331)">
<rect x="2" y="1" width="36" height="36" rx="18" fill="#341A4F"/>
<rect x="2.5" y="1.5" width="35" height="35" rx="17.5" stroke="#D6C3EB"/>
<path d="M27.7586 14.7326L24.268 11.2412C24.1519 11.1251 24.0141 11.033 23.8624 10.9702C23.7107 10.9073 23.5482 10.875 23.384 10.875C23.2198 10.875 23.0572 10.9073 22.9056 10.9702C22.7539 11.033 22.6161 11.1251 22.5 11.2412L12.8664 20.8756C12.7498 20.9912 12.6574 21.1289 12.5945 21.2806C12.5316 21.4323 12.4995 21.595 12.5 21.7592V25.2506C12.5 25.5821 12.6317 25.9001 12.8661 26.1345C13.1005 26.3689 13.4185 26.5006 13.75 26.5006H17.2414C17.4056 26.5011 17.5683 26.469 17.72 26.4061C17.8717 26.3432 18.0094 26.2508 18.125 26.1342L27.7586 16.5006C27.8747 16.3845 27.9668 16.2467 28.0296 16.095C28.0925 15.9434 28.1248 15.7808 28.1248 15.6166C28.1248 15.4524 28.0925 15.2899 28.0296 15.1382C27.9668 14.9865 27.8747 14.8487 27.7586 14.7326ZM25 17.4912L21.5086 14.0006L23.3836 12.1256L26.875 15.6162L25 17.4912Z" fill="#FCFAFF"/>
</g>
<defs>
<filter id="filter0_d_4507_44331" x="0" y="0" width="40" height="40" filterUnits="userSpaceOnUse" color-interpolation-filters="sRGB">
<feFlood flood-opacity="0" result="BackgroundImageFix"/>
<feColorMatrix in="SourceAlpha" type="matrix" values="0 0 0 0 0 0 0 0 0 0 0 0 0 0 0 0 0 0 127 0" result="hardAlpha"/>
<feOffset dy="1"/>
<feGaussianBlur stdDeviation="1"/>
<feColorMatrix type="matrix" values="0 0 0 0 0.0392157 0 0 0 0 0.0496732 0 0 0 0 0.0705882 0 0 0 0.05 0"/>
<feBlend mode="normal" in2="BackgroundImageFix" result="effect1_dropShadow_4507_44331"/>
<feBlend mode="normal" in="SourceGraphic" in2="effect1_dropShadow_4507_44331" result="shape"/>
</filter>
</defs>
</svg>
