<svg width="72" height="76" viewBox="0 0 72 76" fill="none" xmlns="http://www.w3.org/2000/svg">
<g filter="url(#filter0_d_4640_34506)">
<rect x="20" y="16" width="36" height="36" rx="18" fill="url(#paint0_linear_4640_34506)" shape-rendering="crispEdges"/>
<g filter="url(#filter1_d_4640_34506)">
<path d="M40.1875 34C40.1875 34.4326 40.0592 34.8556 39.8188 35.2153C39.5785 35.575 39.2368 35.8554 38.8371 36.021C38.4374 36.1866 37.9976 36.2299 37.5732 36.1455C37.1489 36.0611 36.7591 35.8527 36.4532 35.5468C36.1473 35.2409 35.9389 34.8511 35.8545 34.4268C35.7701 34.0024 35.8134 33.5626 35.979 33.1629C36.1446 32.7632 36.425 32.4215 36.7847 32.1812C37.1444 31.9408 37.5674 31.8125 38 31.8125C38.5802 31.8125 39.1366 32.043 39.5468 32.4532C39.957 32.8634 40.1875 33.4198 40.1875 34ZM38 29.9375C38.4326 29.9375 38.8556 29.8092 39.2153 29.5688C39.575 29.3285 39.8554 28.9868 40.021 28.5871C40.1866 28.1874 40.2299 27.7476 40.1455 27.3232C40.0611 26.8989 39.8527 26.5091 39.5468 26.2032C39.2409 25.8973 38.8511 25.6889 38.4268 25.6045C38.0024 25.5201 37.5626 25.5634 37.1629 25.729C36.7632 25.8946 36.4215 26.175 36.1812 26.5347C35.9408 26.8944 35.8125 27.3174 35.8125 27.75C35.8125 28.3302 36.043 28.8866 36.4532 29.2968C36.8634 29.707 37.4198 29.9375 38 29.9375ZM38 38.0625C37.5674 38.0625 37.1444 38.1908 36.7847 38.4312C36.425 38.6715 36.1446 39.0132 35.979 39.4129C35.8134 39.8126 35.7701 40.2524 35.8545 40.6768C35.9389 41.1011 36.1473 41.4909 36.4532 41.7968C36.7591 42.1027 37.1489 42.3111 37.5732 42.3955C37.9976 42.4799 38.4374 42.4366 38.8371 42.271C39.2368 42.1054 39.5785 41.825 39.8188 41.4653C40.0592 41.1056 40.1875 40.6826 40.1875 40.25C40.1875 39.6698 39.957 39.1134 39.5468 38.7032C39.1366 38.293 38.5802 38.0625 38 38.0625Z" fill="#FCFAFF"/>
</g>
</g>
<defs>
<filter id="filter0_d_4640_34506" x="0" y="-4" width="76" height="80" filterUnits="userSpaceOnUse" color-interpolation-filters="sRGB">
<feFlood flood-opacity="0" result="BackgroundImageFix"/>
<feColorMatrix in="SourceAlpha" type="matrix" values="0 0 0 0 0 0 0 0 0 0 0 0 0 0 0 0 0 0 127 0" result="hardAlpha"/>
<feOffset dy="4"/>
<feGaussianBlur stdDeviation="10"/>
<feComposite in2="hardAlpha" operator="out"/>
<feColorMatrix type="matrix" values="0 0 0 0 0 0 0 0 0 0 0 0 0 0 0 0 0 0 0.25 0"/>
<feBlend mode="normal" in2="BackgroundImageFix" result="effect1_dropShadow_4640_34506"/>
<feBlend mode="normal" in="SourceGraphic" in2="effect1_dropShadow_4640_34506" result="shape"/>
</filter>
<filter id="filter1_d_4640_34506" x="18" y="15" width="40" height="40" filterUnits="userSpaceOnUse" color-interpolation-filters="sRGB">
<feFlood flood-opacity="0" result="BackgroundImageFix"/>
<feColorMatrix in="SourceAlpha" type="matrix" values="0 0 0 0 0 0 0 0 0 0 0 0 0 0 0 0 0 0 127 0" result="hardAlpha"/>
<feOffset dy="1"/>
<feGaussianBlur stdDeviation="1"/>
<feColorMatrix type="matrix" values="0 0 0 0 0.0392157 0 0 0 0 0.0496732 0 0 0 0 0.0705882 0 0 0 0.05 0"/>
<feBlend mode="normal" in2="BackgroundImageFix" result="effect1_dropShadow_4640_34506"/>
<feBlend mode="normal" in="SourceGraphic" in2="effect1_dropShadow_4640_34506" result="shape"/>
</filter>
<linearGradient id="paint0_linear_4640_34506" x1="38" y1="16" x2="38" y2="52" gradientUnits="userSpaceOnUse">
<stop stop-color="white" stop-opacity="0.2"/>
<stop offset="1" stop-color="white" stop-opacity="0.2"/>
</linearGradient>
</defs>
</svg>
