<svg width="25" height="24" viewBox="0 0 25 24" fill="none" xmlns="http://www.w3.org/2000/svg">
<path d="M19.75 2.625H17.875V2.25C17.875 1.95163 17.7565 1.66548 17.5455 1.4545C17.3345 1.24353 17.0484 1.125 16.75 1.125C16.4516 1.125 16.1655 1.24353 15.9545 1.4545C15.7435 1.66548 15.625 1.95163 15.625 2.25V2.625H8.875V2.25C8.875 1.95163 8.75647 1.66548 8.5455 1.4545C8.33452 1.24353 8.04837 1.125 7.75 1.125C7.45163 1.125 7.16548 1.24353 6.9545 1.4545C6.74353 1.66548 6.625 1.95163 6.625 2.25V2.625H4.75C4.25272 2.625 3.77581 2.82254 3.42417 3.17417C3.07254 3.52581 2.875 4.00272 2.875 4.5V19.5C2.875 19.9973 3.07254 20.4742 3.42417 20.8258C3.77581 21.1775 4.25272 21.375 4.75 21.375H19.75C20.2473 21.375 20.7242 21.1775 21.0758 20.8258C21.4275 20.4742 21.625 19.9973 21.625 19.5V4.5C21.625 4.00272 21.4275 3.52581 21.0758 3.17417C20.7242 2.82254 20.2473 2.625 19.75 2.625ZM6.625 4.875C6.625 5.17337 6.74353 5.45952 6.9545 5.6705C7.16548 5.88147 7.45163 6 7.75 6C8.04837 6 8.33452 5.88147 8.5455 5.6705C8.75647 5.45952 8.875 5.17337 8.875 4.875H15.625C15.625 5.17337 15.7435 5.45952 15.9545 5.6705C16.1655 5.88147 16.4516 6 16.75 6C17.0484 6 17.3345 5.88147 17.5455 5.6705C17.7565 5.45952 17.875 5.17337 17.875 4.875H19.375V7.125H5.125V4.875H6.625ZM5.125 19.125V9.375H19.375V19.125H5.125ZM15.625 14.25C15.625 14.5484 15.5065 14.8345 15.2955 15.0455C15.0845 15.2565 14.7984 15.375 14.5 15.375H13.375V16.5C13.375 16.7984 13.2565 17.0845 13.0455 17.2955C12.8345 17.5065 12.5484 17.625 12.25 17.625C11.9516 17.625 11.6655 17.5065 11.4545 17.2955C11.2435 17.0845 11.125 16.7984 11.125 16.5V15.375H10C9.70163 15.375 9.41548 15.2565 9.2045 15.0455C8.99353 14.8345 8.875 14.5484 8.875 14.25C8.875 13.9516 8.99353 13.6655 9.2045 13.4545C9.41548 13.2435 9.70163 13.125 10 13.125H11.125V12C11.125 11.7016 11.2435 11.4155 11.4545 11.2045C11.6655 10.9935 11.9516 10.875 12.25 10.875C12.5484 10.875 12.8345 10.9935 13.0455 11.2045C13.2565 11.4155 13.375 11.7016 13.375 12V13.125H14.5C14.7984 13.125 15.0845 13.2435 15.2955 13.4545C15.5065 13.6655 15.625 13.9516 15.625 14.25Z" fill="#C2A7E1"/>
</svg>
