<svg width="12" height="13" viewBox="0 0 12 13" fill="none" xmlns="http://www.w3.org/2000/svg">
<g clip-path="url(#clip0_4479_63313)">
<path d="M8.5 1.67188H10.5C10.7761 1.67188 11 1.89574 11 2.17188V10.1719C11 10.448 10.7761 10.6719 10.5 10.6719H1.5C1.22386 10.6719 1 10.448 1 10.1719V2.17188C1 1.89574 1.22386 1.67188 1.5 1.67188H3.5V0.671875H4.5V1.67188H7.5V0.671875H8.5V1.67188ZM2 4.67188V9.67188H10V4.67188H2ZM3 5.67188H4V6.67188H3V5.67188ZM3 7.67188H4V8.67188H3V7.67188ZM5 5.67188H9V6.67188H5V5.67188ZM5 7.67188H7.5V8.67188H5V7.67188Z" fill="#A4A7AE"/>
</g>
<defs>
<clipPath id="clip0_4479_63313">
<rect width="12" height="12" fill="white" transform="translate(0 0.171875)"/>
</clipPath>
</defs>
</svg>
