<svg width="16" height="16" viewBox="0 0 16 16" fill="none" xmlns="http://www.w3.org/2000/svg">
<path d="M4.66732 0.666992V2.00033H2.00065C1.63246 2.00033 1.33398 2.29881 1.33398 2.66699V13.3337C1.33398 13.7019 1.63246 14.0003 2.00065 14.0003H7.17038C6.43846 13.0873 6.00065 11.9283 6.00065 10.667C6.00065 7.72146 8.38845 5.33366 11.334 5.33366C12.5953 5.33366 13.7543 5.77147 14.6673 6.50341V2.66699C14.6673 2.29881 14.3689 2.00033 14.0007 2.00033H11.334V0.666992H10.0007V2.00033H6.00065V0.666992H4.66732ZM15.334 10.667C15.334 12.8761 13.5431 14.667 11.334 14.667C9.12485 14.667 7.33398 12.8761 7.33398 10.667C7.33398 8.45786 9.12485 6.66699 11.334 6.66699C13.5431 6.66699 15.334 8.45786 15.334 10.667ZM10.6673 8.00033V10.9431L12.1959 12.4717L13.1387 11.5289L12.0007 10.3909V8.00033H10.6673Z" fill="#A4A7AE"/>
</svg>
