<svg width="20" height="20" viewBox="0 0 20 20" fill="none" xmlns="http://www.w3.org/2000/svg">
<path d="M4.9974 3.33333C4.9974 2.8731 5.3705 2.5 5.83073 2.5H17.4974C17.9576 2.5 18.3307 2.8731 18.3307 3.33333V13.3333C18.3307 13.7936 17.9576 14.1667 17.4974 14.1667H14.9974V16.6667C14.9974 17.1269 14.6243 17.5 14.1641 17.5H2.4974C2.03716 17.5 1.66406 17.1269 1.66406 16.6667V6.66667C1.66406 6.20643 2.03716 5.83333 2.4974 5.83333H4.9974V3.33333ZM6.66406 5.83333H14.1641C14.6243 5.83333 14.9974 6.20643 14.9974 6.66667V12.5H16.6641V4.16667H6.66406V5.83333ZM13.3307 13.1162V7.5H3.33073V15.5267L9.57331 9.70033L13.3307 13.1162ZM5.83073 11.25C6.52109 11.25 7.08073 10.6903 7.08073 10C7.08073 9.30967 6.52109 8.75 5.83073 8.75C5.14037 8.75 4.58073 9.30967 4.58073 10C4.58073 10.6903 5.14037 11.25 5.83073 11.25Z" fill="#A4A7AE"/>
</svg>
