<svg width="19" height="19" viewBox="0 0 19 19" fill="none" xmlns="http://www.w3.org/2000/svg">
<path d="M16.2625 6.77212L16.057 7.24352C15.9066 7.58863 15.4293 7.58863 15.2789 7.24352L15.0735 6.77212C14.7072 5.93159 14.0476 5.26237 13.2244 4.89627L12.5913 4.61472C12.2491 4.46247 12.2491 3.96437 12.5913 3.81213L13.189 3.54632C14.0333 3.17079 14.7048 2.47681 15.0647 1.60772L15.2757 1.09831C15.4228 0.743273 15.9131 0.743273 16.0601 1.09831L16.2711 1.60772C16.6311 2.47681 17.3026 3.17079 18.147 3.54632L18.7446 3.81213C19.0869 3.96437 19.0869 4.46247 18.7446 4.61472L18.1116 4.89627C17.2884 5.26237 16.6287 5.93159 16.2625 6.77212ZM15.668 9.16537C16.2259 9.16537 16.7625 9.07395 17.2636 8.90536C17.3105 9.2632 17.3346 9.62812 17.3346 9.9987C17.3346 14.601 13.6036 18.332 9.0013 18.332C7.58255 18.332 6.24664 17.9775 5.07728 17.3522L0.667969 18.332L1.64781 13.9227C1.0225 12.7534 0.667969 11.4174 0.667969 9.9987C0.667969 5.39632 4.39893 1.66537 9.0013 1.66537C9.75597 1.66537 10.4872 1.76569 11.1825 1.95372C10.8531 2.62051 10.668 3.37132 10.668 4.16537C10.668 6.92679 12.9066 9.16537 15.668 9.16537ZM4.83464 9.9987C4.83464 12.2999 6.70012 14.1654 9.0013 14.1654C11.3025 14.1654 13.168 12.2999 13.168 9.9987H11.5013C11.5013 11.3794 10.3821 12.4987 9.0013 12.4987C7.62055 12.4987 6.5013 11.3794 6.5013 9.9987H4.83464Z" fill="#F1A5E5"/>
</svg>
