<svg width="14" height="14" viewBox="0 0 14 14" fill="none" xmlns="http://www.w3.org/2000/svg">
<path d="M3.86143 12.8815L0.333984 13.6654L1.11786 10.1379C0.617611 9.20243 0.333984 8.1337 0.333984 6.9987C0.333984 3.3168 3.31875 0.332031 7.00065 0.332031C10.6825 0.332031 13.6673 3.3168 13.6673 6.9987C13.6673 10.6806 10.6825 13.6654 7.00065 13.6654C5.86565 13.6654 4.79692 13.3818 3.86143 12.8815ZM3.66732 6.9987C3.66732 8.83963 5.1597 10.332 7.00065 10.332C8.84158 10.332 10.334 8.83963 10.334 6.9987H9.00065C9.00065 8.1033 8.10525 8.9987 7.00065 8.9987C5.89605 8.9987 5.00065 8.1033 5.00065 6.9987H3.66732Z" fill="#F6C3EE"/>
</svg>
