<svg width="20" height="20" viewBox="0 0 20 20" fill="none" xmlns="http://www.w3.org/2000/svg">
<path d="M8.83594 11.742L6.75594 9.66203C6.67816 9.58425 6.5826 9.54259 6.46927 9.53703C6.35594 9.53148 6.25483 9.57314 6.16594 9.66203C6.07705 9.75092 6.0326 9.84925 6.0326 9.95703C6.0326 10.0648 6.07705 10.1631 6.16594 10.252L8.3651 12.4504C8.49955 12.5854 8.65649 12.6529 8.83594 12.6529C9.01538 12.6529 9.1726 12.5854 9.3076 12.4504L13.8709 7.88703C13.9487 7.8087 13.9904 7.71286 13.9959 7.59953C14.0015 7.4862 13.9598 7.38536 13.8709 7.29703C13.782 7.2087 13.684 7.16425 13.5768 7.1637C13.4695 7.16314 13.3709 7.20759 13.2809 7.29703L8.83594 11.742ZM4.6826 16.6654C4.29872 16.6654 3.97844 16.537 3.72177 16.2804C3.4651 16.0237 3.33649 15.7031 3.33594 15.3187V4.6787C3.33594 4.29481 3.46455 3.97453 3.72177 3.71786C3.97899 3.4612 4.29927 3.33259 4.6826 3.33203H15.3234C15.7068 3.33203 16.027 3.46064 16.2843 3.71786C16.5415 3.97509 16.6698 4.29536 16.6693 4.6787V15.3195C16.6693 15.7029 16.5409 16.0231 16.2843 16.2804C16.0276 16.5376 15.707 16.6659 15.3226 16.6654H4.6826Z" fill="#A77ED3"/>
</svg>
