<svg width="24" height="24" viewBox="0 0 24 24" fill="none" xmlns="http://www.w3.org/2000/svg">
<path d="M2.00391 9.5V4C2.00391 3.44772 2.45163 3 3.00391 3H21.0039C21.5562 3 22.0039 3.44772 22.0039 4V9.5C20.6232 9.5 19.5039 10.6193 19.5039 12C19.5039 13.3807 20.6232 14.5 22.0039 14.5V20C22.0039 20.5522 21.5562 21 21.0039 21H3.00391C2.45163 21 2.00391 20.5522 2.00391 20V14.5C3.38462 14.5 4.50391 13.3807 4.50391 12C4.50391 10.6193 3.38462 9.5 2.00391 9.5ZM9.00391 9V11H15.0039V9H9.00391ZM9.00391 13V15H15.0039V13H9.00391Z" fill="#A77ED3"/>
</svg>
