<svg width="16" height="16" viewBox="0 0 16 16" fill="none" xmlns="http://www.w3.org/2000/svg">
<path d="M8.00016 1.33301C11.682 1.33301 14.6668 4.31777 14.6668 7.99967C14.6668 11.6815 11.682 14.6663 8.00016 14.6663C4.31826 14.6663 1.3335 11.6815 1.3335 7.99967C1.3335 4.31777 4.31826 1.33301 8.00016 1.33301ZM8.00016 4.66634C7.6583 4.66634 7.3285 4.7178 7.0181 4.81297C7.5971 5.07417 8.00016 5.65652 8.00016 6.33301C8.00016 7.25347 7.25396 7.99967 6.3335 7.99967C5.65701 7.99967 5.07466 7.59661 4.81388 7.01754C4.71829 7.32801 4.66683 7.65781 4.66683 7.99967C4.66683 9.84061 6.15922 11.333 8.00016 11.333C9.8411 11.333 11.3335 9.84061 11.3335 7.99967C11.3335 6.15873 9.8411 4.66634 8.00016 4.66634Z" fill="#FDFDFF"/>
</svg>
