<svg width="13" height="12" viewBox="0 0 13 12" fill="none" xmlns="http://www.w3.org/2000/svg">
<path d="M10.5244 8.97894C10.6301 9.08462 10.6895 9.22794 10.6895 9.37738C10.6895 9.52682 10.6301 9.67015 10.5244 9.77582C10.4187 9.88149 10.2754 9.94086 10.126 9.94086C9.97653 9.94086 9.83321 9.88149 9.72754 9.77582L6.75144 6.79879L3.77441 9.77488C3.66874 9.88055 3.52542 9.93992 3.37598 9.93992C3.22653 9.93992 3.08321 9.88055 2.97754 9.77488C2.87187 9.66921 2.8125 9.52589 2.8125 9.37644C2.8125 9.227 2.87187 9.08368 2.97754 8.97801L5.95457 6.00191L2.97848 3.02488C2.8728 2.91921 2.81344 2.77589 2.81344 2.62644C2.81344 2.477 2.8728 2.33368 2.97848 2.22801C3.08415 2.12233 3.22747 2.06297 3.37691 2.06297C3.52636 2.06297 3.66968 2.12233 3.77535 2.22801L6.75144 5.20504L9.72848 2.22754C9.83415 2.12187 9.97747 2.0625 10.1269 2.0625C10.2764 2.0625 10.4197 2.12187 10.5254 2.22754C10.631 2.33321 10.6904 2.47653 10.6904 2.62598C10.6904 2.77542 10.631 2.91874 10.5254 3.02441L7.54832 6.00191L10.5244 8.97894Z" fill="#343330"/>
</svg>
