<svg width="23" height="17" viewBox="0 0 23 17" fill="none" xmlns="http://www.w3.org/2000/svg">
<path d="M22.5462 8.40281C22.4506 8.23473 22.3224 8.0874 22.1691 7.96941C22.0159 7.85142 21.8407 7.76515 21.6537 7.71563C20.9755 7.54111 20.2747 7.47093 19.5753 7.5075C19.9503 5.64656 19.6691 4.17469 19.3878 3.30188C19.2731 2.94339 19.0291 2.64041 18.7033 2.45187C18.3776 2.26334 17.9933 2.20275 17.6253 2.28188C16.6713 2.49434 15.7642 2.87942 14.9487 3.41812C14.3515 2.1981 13.482 1.13161 12.4072 0.300937C12.1467 0.105596 11.8299 0 11.5044 0C11.1788 0 10.862 0.105596 10.6016 0.300937C9.52508 1.13108 8.65389 2.19762 8.05531 3.41812C7.23982 2.87942 6.33272 2.49434 5.37874 2.28188C5.01086 2.20234 4.62653 2.26278 4.30081 2.45139C3.97509 2.63999 3.73135 2.94322 3.61718 3.30188C3.33593 4.17469 3.05468 5.64563 3.42406 7.5075C2.7247 7.47093 2.02384 7.54111 1.34562 7.71563C1.15867 7.76515 0.983461 7.85142 0.830222 7.96941C0.676984 8.0874 0.548788 8.23473 0.45312 8.40281C0.353125 8.57487 0.288365 8.7651 0.262613 8.96243C0.236861 9.15975 0.25063 9.36023 0.30312 9.55219C0.620933 10.7316 1.59687 12.9731 4.55281 14.7394C7.50875 16.5056 10.1056 16.5 11.5044 16.5C12.9031 16.5 15.5047 16.5 18.4419 14.7394C21.3978 12.9731 22.3737 10.7316 22.6916 9.55219C22.7447 9.36054 22.7593 9.16023 22.7343 8.9629C22.7094 8.76558 22.6455 8.57519 22.5462 8.40281ZM5.32156 13.4522C2.82499 11.9597 2.01406 10.1297 1.74968 9.15937C2.43944 8.98906 3.15535 8.95183 3.85906 9.04969C4.09399 9.67901 4.38092 10.2877 4.71687 10.8694C5.54174 12.2915 6.62239 13.5489 7.90437 14.5781C6.99786 14.3175 6.1295 13.9389 5.32156 13.4522ZM11.4997 14.85C10.625 14.1994 8.49968 12.2034 8.49968 8.17219C8.49968 4.19062 10.5978 2.17875 11.4997 1.5C12.4016 2.18063 14.4997 4.1925 14.4997 8.17406C14.4997 12.2034 12.3744 14.1994 11.4997 14.85ZM21.2497 9.16125C20.99 10.1213 20.1809 11.9559 17.6787 13.4522C16.8708 13.9386 16.0024 14.3169 15.0959 14.5772C16.3779 13.5479 17.4586 12.2906 18.2834 10.8684C18.6194 10.2867 18.9063 9.67807 19.1412 9.04875C19.8448 8.95181 20.5603 8.98967 21.2497 9.16031V9.16125Z" fill="url(#paint0_linear_4487_19842)"/>
<defs>
<linearGradient id="paint0_linear_4487_19842" x1="-1.60418" y1="-6.37332" x2="11.7922" y2="27.1219" gradientUnits="userSpaceOnUse">
<stop stop-color="#2E1988"/>
<stop offset="0.05" stop-color="#351C91"/>
<stop offset="0.14" stop-color="#4725AB"/>
<stop offset="0.25" stop-color="#6432D4"/>
<stop offset="0.26" stop-color="#6834D9"/>
<stop offset="0.51" stop-color="#8A2CF4"/>
<stop offset="0.79" stop-color="#5F09AF"/>
<stop offset="1" stop-color="#170023"/>
</linearGradient>
</defs>
</svg>
