<svg width="20" height="20" viewBox="0 0 20 20" fill="none" xmlns="http://www.w3.org/2000/svg">
<path d="M3.33073 6.66797H16.6641V17.5013C16.6641 17.9616 16.291 18.3346 15.8307 18.3346H4.16406C3.70383 18.3346 3.33073 17.9616 3.33073 17.5013V6.66797ZM4.9974 8.33464V16.668H14.9974V8.33464H4.9974ZM7.4974 10.0013H9.16406V15.0013H7.4974V10.0013ZM10.8307 10.0013H12.4974V15.0013H10.8307V10.0013ZM5.83073 4.16797V2.5013C5.83073 2.04107 6.20383 1.66797 6.66406 1.66797H13.3307C13.791 1.66797 14.1641 2.04107 14.1641 2.5013V4.16797H18.3307V5.83464H1.66406V4.16797H5.83073ZM7.4974 3.33464V4.16797H12.4974V3.33464H7.4974Z" fill="#A4A7AE"/>
</svg>
