<svg width="40" height="40" viewBox="0 0 40 40" fill="none" xmlns="http://www.w3.org/2000/svg">
<g filter="url(#filter0_d_4507_44927)">
<rect x="2" y="1" width="36" height="36" rx="18" fill="#7A271A"/>
<rect x="2.5" y="1.5" width="35" height="35" rx="17.5" stroke="#7A271A"/>
<path d="M26.875 12.75H23.75V12.125C23.75 11.6277 23.5525 11.1508 23.2008 10.7992C22.8492 10.4475 22.3723 10.25 21.875 10.25H18.125C17.6277 10.25 17.1508 10.4475 16.7992 10.7992C16.4475 11.1508 16.25 11.6277 16.25 12.125V12.75H13.125C12.9592 12.75 12.8003 12.8158 12.6831 12.9331C12.5658 13.0503 12.5 13.2092 12.5 13.375C12.5 13.5408 12.5658 13.6997 12.6831 13.8169C12.8003 13.9342 12.9592 14 13.125 14H13.75V25.25C13.75 25.5815 13.8817 25.8995 14.1161 26.1339C14.3505 26.3683 14.6685 26.5 15 26.5H25C25.3315 26.5 25.6495 26.3683 25.8839 26.1339C26.1183 25.8995 26.25 25.5815 26.25 25.25V14H26.875C27.0408 14 27.1997 13.9342 27.3169 13.8169C27.4342 13.6997 27.5 13.5408 27.5 13.375C27.5 13.2092 27.4342 13.0503 27.3169 12.9331C27.1997 12.8158 27.0408 12.75 26.875 12.75ZM18.75 22.125C18.75 22.2908 18.6842 22.4497 18.5669 22.5669C18.4497 22.6842 18.2908 22.75 18.125 22.75C17.9592 22.75 17.8003 22.6842 17.6831 22.5669C17.5658 22.4497 17.5 22.2908 17.5 22.125V17.125C17.5 16.9592 17.5658 16.8003 17.6831 16.6831C17.8003 16.5658 17.9592 16.5 18.125 16.5C18.2908 16.5 18.4497 16.5658 18.5669 16.6831C18.6842 16.8003 18.75 16.9592 18.75 17.125V22.125ZM22.5 22.125C22.5 22.2908 22.4342 22.4497 22.3169 22.5669C22.1997 22.6842 22.0408 22.75 21.875 22.75C21.7092 22.75 21.5503 22.6842 21.4331 22.5669C21.3158 22.4497 21.25 22.2908 21.25 22.125V17.125C21.25 16.9592 21.3158 16.8003 21.4331 16.6831C21.5503 16.5658 21.7092 16.5 21.875 16.5C22.0408 16.5 22.1997 16.5658 22.3169 16.6831C22.4342 16.8003 22.5 16.9592 22.5 17.125V22.125ZM22.5 12.75H17.5V12.125C17.5 11.9592 17.5658 11.8003 17.6831 11.6831C17.8003 11.5658 17.9592 11.5 18.125 11.5H21.875C22.0408 11.5 22.1997 11.5658 22.3169 11.6831C22.4342 11.8003 22.5 11.9592 22.5 12.125V12.75Z" fill="#FECDCA"/>
</g>
<defs>
<filter id="filter0_d_4507_44927" x="0" y="0" width="40" height="40" filterUnits="userSpaceOnUse" color-interpolation-filters="sRGB">
<feFlood flood-opacity="0" result="BackgroundImageFix"/>
<feColorMatrix in="SourceAlpha" type="matrix" values="0 0 0 0 0 0 0 0 0 0 0 0 0 0 0 0 0 0 127 0" result="hardAlpha"/>
<feOffset dy="1"/>
<feGaussianBlur stdDeviation="1"/>
<feColorMatrix type="matrix" values="0 0 0 0 0.0392157 0 0 0 0 0.0496732 0 0 0 0 0.0705882 0 0 0 0.05 0"/>
<feBlend mode="normal" in2="BackgroundImageFix" result="effect1_dropShadow_4507_44927"/>
<feBlend mode="normal" in="SourceGraphic" in2="effect1_dropShadow_4507_44927" result="shape"/>
</filter>
</defs>
</svg>
