<svg width="57" height="56" viewBox="0 0 57 56" fill="none" xmlns="http://www.w3.org/2000/svg">
<rect x="4.5" y="4" width="48" height="48" rx="24" fill="#B42318"/>
<rect x="4.5" y="4" width="48" height="48" rx="24" stroke="#7A271A" stroke-width="8"/>
<path d="M36.75 20.5H33.375V19.375C33.375 18.6788 33.0984 18.0111 32.6062 17.5188C32.1139 17.0266 31.4462 16.75 30.75 16.75H26.25C25.5538 16.75 24.8861 17.0266 24.3938 17.5188C23.9016 18.0111 23.625 18.6788 23.625 19.375V20.5H20.25C19.9516 20.5 19.6655 20.6185 19.4545 20.8295C19.2435 21.0405 19.125 21.3266 19.125 21.625C19.125 21.9234 19.2435 22.2095 19.4545 22.4205C19.6655 22.6315 19.9516 22.75 20.25 22.75H20.625V35.5C20.625 35.9973 20.8225 36.4742 21.1742 36.8258C21.5258 37.1775 22.0027 37.375 22.5 37.375H34.5C34.9973 37.375 35.4742 37.1775 35.8258 36.8258C36.1775 36.4742 36.375 35.9973 36.375 35.5V22.75H36.75C37.0484 22.75 37.3345 22.6315 37.5455 22.4205C37.7565 22.2095 37.875 21.9234 37.875 21.625C37.875 21.3266 37.7565 21.0405 37.5455 20.8295C37.3345 20.6185 37.0484 20.5 36.75 20.5ZM25.875 19.375C25.875 19.2755 25.9145 19.1802 25.9848 19.1098C26.0552 19.0395 26.1505 19 26.25 19H30.75C30.8495 19 30.9448 19.0395 31.0152 19.1098C31.0855 19.1802 31.125 19.2755 31.125 19.375V20.5H25.875V19.375ZM34.125 35.125H22.875V22.75H34.125V35.125ZM27.375 25.75V31.75C27.375 32.0484 27.2565 32.3345 27.0455 32.5455C26.8345 32.7565 26.5484 32.875 26.25 32.875C25.9516 32.875 25.6655 32.7565 25.4545 32.5455C25.2435 32.3345 25.125 32.0484 25.125 31.75V25.75C25.125 25.4516 25.2435 25.1655 25.4545 24.9545C25.6655 24.7435 25.9516 24.625 26.25 24.625C26.5484 24.625 26.8345 24.7435 27.0455 24.9545C27.2565 25.1655 27.375 25.4516 27.375 25.75ZM31.875 25.75V31.75C31.875 32.0484 31.7565 32.3345 31.5455 32.5455C31.3345 32.7565 31.0484 32.875 30.75 32.875C30.4516 32.875 30.1655 32.7565 29.9545 32.5455C29.7435 32.3345 29.625 32.0484 29.625 31.75V25.75C29.625 25.4516 29.7435 25.1655 29.9545 24.9545C30.1655 24.7435 30.4516 24.625 30.75 24.625C31.0484 24.625 31.3345 24.7435 31.5455 24.9545C31.7565 25.1655 31.875 25.4516 31.875 25.75Z" fill="#FECDCA"/>
</svg>
