<svg width="16" height="16" viewBox="0 0 16 16" fill="none" xmlns="http://www.w3.org/2000/svg">
<path d="M8.66732 6.11348C8.45878 6.03977 8.23438 5.99967 8.00065 5.99967C6.89605 5.99967 6.00065 6.89507 6.00065 7.99967C6.00065 9.10427 6.89605 9.99967 8.00065 9.99967C9.10525 9.99967 10.0007 9.10427 10.0007 7.99967V1.63821C12.7054 2.48772 14.6673 5.01458 14.6673 7.99967C14.6673 11.6815 11.6825 14.6663 8.00065 14.6663C4.31875 14.6663 1.33398 11.6815 1.33398 7.99967C1.33398 4.31777 4.31875 1.33301 8.00065 1.33301C8.22565 1.33301 8.44805 1.34415 8.66732 1.36593V6.11348Z" fill="#A4A7AE"/>
</svg>
