<svg width="12" height="12" viewBox="0 0 12 12" fill="none" xmlns="http://www.w3.org/2000/svg">
<g clip-path="url(#clip0_1_59217)">
<path d="M5.9974 0.667969C4.94256 0.667969 3.91142 0.980763 3.03436 1.5668C2.15729 2.15283 1.47371 2.98578 1.07004 3.96032C0.666373 4.93486 0.560756 6.00722 0.766543 7.04178C0.972331 8.07635 1.48028 9.02666 2.22616 9.77254C2.97204 10.5184 3.92235 11.0264 4.95692 11.2322C5.99148 11.4379 7.06384 11.3323 8.03838 10.9287C9.01292 10.525 9.84587 9.8414 10.4319 8.96434C11.0179 8.08728 11.3307 7.05614 11.3307 6.0013C11.3307 4.58681 10.7688 3.23026 9.76863 2.23007C8.76844 1.22987 7.41189 0.667969 5.9974 0.667969ZM8.5474 7.86463C8.21406 8.86463 7.34406 9.14464 6.58073 9.19797V9.86463C6.58073 9.97514 6.53683 10.0811 6.45869 10.1593C6.38055 10.2374 6.27457 10.2813 6.16406 10.2813C6.05356 10.2813 5.94758 10.2374 5.86944 10.1593C5.7913 10.0811 5.7474 9.97514 5.7474 9.86463V9.19797C4.98195 9.1262 4.25591 8.82533 3.66406 8.33463C3.62401 8.29721 3.59172 8.25226 3.56904 8.20235C3.54636 8.15245 3.53373 8.09856 3.53187 8.04378C3.53001 7.98899 3.53897 7.93437 3.55822 7.88305C3.57747 7.83172 3.60664 7.78469 3.64406 7.74463C3.68149 7.70458 3.72644 7.67229 3.77635 7.64961C3.82625 7.62693 3.88014 7.6143 3.93492 7.61244C3.98971 7.61059 4.04433 7.61954 4.09565 7.63879C4.14698 7.65804 4.19401 7.68721 4.23406 7.72464C4.67022 8.07609 5.19517 8.29991 5.75073 8.3713V6.27797C5.30796 6.21005 4.88438 6.04993 4.5074 5.80797C4.19039 5.60915 3.95309 5.30551 3.83677 4.94985C3.72045 4.5942 3.73247 4.20902 3.87073 3.8613C4.0674 3.35797 4.6774 2.78464 5.75073 2.6913V2.08464C5.75073 1.97413 5.79463 1.86815 5.87277 1.79001C5.95091 1.71187 6.05689 1.66797 6.1674 1.66797C6.2779 1.66797 6.38389 1.71187 6.46203 1.79001C6.54017 1.86815 6.58406 1.97413 6.58406 2.08464V2.70464C7.17991 2.77065 7.74554 3.00152 8.2174 3.3713C8.2828 3.44825 8.31803 3.54633 8.31653 3.6473C8.31504 3.74827 8.27693 3.84527 8.20928 3.92025C8.14164 3.99523 8.04907 4.04309 7.94878 4.05493C7.84849 4.06678 7.74731 4.0418 7.66406 3.98464C7.3458 3.75186 6.97468 3.60181 6.58406 3.54797V5.5913C6.78406 5.63464 6.9974 5.6813 7.22073 5.7513C7.47906 5.81572 7.72147 5.93235 7.93301 6.09401C8.14455 6.25568 8.32074 6.45895 8.45073 6.6913C8.63637 7.05438 8.67111 7.47607 8.5474 7.86463Z" fill="#A4A7AE"/>
<path d="M6.97594 6.54531C6.8426 6.50531 6.7126 6.47198 6.58594 6.44531V8.36531C7.2526 8.29865 7.60927 8.06531 7.7626 7.59865C7.81372 7.42314 7.79583 7.23473 7.7126 7.07198C7.63111 6.93952 7.52396 6.8247 7.39746 6.73425C7.27095 6.64381 7.12763 6.57957 6.97594 6.54531Z" fill="#A4A7AE"/>
<path d="M4.64944 4.15896C4.57989 4.33176 4.57533 4.52392 4.63662 4.69983C4.69792 4.87574 4.8209 5.02346 4.98278 5.11563C5.21833 5.26684 5.48094 5.37098 5.75611 5.42229V3.51562C5.05611 3.59896 4.73278 3.94562 4.64944 4.15896Z" fill="#A4A7AE"/>
</g>
<defs>
<clipPath id="clip0_1_59217">
<rect width="12" height="12" fill="white"/>
</clipPath>
</defs>
</svg>
