<svg width="36" height="36" viewBox="0 0 36 36" fill="none" xmlns="http://www.w3.org/2000/svg">
<g filter="url(#filter0_d_4605_40322)">
<path d="M16.3631 14.415C14.9874 15.9661 13.4278 18.2035 12.0789 20.9014C11.8731 21.3131 11.3725 21.4799 10.9608 21.2741C10.5492 21.0682 10.3823 20.5677 10.5882 20.1561C11.9978 17.3368 13.6375 14.9764 15.1162 13.3091C15.8543 12.477 16.5664 11.8013 17.2041 11.3261C17.5227 11.0886 17.8374 10.89 18.1398 10.748C18.4328 10.6103 18.7675 10.5 19.1113 10.5C19.2913 10.5 19.4893 10.5446 19.6725 10.6623C19.8528 10.7781 19.9691 10.9327 20.0413 11.0757C20.1722 11.3351 20.1867 11.6123 20.1834 11.7995C20.1765 12.1971 20.0706 12.694 19.9347 13.1998C19.6562 14.236 19.1662 15.6092 18.6791 16.9647L18.6108 17.1548C18.1393 18.4665 17.6751 19.7577 17.3733 20.7888C17.2921 21.0667 17.2255 21.316 17.1745 21.5345C17.7529 21.0696 18.4651 20.3712 19.2217 19.6278L19.2463 19.6036C19.981 18.8818 20.7582 18.1182 21.4139 17.5939C21.7393 17.3338 22.0902 17.0867 22.4282 16.9435C22.712 16.8232 23.3619 16.6277 23.8673 17.133C24.1876 17.4533 24.2765 17.8698 24.2995 18.1803C24.3236 18.5053 24.2858 18.8556 24.2271 19.1884C24.1096 19.8548 23.8736 20.6325 23.6578 21.3341L23.6232 21.4467C23.4304 22.0728 23.2585 22.6314 23.1605 23.0804C23.3774 22.8627 23.6445 22.518 23.9563 22.0092C24.1967 21.6167 24.7098 21.4934 25.1022 21.7338C25.4946 21.9742 25.6178 22.4873 25.3774 22.8797C24.9249 23.6185 24.4567 24.2185 23.9599 24.591C23.4403 24.9808 22.7601 25.2006 22.0719 24.8565C21.5649 24.6029 21.4498 24.0977 21.4243 23.8182C21.3966 23.516 21.4403 23.1861 21.4983 22.8889C21.6073 22.3287 21.8191 21.6415 22.0192 20.9922L22.0648 20.8441C22.2873 20.1209 22.4894 19.445 22.5857 18.8991C22.5931 18.857 22.5997 18.8168 22.6055 18.7784C22.5581 18.8142 22.5078 18.8532 22.4546 18.8957C21.8731 19.3607 21.1542 20.0657 20.3898 20.8167L20.3651 20.8409C19.6305 21.5627 18.8533 22.3263 18.1976 22.8505C17.8722 23.1107 17.5213 23.3577 17.1833 23.501C16.8995 23.6213 16.2496 23.8167 15.7443 23.3115C15.4869 23.0542 15.421 22.7294 15.3998 22.5318C15.3763 22.3129 15.3908 22.0809 15.4189 21.8626C15.4755 21.4224 15.6078 20.888 15.7738 20.3207C16.0902 19.2393 16.5702 17.9043 17.0343 16.6135L17.1106 16.4012C17.6053 15.0244 18.0683 13.7228 18.3251 12.7673C18.3477 12.6831 18.3682 12.6036 18.3865 12.5289C18.327 12.5697 18.2648 12.6141 18.2001 12.6624C17.6811 13.0492 17.0523 13.638 16.3631 14.415Z" fill="#FCFAFF"/>
</g>
<defs>
<filter id="filter0_d_4605_40322" x="-2" y="-1" width="40" height="40" filterUnits="userSpaceOnUse" color-interpolation-filters="sRGB">
<feFlood flood-opacity="0" result="BackgroundImageFix"/>
<feColorMatrix in="SourceAlpha" type="matrix" values="0 0 0 0 0 0 0 0 0 0 0 0 0 0 0 0 0 0 127 0" result="hardAlpha"/>
<feOffset dy="1"/>
<feGaussianBlur stdDeviation="1"/>
<feColorMatrix type="matrix" values="0 0 0 0 0.0392157 0 0 0 0 0.0496732 0 0 0 0 0.0705882 0 0 0 0.05 0"/>
<feBlend mode="normal" in2="BackgroundImageFix" result="effect1_dropShadow_4605_40322"/>
<feBlend mode="normal" in="SourceGraphic" in2="effect1_dropShadow_4605_40322" result="shape"/>
</filter>
</defs>
</svg>
