<svg width="523" height="528" viewBox="0 0 523 528" fill="none" xmlns="http://www.w3.org/2000/svg">
<path d="M507.06 283.403C488.582 244.597 457.4 215.198 419.289 198.735C452.781 148.169 447.006 79.9644 403.121 36.4543C378.868 12.9354 347.686 0 315.35 0H314.195C280.703 0 249.521 14.1114 225.269 37.6303L35.8683 235.189C12.7707 259.884 -1.08792 291.635 0.06696 325.737C0.06696 359.84 13.9255 391.59 37.0232 416.285C61.2757 440.98 93.6124 452.739 124.794 452.739C152.511 452.739 179.074 443.332 202.171 425.693C203.326 426.869 203.326 429.221 204.481 430.396C232.198 490.37 291.097 528 355.771 528C381.178 528 404.276 522.12 427.373 511.537C510.525 470.379 546.326 369.247 507.06 283.403ZM450.471 283.403L239.127 384.535C233.353 362.192 234.508 337.497 242.592 315.154C252.986 284.579 274.929 259.884 303.801 245.773C319.969 237.541 337.292 234.013 354.616 234.013C392.727 235.189 428.528 254.004 450.471 283.403ZM259.915 71.7327C274.929 56.4454 293.407 48.2138 314.195 48.2138C334.983 48.2138 354.616 56.4454 369.629 70.5568C399.656 101.131 400.811 150.521 370.784 182.272L367.319 185.8C363.855 185.8 359.235 185.8 355.771 185.8C330.363 185.8 307.265 191.679 284.168 202.263C272.619 208.143 261.07 215.198 251.831 223.43L182.538 154.049L259.915 71.7327ZM180.228 379.831C150.202 410.405 101.697 411.581 70.5147 381.007C55.5013 365.719 47.4171 346.904 47.4171 325.737C47.4171 304.57 55.5013 284.579 69.3599 269.292L147.892 188.151L218.34 258.708C210.255 270.468 203.326 284.579 197.552 298.69C189.468 322.209 186.003 345.728 188.313 370.423L180.228 379.831ZM406.585 466.851C390.417 475.082 373.094 478.61 355.771 478.61C317.659 478.61 283.013 459.795 259.915 430.396L471.259 329.265C483.962 383.359 458.555 440.98 406.585 466.851Z" fill="white"/>
</svg>
