<svg width="36" height="36" viewBox="0 0 36 36" fill="none" xmlns="http://www.w3.org/2000/svg">
<g filter="url(#filter0_d_4605_40321)">
<path d="M26.2523 16.8326C25.8705 16.7791 25.4803 16.7513 25.0837 16.7513C22.3673 16.7513 19.9549 18.0516 18.4347 20.0605C18.2921 20.0752 18.1472 20.0828 18.0003 20.0828C16.9327 20.0828 15.9605 19.6823 15.2228 19.022L14.1112 20.2639C15.0159 21.0736 16.1765 21.6057 17.4558 21.7243C17.0022 22.7526 16.7503 23.8898 16.7503 25.0846C16.7503 25.4813 16.7781 25.8715 16.8317 26.2533C12.7826 25.6851 9.66699 22.2071 9.66699 18.0013C9.66699 13.3989 13.398 9.66797 18.0003 9.66797C22.2061 9.66797 25.6841 12.7836 26.2523 16.8326ZM26.2259 18.5155C25.8548 18.4514 25.4732 18.418 25.0837 18.418C22.805 18.418 20.793 19.5604 19.5893 21.3076C18.8498 22.381 18.417 23.681 18.417 25.0846C18.417 25.4741 18.4504 25.8558 18.5145 26.2269L26.2259 18.5155ZM15.0837 17.5846C15.774 17.5846 16.3337 17.025 16.3337 16.3346C16.3337 15.6443 15.774 15.0846 15.0837 15.0846C14.3933 15.0846 13.8337 15.6443 13.8337 16.3346C13.8337 17.025 14.3933 17.5846 15.0837 17.5846ZM20.917 17.5846C21.6073 17.5846 22.167 17.025 22.167 16.3346C22.167 15.6443 21.6073 15.0846 20.917 15.0846C20.2267 15.0846 19.667 15.6443 19.667 16.3346C19.667 17.025 20.2267 17.5846 20.917 17.5846Z" fill="#FCFAFF"/>
</g>
<defs>
<filter id="filter0_d_4605_40321" x="-2" y="-1" width="40" height="40" filterUnits="userSpaceOnUse" color-interpolation-filters="sRGB">
<feFlood flood-opacity="0" result="BackgroundImageFix"/>
<feColorMatrix in="SourceAlpha" type="matrix" values="0 0 0 0 0 0 0 0 0 0 0 0 0 0 0 0 0 0 127 0" result="hardAlpha"/>
<feOffset dy="1"/>
<feGaussianBlur stdDeviation="1"/>
<feColorMatrix type="matrix" values="0 0 0 0 0.0392157 0 0 0 0 0.0496732 0 0 0 0 0.0705882 0 0 0 0.05 0"/>
<feBlend mode="normal" in2="BackgroundImageFix" result="effect1_dropShadow_4605_40321"/>
<feBlend mode="normal" in="SourceGraphic" in2="effect1_dropShadow_4605_40321" result="shape"/>
</filter>
</defs>
</svg>
