<svg width="83" height="82" viewBox="0 0 83 82" fill="none" xmlns="http://www.w3.org/2000/svg">
<rect x="1" y="0.5" width="81" height="81" rx="40.5" fill="#265866"/>
<rect x="1" y="0.5" width="81" height="81" rx="40.5" stroke="#4095AD"/>
<path d="M39.8327 50.8955C33.2555 50.0754 28.166 44.4647 28.166 37.6654C28.166 30.3016 34.1355 24.332 41.4993 24.332C48.8632 24.332 54.8327 30.3016 54.8327 37.6654C54.8327 44.4647 49.7432 50.0754 43.166 50.8955V54.3514C49.7432 54.5052 54.8327 55.5572 54.8327 56.832C54.8327 58.2127 48.8632 59.332 41.4993 59.332C34.1355 59.332 28.166 58.2127 28.166 56.832C28.166 55.5572 33.2555 54.5052 39.8327 54.3514V50.8955ZM41.4993 40.9987C43.3403 40.9987 44.8327 39.5064 44.8327 37.6654C44.8327 35.8244 43.3403 34.332 41.4993 34.332C39.6583 34.332 38.166 35.8244 38.166 37.6654C38.166 39.5064 39.6583 40.9987 41.4993 40.9987Z" fill="#5AD2F4"/>
</svg>
