<svg width="75" height="75" viewBox="0 0 75 75" fill="none" xmlns="http://www.w3.org/2000/svg">
<circle cx="37.5" cy="37.5" r="37.5" fill="#816B9A"/>
<circle cx="37.5" cy="37.5" r="29.5" fill="#C6B1DE"/>
<path d="M24.5556 52C23.5778 52 22.741 51.7065 22.0453 51.1195C21.3496 50.5325 21.0012 49.826 21 49V28C21 27.175 21.3484 26.469 22.0453 25.882C22.7422 25.295 23.579 25.001 24.5556 25H49.4444C50.4222 25 51.2596 25.294 51.9564 25.882C52.6533 26.47 53.0012 27.176 53 28V49C53 49.825 52.6521 50.5315 51.9564 51.1195C51.2607 51.7075 50.4234 52.001 49.4444 52H24.5556ZM26.3333 46H47.6667L41 38.5L35.6667 44.5L31.6667 40L26.3333 46Z" fill="#572D86"/>
</svg>
