<svg width="25" height="24" viewBox="0 0 25 24" fill="none" xmlns="http://www.w3.org/2000/svg">
<path d="M7.5 1V3H3.5C2.94772 3 2.5 3.44772 2.5 4V20C2.5 20.5523 2.94772 21 3.5 21H11.2546C10.1567 19.6304 9.5 17.8919 9.5 16C9.5 11.5817 13.0817 8 17.5 8C19.3919 8 21.1304 8.65672 22.5 9.75463V4C22.5 3.44772 22.0523 3 21.5 3H17.5V1H15.5V3H9.5V1H7.5ZM23.5 16C23.5 19.3137 20.8137 22 17.5 22C14.1863 22 11.5 19.3137 11.5 16C11.5 12.6863 14.1863 10 17.5 10C20.8137 10 23.5 12.6863 23.5 16ZM16.5 12V16.4142L18.7929 18.7071L20.2071 17.2929L18.5 15.5858V12H16.5Z" fill="#F2ECF8"/>
</svg>
