<svg width="20" height="20" viewBox="0 0 20 20" fill="none" xmlns="http://www.w3.org/2000/svg">
<path d="M3.33854 6.66797H16.6719V17.5013C16.6719 17.9616 16.2988 18.3346 15.8385 18.3346H4.17188C3.71164 18.3346 3.33854 17.9616 3.33854 17.5013V6.66797ZM5.00521 8.33464V16.668H15.0052V8.33464H5.00521ZM7.50521 10.0013H9.17188V15.0013H7.50521V10.0013ZM10.8385 10.0013H12.5052V15.0013H10.8385V10.0013ZM5.83854 4.16797V2.5013C5.83854 2.04107 6.21164 1.66797 6.67188 1.66797H13.3385C13.7988 1.66797 14.1719 2.04107 14.1719 2.5013V4.16797H18.3385V5.83464H1.67188V4.16797H5.83854ZM7.50521 3.33464V4.16797H12.5052V3.33464H7.50521Z" fill="#FDA29B"/>
</svg>
