<svg width="16" height="20" viewBox="0 0 16 20" fill="none" xmlns="http://www.w3.org/2000/svg">
<path d="M3.55796 6.36435C3.46889 7.31435 3.40639 8.9956 3.96733 9.71123C3.96733 9.71123 3.70327 7.86435 6.07046 5.54716C7.02358 4.61435 7.24389 3.3456 6.91108 2.39404C6.72202 1.85498 6.37671 1.40966 6.07671 1.09873C5.90171 0.915914 6.03608 0.614352 6.29077 0.625289C7.83139 0.694039 10.3283 1.12216 11.3892 3.78466C11.8548 4.95341 11.8892 6.16123 11.6673 7.38935C11.5267 8.17373 11.0267 9.91748 12.1673 10.1315C12.9814 10.2847 13.3751 9.63779 13.5517 9.17216C13.6251 8.97841 13.8798 8.92998 14.0173 9.08466C15.3923 10.6487 15.5095 12.4909 15.2251 14.0768C14.6751 17.1425 11.5705 19.3737 8.48608 19.3737C4.63296 19.3737 1.56577 17.169 0.770456 13.1784C0.450143 11.5675 0.612643 8.37998 3.09702 6.12998C3.28139 5.96123 3.58296 6.11123 3.55796 6.36435Z" fill="url(#paint0_radial_4487_18489)"/>
<defs>
<radialGradient id="paint0_radial_4487_18489" cx="0" cy="0" r="1" gradientUnits="userSpaceOnUse" gradientTransform="translate(7.72292 19.4223) rotate(-179.751) scale(11.0293 18.0969)">
<stop offset="0.314" stop-color="#FF9800"/>
<stop offset="0.662" stop-color="#FF6D00"/>
<stop offset="0.972" stop-color="#F44336"/>
</radialGradient>
</defs>
</svg>
