<svg width="12" height="12" viewBox="0 0 12 12" fill="none" xmlns="http://www.w3.org/2000/svg">
<rect width="12" height="12" rx="6" fill="#0D001D"/>
<path d="M4.2224 4.54574C4.18678 4.92574 4.16178 5.59824 4.38615 5.88449C4.38615 5.88449 4.28053 5.14574 5.2274 4.21887C5.60865 3.84574 5.69678 3.33824 5.56365 2.95762C5.48803 2.74199 5.3499 2.56387 5.2299 2.43949C5.1599 2.36637 5.21365 2.24574 5.31553 2.25012C5.93178 2.27762 6.93053 2.44887 7.3549 3.51387C7.54115 3.98137 7.5549 4.46449 7.46615 4.95574C7.4099 5.26949 7.2099 5.96699 7.66615 6.05262C7.99178 6.11387 8.14928 5.85512 8.2199 5.66887C8.24928 5.59137 8.35115 5.57199 8.40615 5.63387C8.95615 6.25949 9.00303 6.99637 8.88928 7.63074C8.66928 8.85699 7.4274 9.74949 6.19365 9.74949C4.6524 9.74949 3.42553 8.86762 3.1074 7.27137C2.97928 6.62699 3.04428 5.35199 4.03803 4.45199C4.11178 4.38449 4.2324 4.44449 4.2224 4.54574Z" fill="url(#paint0_radial_4507_51697)"/>
<path d="M6.75692 6.83979C6.18879 6.10854 6.44317 5.27417 6.58254 4.94167C6.60129 4.89792 6.55129 4.85667 6.51192 4.88354C6.26754 5.04979 5.76692 5.44104 5.53379 5.99167C5.21817 6.73604 5.24067 7.10042 5.42754 7.54542C5.54004 7.81354 5.40942 7.87042 5.34379 7.88042C5.28004 7.89042 5.22129 7.84792 5.17442 7.80354C5.03959 7.67406 4.9435 7.50958 4.89692 7.32854C4.88692 7.28979 4.83629 7.27917 4.81317 7.31104C4.63817 7.55292 4.54754 7.94104 4.54317 8.21542C4.52942 9.06354 5.23004 9.75104 6.07754 9.75104C7.14567 9.75104 7.92379 8.56979 7.31004 7.58229C7.13192 7.2948 6.96442 7.10667 6.75692 6.83979Z" fill="url(#paint1_radial_4507_51697)"/>
<defs>
<radialGradient id="paint0_radial_4507_51697" cx="0" cy="0" r="1" gradientUnits="userSpaceOnUse" gradientTransform="translate(5.88839 9.76892) rotate(-179.751) scale(4.41173 7.23876)">
<stop offset="0.314" stop-color="#FF9800"/>
<stop offset="0.662" stop-color="#FF6D00"/>
<stop offset="0.972" stop-color="#F44336"/>
</radialGradient>
<radialGradient id="paint1_radial_4507_51697" cx="0" cy="0" r="1" gradientUnits="userSpaceOnUse" gradientTransform="translate(6.13629 5.37969) rotate(90.5787) scale(4.61602 3.47391)">
<stop offset="0.214" stop-color="#FFF176"/>
<stop offset="0.328" stop-color="#FFF27D"/>
<stop offset="0.487" stop-color="#FFF48F"/>
<stop offset="0.672" stop-color="#FFF7AD"/>
<stop offset="0.793" stop-color="#FFF9C4"/>
<stop offset="0.822" stop-color="#FFF8BD" stop-opacity="0.804"/>
<stop offset="0.863" stop-color="#FFF6AB" stop-opacity="0.529"/>
<stop offset="0.91" stop-color="#FFF38D" stop-opacity="0.209"/>
<stop offset="0.941" stop-color="#FFF176" stop-opacity="0"/>
</radialGradient>
</defs>
</svg>
