<svg width="124" height="124" viewBox="0 0 124 124" fill="none" xmlns="http://www.w3.org/2000/svg">
<g clip-path="url(#clip0_5029_878)">
<path d="M92.0518 55.0666C90.9729 53.2606 89.0728 52.1823 86.969 52.1823H65.9824L72.0977 4.48385C72.345 2.55458 71.2243 0.791981 69.3725 0.197258C67.5206 -0.396657 65.5835 0.383362 64.6613 2.09579L31.8183 63.0907C30.8209 64.9431 30.8695 67.1273 31.9483 68.9333C33.0272 70.7393 34.9273 71.8176 37.0311 71.8176H58.0177L51.9024 119.516C51.6551 121.445 52.7758 123.208 54.6276 123.803C55.043 123.936 55.4627 124 55.8743 124C57.2973 124 58.6235 123.232 59.3388 121.904L92.1821 60.9092C93.1792 59.0571 93.1304 56.8729 92.0518 55.0666ZM88.6197 58.9913L55.9665 119.629L62.3226 70.0521C62.3965 69.4754 62.2188 68.895 61.8347 68.4586C61.4506 68.0222 60.8975 67.7722 60.3162 67.7722H37.0308C36.0707 67.7722 35.5854 67.1335 35.4214 66.8589C35.2575 66.5843 34.9252 65.8542 35.3802 65.0089L68.0336 4.37003L61.6775 53.9479C61.6036 54.5245 61.7813 55.1049 62.1654 55.5413C62.5495 55.9777 63.1027 56.2278 63.6839 56.2278H86.9693C87.9295 56.2278 88.4147 56.8665 88.5787 57.141C88.7424 57.4159 89.0747 58.146 88.6197 58.9913Z" fill="white"/>
</g>
<defs>
<clipPath id="clip0_5029_878">
<rect width="124" height="124" fill="white"/>
</clipPath>
</defs>
</svg>
