<svg width="20" height="20" viewBox="0 0 20 20" fill="none" xmlns="http://www.w3.org/2000/svg">
<path d="M6.07337 17.3548L1.66406 18.3346L2.6439 13.9253C2.0186 12.756 1.66406 11.4201 1.66406 10.0013C1.66406 5.39893 5.39502 1.66797 9.9974 1.66797C14.5997 1.66797 18.3307 5.39893 18.3307 10.0013C18.3307 14.6036 14.5997 18.3346 9.9974 18.3346C8.57865 18.3346 7.24273 17.9801 6.07337 17.3548ZM5.83073 10.0013C5.83073 12.3025 7.69621 14.168 9.9974 14.168C12.2986 14.168 14.1641 12.3025 14.1641 10.0013H12.4974C12.4974 11.3821 11.3781 12.5013 9.9974 12.5013C8.61665 12.5013 7.4974 11.3821 7.4974 10.0013H5.83073Z" fill="#A4A7AE"/>
</svg>
