<svg width="14" height="13" viewBox="0 0 14 13" fill="none" xmlns="http://www.w3.org/2000/svg">
<path d="M7.00327 1.01902C8.56927 -0.386666 10.9893 -0.34 12.4977 1.17157C14.0061 2.68315 14.0579 5.09133 12.655 6.662L7.00254 12.3233L1.35019 6.662C-0.052697 5.09133 -0.000257015 2.67934 1.50751 1.17157C3.01698 -0.3379 5.43273 -0.388753 7.00327 1.01902ZM11.5539 2.1134C10.5545 1.11196 8.941 1.07134 7.89394 2.01125L7.00387 2.81016L6.11334 2.01187C5.06326 1.07065 3.45264 1.11205 2.45032 2.11438C1.45716 3.10754 1.4073 4.6982 2.32256 5.7488L7.00254 10.4362L11.6827 5.7488C12.5983 4.6978 12.5486 3.11017 11.5539 2.1134Z" fill="#A4A7AE"/>
</svg>
