<svg width="19" height="19" viewBox="0 0 19 19" fill="none" xmlns="http://www.w3.org/2000/svg">
<path d="M18.5 18.0009C18.5 18.5532 18.0523 19.0009 17.5 19.0009H1.5C0.94772 19.0009 0.5 18.5532 0.5 18.0009V7.31477C0.5 7.00859 0.64027 6.71929 0.88065 6.52965L8.8807 0.218789C9.2438 -0.0677212 9.7562 -0.0677212 10.1193 0.218789L18.1193 6.52965C18.3597 6.71929 18.5 7.00859 18.5 7.31477V18.0009ZM4.5 10.0009C4.5 12.7623 6.73858 15.0009 9.5 15.0009C12.2614 15.0009 14.5 12.7623 14.5 10.0009H12.5C12.5 11.6578 11.1569 13.0009 9.5 13.0009C7.8431 13.0009 6.5 11.6578 6.5 10.0009H4.5Z" fill="url(#paint0_linear_4479_73629)"/>
<defs>
<linearGradient id="paint0_linear_4479_73629" x1="-0.983598" y1="-7.33389" x2="18.355" y2="26.2696" gradientUnits="userSpaceOnUse">
<stop stop-color="#2E1988"/>
<stop offset="0.05" stop-color="#351C91"/>
<stop offset="0.14" stop-color="#4725AB"/>
<stop offset="0.25" stop-color="#6432D4"/>
<stop offset="0.26" stop-color="#6834D9"/>
<stop offset="0.51" stop-color="#8A2CF4"/>
<stop offset="0.79" stop-color="#5F09AF"/>
<stop offset="1" stop-color="#170023"/>
</linearGradient>
</defs>
</svg>
