<svg width="12" height="12" viewBox="0 0 12 12" fill="none" xmlns="http://www.w3.org/2000/svg">
<path d="M6 0.000759376C2.7 0.000759376 0 2.68559 0 6.00038C0 7.59028 0.99 8.9027 2.256 9.00019H2.4C3.03652 9.00019 3.64697 8.68414 4.09706 8.12157C4.54714 7.55899 4.8 6.79598 4.8 6.00038C4.8 5.20478 4.54714 4.44177 4.09706 3.87919C3.64697 3.31662 3.03652 3.00057 2.4 3.00057H2.256C3.26632 1.80904 4.61127 1.16247 6 1.20068C7.062 1.18568 8.1 1.55316 9 2.25062L9.75 1.31318C8.62685 0.434425 7.32492 -0.0212219 6 0.000759376ZM2.4 4.50047C2.71826 4.50047 3.02348 4.6585 3.24853 4.93979C3.47357 5.22107 3.6 5.60258 3.6 6.00038C3.6 6.83283 3.048 7.50029 2.4 7.50029C2.10148 7.50215 1.81312 7.36488 1.59123 7.11527C1.36934 6.86566 1.22985 6.52163 1.2 6.15037V5.85039C1.22985 5.47913 1.36934 5.1351 1.59123 4.88549C1.81312 4.63588 2.10148 4.4986 2.4 4.50047ZM9.744 3.00057H9.6C8.96348 3.00057 8.35303 3.31662 7.90294 3.87919C7.45286 4.44177 7.2 5.20478 7.2 6.00038C7.2 6.79598 7.45286 7.55899 7.90294 8.12157C8.35303 8.68414 8.96348 9.00019 9.6 9.00019H9.744C8.73368 10.1917 7.38873 10.8383 6 10.8001C4.938 10.8151 3.9 10.4476 3 9.75014L2.256 10.6801C3.378 11.5575 4.674 12 6 12C9.3 12 12 9.31517 12 6.00038C12 4.41048 11.01 3.09806 9.744 3.00057ZM9.6 7.50029C9.28174 7.50029 8.97652 7.34226 8.75147 7.06097C8.52643 6.77969 8.4 6.39818 8.4 6.00038C8.4 5.16793 8.952 4.50047 9.6 4.50047C9.89852 4.4986 10.1869 4.63588 10.4088 4.88549C10.6307 5.1351 10.7702 5.47913 10.8 5.85039V6.15037C10.7702 6.52163 10.6307 6.86566 10.4088 7.11527C10.1869 7.36488 9.89852 7.50215 9.6 7.50029Z" fill="#0D001D"/>
</svg>
