<svg width="18" height="16" viewBox="0 0 18 16" fill="none" xmlns="http://www.w3.org/2000/svg">
<path d="M17.75 5.34375C17.75 10.8125 9.64141 15.2391 9.29609 15.4219C9.20508 15.4708 9.10335 15.4965 9 15.4965C8.89665 15.4965 8.79492 15.4708 8.70391 15.4219C8.35859 15.2391 0.25 10.8125 0.25 5.34375C0.251447 4.05955 0.762235 2.82837 1.6703 1.9203C2.57837 1.01223 3.80955 0.501447 5.09375 0.5C6.70703 0.5 8.11953 1.19375 9 2.36641C9.88047 1.19375 11.293 0.5 12.9062 0.5C14.1904 0.501447 15.4216 1.01223 16.3297 1.9203C17.2378 2.82837 17.7486 4.05955 17.75 5.34375Z" fill="url(#paint0_linear_4487_14536)"/>
<defs>
<linearGradient id="paint0_linear_4487_14536" x1="-1.19239" y1="-5.29256" x2="12.3513" y2="23.6913" gradientUnits="userSpaceOnUse">
<stop stop-color="#2E1988"/>
<stop offset="0.05" stop-color="#351C91"/>
<stop offset="0.14" stop-color="#4725AB"/>
<stop offset="0.25" stop-color="#6432D4"/>
<stop offset="0.26" stop-color="#6834D9"/>
<stop offset="0.51" stop-color="#8A2CF4"/>
<stop offset="0.79" stop-color="#5F09AF"/>
<stop offset="1" stop-color="#170023"/>
</linearGradient>
</defs>
</svg>
