<svg width="22" height="24" viewBox="0 0 22 24" fill="none" xmlns="http://www.w3.org/2000/svg">
<path d="M10.7345 0C13.5815 0 16.3119 1.12847 18.325 3.13716C20.3381 5.14584 21.4691 7.87021 21.4691 10.7109C21.4691 14.3693 19.4701 17.3636 17.3637 19.5117C16.3112 20.5732 15.1629 21.5357 13.9334 22.387L13.4253 22.7321L13.1868 22.8904L12.7371 23.1761L12.3364 23.42L11.8402 23.708C11.5033 23.8994 11.1222 24 10.7345 24C10.3469 24 9.96582 23.8994 9.62889 23.708L9.13271 23.42L8.51249 23.0392L8.28349 22.8904L7.79447 22.5655C6.46813 21.6698 5.23257 20.647 4.10537 19.5117C1.99901 17.3612 0 14.3693 0 10.7109C0 7.87021 1.13096 5.14584 3.14407 3.13716C5.15719 1.12847 7.88757 0 10.7345 0Z" fill="#855B7E"/>
</svg>
