<svg width="25" height="24" viewBox="0 0 25 24" fill="none" xmlns="http://www.w3.org/2000/svg">
<path d="M11.7852 17.9381C7.83885 17.446 4.78516 14.0796 4.78516 10C4.78516 5.58172 8.36688 2 12.7852 2C17.2035 2 20.7852 5.58172 20.7852 10C20.7852 14.0796 17.7315 17.446 13.7852 17.9381V20.0116C17.7315 20.1039 20.7852 20.7351 20.7852 21.5C20.7852 22.3284 17.2035 23 12.7852 23C8.36688 23 4.78516 22.3284 4.78516 21.5C4.78516 20.7351 7.83885 20.1039 11.7852 20.0116V17.9381ZM12.7852 12C13.8898 12 14.7852 11.1046 14.7852 10C14.7852 8.89543 13.8898 8 12.7852 8C11.6806 8 10.7852 8.89543 10.7852 10C10.7852 11.1046 11.6806 12 12.7852 12Z" fill="#A4A7AE"/>
</svg>
