<svg width="40" height="40" viewBox="0 0 40 40" fill="none" xmlns="http://www.w3.org/2000/svg">
<g filter="url(#filter0_d_4640_61098)">
<rect x="2" y="1" width="36" height="36" rx="18" fill="#A77ED3"/>
<rect x="2.5" y="1.5" width="35" height="35" rx="17.5" stroke="#A77ED3"/>
<path d="M16.25 19V14C16.25 13.0054 16.6451 12.0516 17.3483 11.3483C18.0516 10.6451 19.0054 10.25 20 10.25C20.9946 10.25 21.9484 10.6451 22.6517 11.3483C23.3549 12.0516 23.75 13.0054 23.75 14V19C23.75 19.9946 23.3549 20.9484 22.6517 21.6517C21.9484 22.3549 20.9946 22.75 20 22.75C19.0054 22.75 18.0516 22.3549 17.3483 21.6517C16.6451 20.9484 16.25 19.9946 16.25 19ZM26.25 19C26.25 18.8342 26.1842 18.6753 26.0669 18.5581C25.9497 18.4408 25.7908 18.375 25.625 18.375C25.4592 18.375 25.3003 18.4408 25.1831 18.5581C25.0658 18.6753 25 18.8342 25 19C25 20.3261 24.4732 21.5979 23.5355 22.5355C22.5979 23.4732 21.3261 24 20 24C18.6739 24 17.4021 23.4732 16.4645 22.5355C15.5268 21.5979 15 20.3261 15 19C15 18.8342 14.9342 18.6753 14.8169 18.5581C14.6997 18.4408 14.5408 18.375 14.375 18.375C14.2092 18.375 14.0503 18.4408 13.9331 18.5581C13.8158 18.6753 13.75 18.8342 13.75 19C13.7519 20.5489 14.3281 22.042 15.3671 23.1907C16.4061 24.3393 17.8341 25.062 19.375 25.2188V27.125C19.375 27.2908 19.4408 27.4497 19.5581 27.5669C19.6753 27.6842 19.8342 27.75 20 27.75C20.1658 27.75 20.3247 27.6842 20.4419 27.5669C20.5592 27.4497 20.625 27.2908 20.625 27.125V25.2188C22.1659 25.062 23.5939 24.3393 24.6329 23.1907C25.6719 22.042 26.2481 20.5489 26.25 19Z" fill="#341A4F"/>
</g>
<defs>
<filter id="filter0_d_4640_61098" x="0" y="0" width="40" height="40" filterUnits="userSpaceOnUse" color-interpolation-filters="sRGB">
<feFlood flood-opacity="0" result="BackgroundImageFix"/>
<feColorMatrix in="SourceAlpha" type="matrix" values="0 0 0 0 0 0 0 0 0 0 0 0 0 0 0 0 0 0 127 0" result="hardAlpha"/>
<feOffset dy="1"/>
<feGaussianBlur stdDeviation="1"/>
<feColorMatrix type="matrix" values="0 0 0 0 0.0392157 0 0 0 0 0.0496732 0 0 0 0 0.0705882 0 0 0 0.05 0"/>
<feBlend mode="normal" in2="BackgroundImageFix" result="effect1_dropShadow_4640_61098"/>
<feBlend mode="normal" in="SourceGraphic" in2="effect1_dropShadow_4640_61098" result="shape"/>
</filter>
</defs>
</svg>
