<svg width="16" height="16" viewBox="0 0 16 16" fill="none" xmlns="http://www.w3.org/2000/svg">
<path d="M7.99479 6.66536C9.46752 6.66536 10.6615 5.47146 10.6615 3.9987C10.6615 2.52594 9.46752 1.33203 7.99479 1.33203C6.52203 1.33203 5.32812 2.52594 5.32812 3.9987C5.32812 5.47146 6.52203 6.66536 7.99479 6.66536ZM3.66146 8.66536C4.58193 8.66536 5.32812 7.91916 5.32812 6.9987C5.32812 6.07822 4.58193 5.33203 3.66146 5.33203C2.74098 5.33203 1.99479 6.07822 1.99479 6.9987C1.99479 7.91916 2.74098 8.66536 3.66146 8.66536ZM13.9948 6.9987C13.9948 7.91916 13.2486 8.66536 12.3281 8.66536C11.4077 8.66536 10.6615 7.91916 10.6615 6.9987C10.6615 6.07822 11.4077 5.33203 12.3281 5.33203C13.2486 5.33203 13.9948 6.07822 13.9948 6.9987ZM7.99479 7.33203C9.83572 7.33203 11.3281 8.82443 11.3281 10.6654V14.6654H4.66146V10.6654C4.66146 8.82443 6.15384 7.33203 7.99479 7.33203ZM3.32812 10.6653C3.32812 10.2034 3.39524 9.7571 3.52024 9.33576L3.40722 9.34563C2.23814 9.4723 1.32812 10.4626 1.32812 11.6653V14.6653H3.32812V10.6653ZM14.6615 14.6653V11.6653C14.6615 10.4239 13.6921 9.4089 12.4693 9.33576C12.5943 9.7571 12.6615 10.2034 12.6615 10.6653V14.6653H14.6615Z" fill="#C2A7E1"/>
</svg>
