<svg width="20" height="20" viewBox="0 0 20 20" fill="none" xmlns="http://www.w3.org/2000/svg">
<path d="M4.91001 13.3317H1.66927C1.20904 13.3317 0.835938 12.9586 0.835938 12.4984V7.49835C0.835938 7.03811 1.20904 6.66502 1.66927 6.66502H4.91001L9.3221 3.05513C9.50019 2.90942 9.76269 2.93567 9.90844 3.11377C9.96935 3.18821 10.0026 3.28143 10.0026 3.37762V16.619C10.0026 16.8492 9.81602 17.0357 9.58594 17.0357C9.48977 17.0357 9.39652 17.0025 9.3221 16.9415L4.91001 13.3317ZM17.0144 9.99837L19.9607 12.9446L18.7822 14.1231L15.8359 11.1769L12.8897 14.1231L11.7112 12.9446L14.6574 9.99837L11.7112 7.05207L12.8897 5.87356L15.8359 8.81987L18.7822 5.87356L19.9607 7.05207L17.0144 9.99837Z" fill="#A4A7AE"/>
</svg>
