<svg width="32" height="32" viewBox="0 0 32 32" fill="none" xmlns="http://www.w3.org/2000/svg">
<rect width="32" height="32" rx="16" fill="#A77ED3"/>
<path d="M18.2806 20.2284C18.3298 20.3038 18.3577 20.3912 18.3613 20.4812C18.365 20.5711 18.3443 20.6605 18.3014 20.7397C18.2585 20.8188 18.195 20.885 18.1176 20.9311C18.0403 20.9772 17.9519 21.0015 17.8618 21.0015H8.64056C8.5505 21.0015 8.46211 20.9772 8.38473 20.9311C8.30736 20.885 8.24387 20.8188 8.20097 20.7397C8.15808 20.6605 8.13737 20.5711 8.14104 20.4812C8.14471 20.3912 8.17262 20.3038 8.22181 20.2284C8.92563 19.145 9.96087 18.3183 11.1731 17.8715C10.5029 17.4254 9.99417 16.7754 9.722 16.0178C9.44983 15.2602 9.4287 14.435 9.66175 13.6645C9.89479 12.8939 10.3696 12.2188 11.016 11.7389C11.6625 11.2591 12.4461 11 13.2512 11C14.0562 11 14.8399 11.2591 15.4863 11.7389C16.1327 12.2188 16.6076 12.8939 16.8406 13.6645C17.0737 14.435 17.0525 15.2602 16.7804 16.0178C16.5082 16.7754 15.9994 17.4254 15.3293 17.8715C16.5415 18.3183 17.5767 19.145 18.2806 20.2284ZM23.7749 20.219C23.0709 19.1402 22.038 18.317 20.8293 17.8715C21.6204 17.3386 22.1787 16.5243 22.3906 15.5942C22.6025 14.6642 22.4519 13.6884 21.9697 12.8654C21.4874 12.0424 20.7097 11.4342 19.7948 11.1644C18.8799 10.8947 17.8965 10.9837 17.0449 11.4134C17.0124 11.4302 16.9839 11.454 16.9615 11.483C16.9392 11.5121 16.9235 11.5457 16.9156 11.5814C16.9076 11.6172 16.9077 11.6543 16.9157 11.6901C16.9236 11.7258 16.9394 11.7594 16.9618 11.7884C17.595 12.5783 17.9587 13.5502 17.9995 14.5617C18.0404 15.5733 17.7562 16.5713 17.1887 17.4096C17.152 17.4644 17.1385 17.5315 17.151 17.5962C17.1635 17.661 17.2011 17.7181 17.2556 17.7553C17.9955 18.2717 18.6289 18.9259 19.1212 19.6821C19.3197 19.9862 19.4008 20.3521 19.3493 20.7115C19.3435 20.7473 19.3456 20.7839 19.3553 20.8188C19.365 20.8536 19.3822 20.886 19.4057 20.9136C19.4292 20.9412 19.4584 20.9633 19.4913 20.9785C19.5242 20.9937 19.56 21.0015 19.5962 21.0015H23.3649C23.475 21.0016 23.5821 20.9652 23.6694 20.8982C23.7568 20.8312 23.8196 20.7372 23.8481 20.6309C23.8654 20.561 23.8679 20.4881 23.8553 20.4172C23.8427 20.3462 23.8153 20.2787 23.7749 20.219Z" fill="#341A4F"/>
</svg>
