<svg width="54" height="54" viewBox="0 0 54 54" fill="none" xmlns="http://www.w3.org/2000/svg">
<path d="M13.5 41.4V12.6C13.5 11.8544 14.1044 11.25 14.85 11.25H21.15C21.8956 11.25 22.5 11.8544 22.5 12.6V41.4C22.5 42.1456 21.8956 42.75 21.15 42.75H14.85C14.1044 42.75 13.5 42.1456 13.5 41.4Z" stroke="white" stroke-width="3.15"/>
<path d="M31.5 41.4V12.6C31.5 11.8544 32.1044 11.25 32.85 11.25H39.15C39.8956 11.25 40.5 11.8544 40.5 12.6V41.4C40.5 42.1456 39.8956 42.75 39.15 42.75H32.85C32.1044 42.75 31.5 42.1456 31.5 41.4Z" stroke="white" stroke-width="3.15"/>
</svg>
