<svg width="20" height="24" viewBox="0 0 20 24" fill="none" xmlns="http://www.w3.org/2000/svg">
<g clip-path="url(#clip0_4640_46162)">
<path d="M16.9635 2.03836C15.8749 0.797578 13.9071 0.265625 11.3897 0.265625H4.08344C3.83435 0.265587 3.59343 0.354431 3.404 0.516176C3.21457 0.677921 3.08907 0.901952 3.05008 1.14797L0.00789453 20.4423C-0.0525742 20.8227 0.242035 21.1673 0.62766 21.1673H5.13829L6.2711 13.982L6.23594 14.207C6.31664 13.6991 6.75102 13.3245 7.26539 13.3245H9.40883C13.6196 13.3245 16.9167 11.6142 17.8798 6.66664C17.9084 6.52031 17.9332 6.37789 17.9546 6.23875C17.8331 6.17438 17.8331 6.17438 17.9546 6.23875C18.2414 4.41008 17.9527 3.16531 16.9635 2.03836Z" fill="#27346A"/>
<path d="M7.99704 5.58C8.12032 5.52119 8.25521 5.49076 8.3918 5.49094H14.1198C14.7981 5.49094 15.4307 5.53508 16.0088 5.62813C16.1706 5.65394 16.3315 5.68473 16.4914 5.72047C16.718 5.77048 16.942 5.83167 17.1625 5.90383C17.4467 5.99875 17.7114 6.1093 17.9547 6.23875C18.2414 4.40938 17.9527 3.16531 16.9635 2.03836C15.8743 0.797578 13.9071 0.265625 11.3897 0.265625H4.08282C3.56836 0.265625 3.13071 0.640156 3.05008 1.14797L0.00789495 20.4416C-0.0525738 20.8227 0.242036 21.1667 0.627036 21.1667H5.13829L7.48852 6.26281C7.51165 6.11633 7.57001 5.97765 7.65859 5.85871C7.74717 5.73977 7.86332 5.64412 7.99704 5.58Z" fill="#27346A"/>
<path d="M17.8803 6.66617C16.9172 11.613 13.6201 13.3241 9.40928 13.3241H7.26521C6.75084 13.3241 6.31638 13.6987 6.23646 14.2066L4.82717 23.1405C4.77451 23.4735 5.03201 23.7752 5.36888 23.7752H9.17123C9.38904 23.7752 9.59968 23.6974 9.76528 23.5559C9.93087 23.4144 10.0405 23.2185 10.0746 23.0034L10.1116 22.8096L10.8283 18.2677L10.8744 18.0167C10.9085 17.8016 11.0181 17.6057 11.1837 17.4642C11.3493 17.3227 11.5599 17.2449 11.7777 17.2448H12.3468C16.0301 17.2448 18.9143 15.7484 19.7571 11.4206C20.1089 9.61203 19.9269 8.10203 18.9962 7.04141C18.714 6.72016 18.3634 6.45484 17.9551 6.23828C17.9329 6.37812 17.909 6.51984 17.8803 6.66617Z" fill="#2790C3"/>
<path d="M16.9523 5.8382C16.8021 5.79436 16.6505 5.75553 16.4977 5.7218C16.3378 5.68663 16.1769 5.65605 16.0152 5.63008C15.4364 5.53641 14.8042 5.49219 14.1253 5.49219H8.39805C8.26137 5.49196 8.12642 5.52265 8.00328 5.58195C7.86939 5.64585 7.75309 5.74143 7.66447 5.86041C7.57584 5.97939 7.51757 6.11818 7.49469 6.26477L6.27734 13.9834L6.24219 14.2084C6.32227 13.7005 6.75664 13.3259 7.27109 13.3259H9.41516C13.6259 13.3259 16.923 11.6155 17.8861 6.66797C17.9148 6.52164 17.9388 6.37985 17.9609 6.24008C17.7171 6.11143 17.453 6 17.1688 5.90578C17.097 5.882 17.0249 5.85947 16.9523 5.8382" fill="#1F264F"/>
</g>
<defs>
<clipPath id="clip0_4640_46162">
<rect width="20" height="23.5938" fill="white" transform="translate(0 0.203125)"/>
</clipPath>
</defs>
</svg>
