<svg width="16" height="16" viewBox="0 0 16 16" fill="none" xmlns="http://www.w3.org/2000/svg">
<path d="M3.33333 7.40033L4.66667 6.067L8.33333 9.73367L10.6667 7.40033L12.6667 9.40033V3.33333H3.33333V7.40033ZM3.33333 9.28593V12.6667H5.40033L7.39053 10.6765L4.66667 7.9526L3.33333 9.28593ZM7.28593 12.6667H12.6667V11.2859L10.6667 9.28593L7.28593 12.6667ZM2.66667 2H13.3333C13.7015 2 14 2.29848 14 2.66667V13.3333C14 13.7015 13.7015 14 13.3333 14H2.66667C2.29848 14 2 13.7015 2 13.3333V2.66667C2 2.29848 2.29848 2 2.66667 2ZM10.3333 6.66667C9.78107 6.66667 9.33333 6.21895 9.33333 5.66667C9.33333 5.11438 9.78107 4.66667 10.3333 4.66667C10.8856 4.66667 11.3333 5.11438 11.3333 5.66667C11.3333 6.21895 10.8856 6.66667 10.3333 6.66667Z" fill="#C2A7E1"/>
</svg>
