<svg width="16" height="16" viewBox="0 0 16 16" fill="none" xmlns="http://www.w3.org/2000/svg">
<path d="M6.54708 3.33333L5.21374 4.66667H2.66146V12.6667H13.3281V4.66667H10.7759L9.44252 3.33333H6.54708ZM5.99479 2H9.99479L11.3281 3.33333H13.9948C14.363 3.33333 14.6615 3.63181 14.6615 4V13.3333C14.6615 13.7015 14.363 14 13.9948 14H1.99479C1.6266 14 1.32812 13.7015 1.32812 13.3333V4C1.32812 3.63181 1.6266 3.33333 1.99479 3.33333H4.66146L5.99479 2ZM7.99479 12C5.96974 12 4.32812 10.3584 4.32812 8.33333C4.32812 6.30829 5.96974 4.66667 7.99479 4.66667C10.0199 4.66667 11.6615 6.30829 11.6615 8.33333C11.6615 10.3584 10.0199 12 7.99479 12ZM7.99479 10.6667C9.28346 10.6667 10.3281 9.622 10.3281 8.33333C10.3281 7.04467 9.28346 6 7.99479 6C6.70612 6 5.66146 7.04467 5.66146 8.33333C5.66146 9.622 6.70612 10.6667 7.99479 10.6667Z" fill="#C2A7E1"/>
</svg>
