<svg width="17" height="16" viewBox="0 0 17 16" fill="none" xmlns="http://www.w3.org/2000/svg">
<path d="M1.83438 7.99979C1.8357 6.80672 2.31023 5.6629 3.15386 4.81927C3.99749 3.97564 5.14131 3.50111 6.33438 3.49979H13.1275L12.4806 2.85354C12.3868 2.75972 12.3341 2.63247 12.3341 2.49979C12.3341 2.36711 12.3868 2.23986 12.4806 2.14604C12.5744 2.05222 12.7017 1.99951 12.8344 1.99951C12.9671 1.99951 13.0943 2.05222 13.1881 2.14604L14.6881 3.64604C14.7346 3.69248 14.7715 3.74762 14.7967 3.80832C14.8218 3.86902 14.8348 3.93408 14.8348 3.99979C14.8348 4.0655 14.8218 4.13056 14.7967 4.19126C14.7715 4.25196 14.7346 4.3071 14.6881 4.35354L13.1881 5.85354C13.0943 5.94736 12.9671 6.00007 12.8344 6.00007C12.7017 6.00007 12.5744 5.94736 12.4806 5.85354C12.3868 5.75972 12.3341 5.63247 12.3341 5.49979C12.3341 5.36711 12.3868 5.23986 12.4806 5.14604L13.1275 4.49979H6.33438C5.40642 4.50078 4.51676 4.86985 3.8606 5.52601C3.20444 6.18217 2.83537 7.07184 2.83438 7.99979C2.83438 8.1324 2.7817 8.25958 2.68793 8.35334C2.59416 8.44711 2.46699 8.49979 2.33438 8.49979C2.20177 8.49979 2.07459 8.44711 1.98082 8.35334C1.88706 8.25958 1.83438 8.1324 1.83438 7.99979ZM14.3344 7.49979C14.2018 7.49979 14.0746 7.55247 13.9808 7.64624C13.8871 7.74 13.8344 7.86718 13.8344 7.99979C13.8334 8.92774 13.4643 9.81741 12.8082 10.4736C12.152 11.1297 11.2623 11.4988 10.3344 11.4998H3.54125L4.18813 10.8535C4.23458 10.8071 4.27143 10.7519 4.29657 10.6912C4.32172 10.6305 4.33466 10.5655 4.33466 10.4998C4.33466 10.4341 4.32172 10.369 4.29657 10.3083C4.27143 10.2476 4.23458 10.1925 4.18813 10.146C4.14167 10.0996 4.08652 10.0627 4.02583 10.0376C3.96513 10.0125 3.90008 9.99951 3.83438 9.99951C3.76868 9.99951 3.70363 10.0125 3.64293 10.0376C3.58223 10.0627 3.52708 10.0996 3.48063 10.146L1.98063 11.646C1.93414 11.6925 1.89726 11.7476 1.8721 11.8083C1.84694 11.869 1.83398 11.9341 1.83398 11.9998C1.83398 12.0655 1.84694 12.1306 1.8721 12.1913C1.89726 12.252 1.93414 12.3071 1.98063 12.3535L3.48063 13.8535C3.52708 13.9 3.58223 13.9368 3.64293 13.962C3.70363 13.9871 3.76868 14.0001 3.83438 14.0001C3.90008 14.0001 3.96513 13.9871 4.02583 13.962C4.08652 13.9368 4.14167 13.9 4.18813 13.8535C4.23458 13.8071 4.27143 13.7519 4.29657 13.6912C4.32172 13.6305 4.33466 13.5655 4.33466 13.4998C4.33466 13.4341 4.32172 13.369 4.29657 13.3083C4.27143 13.2476 4.23458 13.1925 4.18813 13.146L3.54125 12.4998H10.3344C11.5274 12.4985 12.6713 12.0239 13.5149 11.1803C14.3585 10.3367 14.8331 9.19286 14.8344 7.99979C14.8344 7.86718 14.7817 7.74 14.6879 7.64624C14.5942 7.55247 14.467 7.49979 14.3344 7.49979Z" fill="#A4A7AE"/>
</svg>
