<svg width="17" height="16" viewBox="0 0 17 16" fill="none" xmlns="http://www.w3.org/2000/svg">
<path d="M8.66733 3.01902C10.2333 1.61333 12.6533 1.66 14.1617 3.17157C15.6702 4.68315 15.722 7.09133 14.3191 8.662L8.6666 14.3233L3.01425 8.662C1.61137 7.09133 1.66381 4.67934 3.17157 3.17157C4.68105 1.6621 7.09679 1.61125 8.66733 3.01902ZM13.218 4.1134C12.2186 3.11196 10.6051 3.07134 9.558 4.01125L8.66793 4.81016L7.7774 4.01187C6.72732 3.07065 5.11671 3.11205 4.11438 4.11438C3.12122 5.10754 3.07136 6.6982 3.98662 7.7488L8.6666 12.4362L13.3467 7.7488C14.2623 6.6978 14.2127 5.11017 13.218 4.1134Z" fill="#A4A7AE"/>
</svg>
