<svg width="16" height="16" viewBox="0 0 16 16" fill="none" xmlns="http://www.w3.org/2000/svg">
<path d="M8.74745 11.3487L5.94818 9.82176C5.46155 10.3418 4.76906 10.6668 4.00065 10.6668C2.52789 10.6668 1.33398 9.4729 1.33398 8.00016C1.33398 6.5274 2.52789 5.3335 4.00065 5.3335C4.76902 5.3335 5.46148 5.65847 5.9481 6.17847L8.74745 4.65158C8.69512 4.4431 8.66732 4.22488 8.66732 4.00016C8.66732 2.5274 9.86125 1.3335 11.334 1.3335C12.8067 1.3335 14.0007 2.5274 14.0007 4.00016C14.0007 5.47292 12.8067 6.66683 11.334 6.66683C10.5656 6.66683 9.87312 6.34184 9.38645 5.8218L6.58716 7.3487C6.63952 7.55716 6.66732 7.77543 6.66732 8.00016C6.66732 8.2249 6.63952 8.4431 6.58719 8.65156L9.38652 10.1785C9.87312 9.6585 10.5656 9.3335 11.334 9.3335C12.8067 9.3335 14.0007 10.5274 14.0007 12.0002C14.0007 13.4729 12.8067 14.6668 11.334 14.6668C9.86125 14.6668 8.66732 13.4729 8.66732 12.0002C8.66732 11.7754 8.69512 11.5572 8.74745 11.3487ZM4.00065 9.3335C4.73703 9.3335 5.33398 8.73656 5.33398 8.00016C5.33398 7.26376 4.73703 6.66683 4.00065 6.66683C3.26427 6.66683 2.66732 7.26376 2.66732 8.00016C2.66732 8.73656 3.26427 9.3335 4.00065 9.3335ZM11.334 5.3335C12.0704 5.3335 12.6673 4.73654 12.6673 4.00016C12.6673 3.26378 12.0704 2.66683 11.334 2.66683C10.5976 2.66683 10.0007 3.26378 10.0007 4.00016C10.0007 4.73654 10.5976 5.3335 11.334 5.3335ZM11.334 13.3335C12.0704 13.3335 12.6673 12.7366 12.6673 12.0002C12.6673 11.2638 12.0704 10.6668 11.334 10.6668C10.5976 10.6668 10.0007 11.2638 10.0007 12.0002C10.0007 12.7366 10.5976 13.3335 11.334 13.3335Z" fill="#A4A7AE"/>
</svg>
