<svg width="20" height="20" viewBox="0 0 20 20" fill="none" xmlns="http://www.w3.org/2000/svg">
<path d="M15 6.66536H16.6667C17.1269 6.66536 17.5 7.03846 17.5 7.4987V17.4987C17.5 17.9589 17.1269 18.332 16.6667 18.332H3.33333C2.8731 18.332 2.5 17.9589 2.5 17.4987V7.4987C2.5 7.03846 2.8731 6.66536 3.33333 6.66536H5V5.83203C5 3.07061 7.23857 0.832031 10 0.832031C12.7614 0.832031 15 3.07061 15 5.83203V6.66536ZM9.16667 13.109V14.9987H10.8333V13.109C11.3315 12.8209 11.6667 12.2823 11.6667 11.6654C11.6667 10.7449 10.9205 9.9987 10 9.9987C9.0795 9.9987 8.33333 10.7449 8.33333 11.6654C8.33333 12.2823 8.6685 12.8209 9.16667 13.109ZM13.3333 6.66536V5.83203C13.3333 3.99108 11.8409 2.4987 10 2.4987C8.15905 2.4987 6.66667 3.99108 6.66667 5.83203V6.66536H13.3333Z" fill="#A4A7AE"/>
</svg>
