<svg width="32" height="32" viewBox="0 0 32 32" fill="none" xmlns="http://www.w3.org/2000/svg">
<mask id="path-1-inside-1_4640_56417" fill="white">
<path d="M0 0H32V24C32 28.4183 28.4183 32 24 32H0V0Z"/>
</mask>
<path d="M0 0H32V24C32 28.4183 28.4183 32 24 32H0V0Z" fill="#341A4F"/>
<path d="M-1 -1H32V1H1L-1 -1ZM32 32H0H32ZM-1 32V-1L1 1V32H-1ZM32 0V32V0Z" fill="#0D001D" mask="url(#path-1-inside-1_4640_56417)"/>
<path d="M16.412 19.008H14.636V18.64C14.636 17.184 15.532 16.432 16.38 15.776C17.1 15.2 17.756 14.656 17.756 13.728C17.756 12.64 17.084 11.92 15.964 11.92C14.828 11.92 14.044 12.768 14.044 14H12.012C12.012 11.712 13.692 10.096 16.012 10.096C18.396 10.096 19.836 11.472 19.836 13.6C19.836 15.312 18.732 16.128 17.804 16.784C17.02 17.344 16.412 17.824 16.412 18.64V19.008ZM15.596 22.208C14.876 22.208 14.3 21.632 14.3 20.944C14.3 20.24 14.876 19.664 15.596 19.664C16.3 19.664 16.892 20.24 16.892 20.944C16.892 21.616 16.3 22.208 15.596 22.208Z" fill="#9565CA"/>
</svg>
