<svg width="14" height="14" viewBox="0 0 14 14" fill="none" xmlns="http://www.w3.org/2000/svg">
<path d="M13.2868 11.961C13.4629 12.1371 13.5618 12.376 13.5618 12.6251C13.5618 12.8741 13.4629 13.113 13.2868 13.2891C13.1107 13.4652 12.8718 13.5642 12.6227 13.5642C12.3736 13.5642 12.1348 13.4652 11.9587 13.2891L6.9985 8.32741L2.03678 13.2876C1.86066 13.4637 1.62179 13.5626 1.37272 13.5626C1.12365 13.5626 0.884778 13.4637 0.708658 13.2876C0.532537 13.1114 0.433594 12.8726 0.433594 12.6235C0.433594 12.3744 0.532537 12.1356 0.708658 11.9594L5.67038 6.99928L0.71022 2.03756C0.534099 1.86144 0.435156 1.62257 0.435156 1.3735C0.435156 1.12443 0.534099 0.885559 0.71022 0.709439C0.88634 0.533318 1.12521 0.434375 1.37428 0.434375C1.62335 0.434375 1.86222 0.533318 2.03834 0.709439L6.9985 5.67116L11.9602 0.708657C12.1363 0.532537 12.3752 0.433594 12.6243 0.433594C12.8734 0.433594 13.1122 0.532537 13.2883 0.708657C13.4645 0.884778 13.5634 1.12365 13.5634 1.37272C13.5634 1.62179 13.4645 1.86066 13.2883 2.03678L8.32663 6.99928L13.2868 11.961Z" fill="#F04438"/>
</svg>
