<svg width="42" height="42" viewBox="0 0 42 42" fill="none" xmlns="http://www.w3.org/2000/svg">
<path d="M34.2576 28.5368L31.3114 25.5906L34.2576 22.6443C38.3255 18.5764 38.3255 11.9809 34.2576 7.91296C30.1897 3.84498 23.5941 3.84498 19.5262 7.91296L16.5799 10.8592L13.6336 7.91296L16.5799 4.96667C22.2751 -0.728474 31.5087 -0.728474 37.2039 4.96667C42.8991 10.6618 42.8991 19.8954 37.2039 25.5906L34.2576 28.5368ZM28.3649 34.4295L25.4187 37.3758C19.7237 43.0708 10.4899 43.0708 4.7948 37.3758C-0.900349 31.6806 -0.900349 22.4468 4.7948 16.7518L7.74107 13.8055L10.6874 16.7518L7.74107 19.6981C3.67311 23.766 3.67311 30.3614 7.74107 34.4295C11.809 38.4975 18.4045 38.4975 22.4724 34.4295L25.4187 31.4831L28.3649 34.4295ZM26.8918 12.3324L29.8383 15.2787L15.1068 30.01L12.1605 27.0637L26.8918 12.3324Z" fill="#F1A5E5"/>
</svg>
