<svg width="40" height="40" viewBox="0 0 40 40" fill="none" xmlns="http://www.w3.org/2000/svg">
<g filter="url(#filter0_d_4640_43843)">
<rect x="2" y="1" width="36" height="36" rx="18" fill="#341A4F"/>
<rect x="2.5" y="1.5" width="35" height="35" rx="17.5" stroke="#341A4F"/>
<path d="M26.875 11.5H16.875C16.7092 11.5 16.5503 11.5658 16.4331 11.6831C16.3158 11.8003 16.25 11.9592 16.25 12.125V15.25H13.125C12.9592 15.25 12.8003 15.3158 12.6831 15.4331C12.5658 15.5503 12.5 15.7092 12.5 15.875V25.875C12.5 26.0408 12.5658 26.1997 12.6831 26.3169C12.8003 26.4342 12.9592 26.5 13.125 26.5H23.125C23.2908 26.5 23.4497 26.4342 23.5669 26.3169C23.6842 26.1997 23.75 26.0408 23.75 25.875V22.75H26.875C27.0408 22.75 27.1997 22.6842 27.3169 22.5669C27.4342 22.4497 27.5 22.2908 27.5 22.125V12.125C27.5 11.9592 27.4342 11.8003 27.3169 11.6831C27.1997 11.5658 27.0408 11.5 26.875 11.5ZM26.25 21.5H23.75V15.875C23.75 15.7092 23.6842 15.5503 23.5669 15.4331C23.4497 15.3158 23.2908 15.25 23.125 15.25H17.5V12.75H26.25V21.5Z" fill="#D6C3EB"/>
</g>
<defs>
<filter id="filter0_d_4640_43843" x="0" y="0" width="40" height="40" filterUnits="userSpaceOnUse" color-interpolation-filters="sRGB">
<feFlood flood-opacity="0" result="BackgroundImageFix"/>
<feColorMatrix in="SourceAlpha" type="matrix" values="0 0 0 0 0 0 0 0 0 0 0 0 0 0 0 0 0 0 127 0" result="hardAlpha"/>
<feOffset dy="1"/>
<feGaussianBlur stdDeviation="1"/>
<feColorMatrix type="matrix" values="0 0 0 0 0.0392157 0 0 0 0 0.0496732 0 0 0 0 0.0705882 0 0 0 0.05 0"/>
<feBlend mode="normal" in2="BackgroundImageFix" result="effect1_dropShadow_4640_43843"/>
<feBlend mode="normal" in="SourceGraphic" in2="effect1_dropShadow_4640_43843" result="shape"/>
</filter>
</defs>
</svg>
