<svg width="20" height="20" viewBox="0 0 20 20" fill="none" xmlns="http://www.w3.org/2000/svg">
<path d="M1.56324 9.9985C1.56489 8.42429 2.19098 6.91502 3.30412 5.80188C4.41726 4.68874 5.92652 4.06266 7.50074 4.061H15.2351L14.9601 3.78678C14.8729 3.69958 14.8037 3.59605 14.7565 3.48211C14.7093 3.36817 14.6851 3.24605 14.6851 3.12272C14.6851 2.99939 14.7093 2.87727 14.7565 2.76333C14.8037 2.64939 14.8729 2.54586 14.9601 2.45866C15.0473 2.37145 15.1508 2.30228 15.2648 2.25508C15.3787 2.20788 15.5008 2.18359 15.6242 2.18359C15.7475 2.18359 15.8696 2.20788 15.9836 2.25508C16.0975 2.30228 16.201 2.37145 16.2882 2.45866L18.1632 4.33366C18.2506 4.42075 18.32 4.52425 18.3673 4.6382C18.4146 4.75216 18.439 4.87433 18.439 4.99772C18.439 5.12111 18.4146 5.24328 18.3673 5.35724C18.32 5.47119 18.2506 5.57469 18.1632 5.66178L16.2882 7.53678C16.1121 7.7129 15.8732 7.81185 15.6242 7.81185C15.3751 7.81185 15.1362 7.7129 14.9601 7.53678C14.784 7.36066 14.6851 7.12179 14.6851 6.87272C14.6851 6.62365 14.784 6.38478 14.9601 6.20866L15.2351 5.936H7.50074C6.42368 5.93724 5.39109 6.36565 4.62949 7.12725C3.86789 7.88885 3.43948 8.92144 3.43824 9.9985C3.43824 10.2471 3.33947 10.4856 3.16365 10.6614C2.98784 10.8372 2.74938 10.936 2.50074 10.936C2.2521 10.936 2.01364 10.8372 1.83783 10.6614C1.66201 10.4856 1.56324 10.2471 1.56324 9.9985ZM17.5007 9.061C17.2521 9.061 17.0136 9.15977 16.8378 9.33559C16.662 9.5114 16.5632 9.74986 16.5632 9.9985C16.562 11.0756 16.1336 12.1082 15.372 12.8698C14.6104 13.6314 13.5778 14.0598 12.5007 14.061H4.76636L5.04136 13.7868C5.12857 13.6996 5.19775 13.596 5.24494 13.4821C5.29214 13.3682 5.31643 13.246 5.31643 13.1227C5.31643 12.9994 5.29214 12.8773 5.24494 12.7633C5.19775 12.6494 5.12857 12.5459 5.04136 12.4587C4.95416 12.3715 4.85063 12.3023 4.73669 12.2551C4.62275 12.2079 4.50063 12.1836 4.3773 12.1836C4.25397 12.1836 4.13185 12.2079 4.01791 12.2551C3.90397 12.3023 3.80045 12.3715 3.71324 12.4587L1.83824 14.3337C1.75084 14.4208 1.68149 14.5242 1.63417 14.6382C1.58686 14.7522 1.5625 14.8743 1.5625 14.9977C1.5625 15.1211 1.58686 15.2433 1.63417 15.3572C1.68149 15.4712 1.75084 15.5747 1.83824 15.6618L3.71324 17.5368C3.80045 17.624 3.90397 17.6932 4.01791 17.7404C4.13185 17.7876 4.25397 17.8118 4.3773 17.8118C4.50063 17.8118 4.62275 17.7876 4.73669 17.7404C4.85063 17.6932 4.95416 17.624 5.04136 17.5368C5.12857 17.4496 5.19775 17.346 5.24494 17.2321C5.29214 17.1182 5.31643 16.996 5.31643 16.8727C5.31643 16.7494 5.29214 16.6273 5.24494 16.5133C5.19775 16.3994 5.12857 16.2959 5.04136 16.2087L4.76636 15.936H12.5007C14.075 15.9343 15.5842 15.3083 16.6974 14.1951C17.8105 13.082 18.4366 11.5727 18.4382 9.9985C18.4382 9.74986 18.3395 9.5114 18.1637 9.33559C17.9878 9.15977 17.7494 9.061 17.5007 9.061Z" fill="#A4A7AE"/>
</svg>
