<svg width="42" height="40" viewBox="0 0 42 40" fill="none" xmlns="http://www.w3.org/2000/svg">
<rect x="0.875" y="0.5" width="40" height="39" rx="19.5" stroke="#252B37"/>
<path d="M28.2558 23.1047C29.8028 19.4411 28.4143 15.1133 24.8812 13.0735C22.3281 11.5994 19.3002 11.6926 16.9115 13.0546L15.9191 11.3178C18.905 9.61535 22.6898 9.49886 25.8812 11.3414C30.3719 13.9341 32.0909 19.4838 29.9987 24.111L31.3405 24.8857L27.1754 27.0998L27.0104 22.3857L28.2558 23.1047ZM13.5066 16.8986C11.9596 20.5623 13.3481 24.8901 16.8812 26.9299C19.4343 28.4039 22.4621 28.3108 24.8507 26.9489L25.8431 28.6857C22.8573 30.388 19.0726 30.5045 15.8812 28.662C11.3905 26.0693 9.67152 20.5196 11.7637 15.8924L10.4219 15.1177L14.5869 12.9036L14.752 17.6177L13.5066 16.8986ZM17.3812 22.0017H22.8812C23.1574 22.0017 23.3812 21.7778 23.3812 21.5017C23.3812 21.2256 23.1574 21.0017 22.8812 21.0017H18.8812C17.5005 21.0017 16.3812 19.8824 16.3812 18.5017C16.3812 17.121 17.5005 16.0017 18.8812 16.0017H19.8812V15.0017H21.8812V16.0017H24.3812V18.0017H18.8812C18.605 18.0017 18.3812 18.2256 18.3812 18.5017C18.3812 18.7778 18.605 19.0017 18.8812 19.0017H22.8812C24.2619 19.0017 25.3812 20.121 25.3812 21.5017C25.3812 22.8824 24.2619 24.0017 22.8812 24.0017H21.8812V25.0017H19.8812V24.0017H17.3812V22.0017Z" fill="#717680"/>
</svg>
