<svg width="124" height="124" viewBox="0 0 124 124" fill="none" xmlns="http://www.w3.org/2000/svg">
<g clip-path="url(#clip0_5032_892)">
<path d="M29.1631 19.9378C27.1333 21.8637 24.9922 23.6857 23.0922 25.7303C-2.71637 53.5019 8.09318 98.6141 43.6723 111.709C49.5465 113.873 55.6248 114.897 61.8812 114.99C65.2209 115.038 67.362 118.259 66.0299 121.183C65.1986 123.005 63.7032 123.885 61.6994 123.862C48.9491 123.703 37.2415 120.163 26.777 112.849C13.2401 103.386 4.40836 90.5728 1.31356 74.3603C-3.11343 51.1678 3.68475 31.4227 21.0179 15.3438C21.4187 14.9727 21.8306 14.6165 22.4465 14.0673C21.7526 14.0302 21.3148 13.9894 20.8732 13.9894C17.4926 13.9819 14.1121 14.0079 10.7316 13.9782C7.89651 13.956 5.88155 12.082 5.88526 9.54382C5.88526 6.99821 7.87796 5.12055 10.7353 5.10571C18.3758 5.07602 26.0163 5.07231 33.6569 5.10571C36.6663 5.12055 38.4178 6.88689 38.4252 9.86666C38.4512 17.5517 38.4475 25.2368 38.4252 32.9256C38.4178 35.6753 36.5476 37.6494 34.0428 37.6717C31.5751 37.6976 29.5935 35.6938 29.5564 32.9923C29.5045 29.1962 29.5416 25.4001 29.5416 21.6039C29.5416 21.1178 29.5416 20.6317 29.5416 20.1493C29.4154 20.0788 29.2893 20.0083 29.1594 19.9378H29.1631Z" fill="white"/>
<path d="M97.8165 100.997C102.41 96.7739 105.939 92.18 108.741 87.0145C125.106 56.8309 108.463 18.8472 75.1547 10.4608C72.0747 9.68523 68.8834 9.30673 65.7218 8.90597C63.0018 8.56086 61.0908 6.69433 61.2355 4.22665C61.3876 1.59941 63.5918 -0.19291 66.412 0.0148949C94.1799 2.04841 117.421 22.3094 122.72 49.6283C126.586 69.5738 121.673 87.4042 108.437 102.886C108.055 103.331 107.669 103.769 107.123 104.392C107.747 104.429 108.136 104.474 108.526 104.478C111.35 104.485 114.177 104.429 116.998 104.504C119.636 104.574 121.491 106.518 121.462 109.02C121.436 111.51 119.525 113.357 116.86 113.365C109.083 113.387 101.301 113.387 93.5231 113.365C90.7474 113.357 88.9403 111.513 88.9329 108.719C88.9143 100.986 88.918 93.2561 88.9329 85.5228C88.9366 82.8102 90.8439 80.8323 93.371 80.8361C95.8869 80.8361 97.798 82.8288 97.8091 85.5376C97.8314 90.1205 97.8165 94.7033 97.8165 99.2861C97.8165 99.7389 97.8165 100.192 97.8165 101.001V100.997Z" fill="white"/>
</g>
<defs>
<clipPath id="clip0_5032_892">
<rect width="124" height="123.863" fill="white"/>
</clipPath>
</defs>
</svg>
