<svg width="25" height="24" viewBox="0 0 25 24" fill="none" xmlns="http://www.w3.org/2000/svg">
<path d="M11.7852 2C16.7532 2 20.7852 6.032 20.7852 11C20.7852 15.968 16.7532 20 11.7852 20C6.81716 20 2.78516 15.968 2.78516 11C2.78516 6.032 6.81716 2 11.7852 2ZM11.7852 18C15.6527 18 18.7852 14.8675 18.7852 11C18.7852 7.1325 15.6527 4 11.7852 4C7.91766 4 4.78516 7.1325 4.78516 11C4.78516 14.8675 7.91766 18 11.7852 18ZM20.2705 18.0711L23.0989 20.8995L21.6847 22.3137L18.8563 19.4853L20.2705 18.0711Z" fill="#A4A7AE"/>
</svg>
