<svg width="20" height="20" viewBox="0 0 20 20" fill="none" xmlns="http://www.w3.org/2000/svg">
<path d="M9.16602 1.66797C13.306 1.66797 16.666 5.02797 16.666 9.16797C16.666 13.308 13.306 16.668 9.16602 16.668C5.02602 16.668 1.66602 13.308 1.66602 9.16797C1.66602 5.02797 5.02602 1.66797 9.16602 1.66797ZM9.16602 15.0013C12.3889 15.0013 14.9993 12.3909 14.9993 9.16797C14.9993 5.94505 12.3889 3.33464 9.16602 3.33464C5.9431 3.33464 3.33268 5.94505 3.33268 9.16797C3.33268 12.3909 5.9431 15.0013 9.16602 15.0013ZM16.2371 15.0606L18.5941 17.4176L17.4156 18.5961L15.0586 16.2391L16.2371 15.0606Z" fill="#FCFAFF"/>
</svg>
