<svg width="36" height="36" viewBox="0 0 36 36" fill="none" xmlns="http://www.w3.org/2000/svg">
<rect width="36" height="36" rx="18" fill="#9565CA"/>
<g filter="url(#filter0_d_4640_61643)">
<path d="M26.1225 17.9927C26.123 18.2154 26.0641 18.4342 25.9517 18.6265C25.8394 18.8188 25.6777 18.9776 25.4834 19.0864L12.3654 26.5872C12.177 26.6941 11.9641 26.7506 11.7475 26.7513C11.5476 26.7509 11.3508 26.7026 11.1736 26.6104C10.9963 26.5183 10.8436 26.385 10.7285 26.2217C10.6133 26.0584 10.539 25.8699 10.5117 25.672C10.4844 25.474 10.505 25.2725 10.5717 25.0841L12.7084 18.838C12.7294 18.7762 12.7693 18.7226 12.8224 18.6846C12.8755 18.6466 12.9392 18.6262 13.0045 18.6263H18.6225C18.7081 18.6265 18.7929 18.609 18.8716 18.5751C18.9503 18.5411 19.0211 18.4913 19.0797 18.4288C19.1383 18.3663 19.1835 18.2925 19.2123 18.2118C19.2412 18.1311 19.2531 18.0454 19.2475 17.9599C19.2333 17.7992 19.1589 17.6497 19.0393 17.5415C18.9196 17.4333 18.7635 17.3743 18.6021 17.3763H13.01C12.9448 17.3764 12.8812 17.3561 12.8281 17.3183C12.775 17.2805 12.735 17.227 12.7139 17.1654L10.5701 10.9154C10.4866 10.6759 10.478 10.4166 10.5453 10.1721C10.6126 9.92759 10.7527 9.70932 10.947 9.54631C11.1413 9.38329 11.3806 9.28324 11.6331 9.25943C11.8856 9.23562 12.1394 9.28918 12.3607 9.41301L25.4857 16.9044C25.6788 17.0131 25.8395 17.1712 25.9514 17.3624C26.0632 17.5536 26.1223 17.7711 26.1225 17.9927Z" fill="#341A4F"/>
</g>
<defs>
<filter id="filter0_d_4640_61643" x="-2" y="-1" width="40" height="40" filterUnits="userSpaceOnUse" color-interpolation-filters="sRGB">
<feFlood flood-opacity="0" result="BackgroundImageFix"/>
<feColorMatrix in="SourceAlpha" type="matrix" values="0 0 0 0 0 0 0 0 0 0 0 0 0 0 0 0 0 0 127 0" result="hardAlpha"/>
<feOffset dy="1"/>
<feGaussianBlur stdDeviation="1"/>
<feColorMatrix type="matrix" values="0 0 0 0 0.0392157 0 0 0 0 0.0496732 0 0 0 0 0.0705882 0 0 0 0.05 0"/>
<feBlend mode="normal" in2="BackgroundImageFix" result="effect1_dropShadow_4640_61643"/>
<feBlend mode="normal" in="SourceGraphic" in2="effect1_dropShadow_4640_61643" result="shape"/>
</filter>
</defs>
</svg>
