<svg width="20" height="16" viewBox="0 0 20 16" fill="none" xmlns="http://www.w3.org/2000/svg">
<path d="M1.00391 0.00390625H19.0039C19.5562 0.00390625 20.0039 0.451616 20.0039 1.00391V15.0039C20.0039 15.5562 19.5562 16.0039 19.0039 16.0039H1.00391C0.451626 16.0039 0.00390625 15.5562 0.00390625 15.0039V1.00391C0.00390625 0.451616 0.451626 0.00390625 1.00391 0.00390625ZM4.4994 2.00098H1.9994V4.50098C3.38011 4.50098 4.4994 3.38169 4.4994 2.00098ZM15.4994 2.00098C15.4994 3.38169 16.6187 4.50098 17.9994 4.50098V2.00098H15.4994ZM1.9994 11.501V14.001H4.4994C4.4994 12.6203 3.38011 11.501 1.9994 11.501ZM15.4994 14.001H17.9994V11.501C16.6187 11.501 15.4994 12.6203 15.4994 14.001ZM9.99943 12.001C12.2085 12.001 13.9994 10.2101 13.9994 8.00098C13.9994 5.79184 12.2085 4.00098 9.99943 4.00098C7.79026 4.00098 5.9994 5.79184 5.9994 8.00098C5.9994 10.2101 7.79026 12.001 9.99943 12.001Z" fill="#A4A7AE"/>
</svg>
