<svg width="28" height="28" viewBox="0 0 28 28" fill="none" xmlns="http://www.w3.org/2000/svg">
<path d="M27.5 20.63V25.9342C27.5 26.7217 26.8911 27.375 26.1057 27.4305C25.4496 27.4769 24.9144 27.5 24.5 27.5C11.2451 27.5 0.5 16.7549 0.5 3.5C0.5 3.08557 0.523175 2.55031 0.569525 1.89425C0.625055 1.10882 1.27841 0.5 2.06579 0.5H7.37015C7.75517 0.5 8.07764 0.79163 8.11629 1.1747C8.151 1.5186 8.18327 1.79471 8.2131 2.00303C8.51652 4.12208 9.13629 6.13904 10.023 8.00454C10.1654 8.30397 10.0726 8.66238 9.80277 8.85509L6.56532 11.1677C8.53628 15.7717 12.2283 19.4637 16.8323 21.4347L19.1406 18.2029C19.3358 17.9298 19.6985 17.836 20.0015 17.9798C21.8669 18.8659 23.8836 19.4849 26.0024 19.7876C26.2094 19.8173 26.4837 19.8492 26.8253 19.8837C27.2084 19.9224 27.5 20.2449 27.5 20.63Z" fill="#F5F9C3"/>
</svg>
