<svg width="72" height="76" viewBox="0 0 72 76" fill="none" xmlns="http://www.w3.org/2000/svg">
<g filter="url(#filter0_d_4640_33227)">
<rect x="20" y="16" width="36" height="36" rx="18" fill="url(#paint0_linear_4640_33227)" shape-rendering="crispEdges"/>
<g filter="url(#filter1_d_4640_33227)">
<path d="M44.5593 39.6236C44.5594 40.0341 44.4696 40.4396 44.2962 40.8117C44.1228 41.1838 43.8701 41.5135 43.5558 41.7775C43.2415 42.0415 42.8732 42.2336 42.4767 42.3401C42.0803 42.4466 41.6653 42.4651 41.261 42.3942C40.8567 42.3233 40.4727 42.1647 40.1362 41.9296C39.7997 41.6946 39.5187 41.3887 39.313 41.0334C39.1073 40.6782 38.9818 40.2822 38.9454 39.8733C38.909 39.4644 38.9626 39.0525 39.1023 38.6666L34.9617 36.0064C34.5662 36.3943 34.065 36.6568 33.5209 36.7609C32.9769 36.8651 32.4141 36.8062 31.9034 36.5918C31.3926 36.3773 30.9566 36.0168 30.6499 35.5555C30.3433 35.0942 30.1797 34.5525 30.1797 33.9986C30.1797 33.4446 30.3433 32.903 30.6499 32.4417C30.9566 31.9804 31.3926 31.6199 31.9034 31.4054C32.4141 31.1909 32.9769 31.1321 33.5209 31.2362C34.065 31.3404 34.5662 31.6029 34.9617 31.9908L39.1023 29.3345C38.8652 28.683 38.8765 27.967 39.1339 27.3232C39.3914 26.6795 39.8771 26.1532 40.4981 25.8449C41.1191 25.5366 41.8319 25.4679 42.5004 25.652C43.1688 25.836 43.746 26.2599 44.1217 26.8427C44.4973 27.4254 44.6451 28.1262 44.5367 28.811C44.4283 29.4958 44.0715 30.1167 43.5343 30.555C42.997 30.9933 42.3172 31.2183 41.6246 31.187C40.9319 31.1557 40.2751 30.8703 39.7796 30.3853L35.639 33.0455C35.8628 33.6639 35.8628 34.3411 35.639 34.9595L39.7796 37.6197C40.175 37.2328 40.6756 36.971 41.2189 36.8672C41.7623 36.7634 42.3241 36.8221 42.8343 37.036C43.3444 37.2498 43.7802 37.6094 44.087 38.0697C44.3938 38.5299 44.5581 39.0704 44.5593 39.6236Z" fill="#FCFAFF"/>
</g>
</g>
<defs>
<filter id="filter0_d_4640_33227" x="0" y="-4" width="76" height="80" filterUnits="userSpaceOnUse" color-interpolation-filters="sRGB">
<feFlood flood-opacity="0" result="BackgroundImageFix"/>
<feColorMatrix in="SourceAlpha" type="matrix" values="0 0 0 0 0 0 0 0 0 0 0 0 0 0 0 0 0 0 127 0" result="hardAlpha"/>
<feOffset dy="4"/>
<feGaussianBlur stdDeviation="10"/>
<feComposite in2="hardAlpha" operator="out"/>
<feColorMatrix type="matrix" values="0 0 0 0 0 0 0 0 0 0 0 0 0 0 0 0 0 0 0.25 0"/>
<feBlend mode="normal" in2="BackgroundImageFix" result="effect1_dropShadow_4640_33227"/>
<feBlend mode="normal" in="SourceGraphic" in2="effect1_dropShadow_4640_33227" result="shape"/>
</filter>
<filter id="filter1_d_4640_33227" x="18" y="15" width="40" height="40" filterUnits="userSpaceOnUse" color-interpolation-filters="sRGB">
<feFlood flood-opacity="0" result="BackgroundImageFix"/>
<feColorMatrix in="SourceAlpha" type="matrix" values="0 0 0 0 0 0 0 0 0 0 0 0 0 0 0 0 0 0 127 0" result="hardAlpha"/>
<feOffset dy="1"/>
<feGaussianBlur stdDeviation="1"/>
<feColorMatrix type="matrix" values="0 0 0 0 0.0392157 0 0 0 0 0.0496732 0 0 0 0 0.0705882 0 0 0 0.05 0"/>
<feBlend mode="normal" in2="BackgroundImageFix" result="effect1_dropShadow_4640_33227"/>
<feBlend mode="normal" in="SourceGraphic" in2="effect1_dropShadow_4640_33227" result="shape"/>
</filter>
<linearGradient id="paint0_linear_4640_33227" x1="38" y1="16" x2="38" y2="52" gradientUnits="userSpaceOnUse">
<stop stop-color="white" stop-opacity="0.2"/>
<stop offset="1" stop-color="white" stop-opacity="0.2"/>
</linearGradient>
</defs>
</svg>
