<svg width="20" height="20" viewBox="0 0 20 20" fill="none" xmlns="http://www.w3.org/2000/svg">
<path d="M11.3159 14.3915L7.0574 12.0687C6.5302 12.592 5.80416 12.9154 5.0026 12.9154C3.39177 12.9154 2.08594 11.6095 2.08594 9.9987C2.08594 8.38786 3.39177 7.08203 5.0026 7.08203C5.80411 7.08203 6.53011 7.40533 7.0573 7.92864L11.3159 5.60582C11.2744 5.40998 11.2526 5.20689 11.2526 4.9987C11.2526 3.38786 12.5584 2.08203 14.1693 2.08203C15.7801 2.08203 17.0859 3.38786 17.0859 4.9987C17.0859 6.60953 15.7801 7.91536 14.1693 7.91536C13.3677 7.91536 12.6417 7.59204 12.1145 7.06869L7.85597 9.39145C7.89745 9.58736 7.91927 9.79045 7.91927 9.9987C7.91927 10.2069 7.89746 10.4099 7.856 10.6058L12.1145 12.9287C12.6418 12.4054 13.3678 12.082 14.1693 12.082C15.7801 12.082 17.0859 13.3879 17.0859 14.9987C17.0859 16.6095 15.7801 17.9154 14.1693 17.9154C12.5584 17.9154 11.2526 16.6095 11.2526 14.9987C11.2526 14.7905 11.2744 14.5874 11.3159 14.3915Z" fill="#A4A7AE"/>
</svg>
