<svg width="100" height="100" viewBox="0 0 100 100" fill="none" xmlns="http://www.w3.org/2000/svg">
<path d="M75 91.6655C81.9037 91.6655 87.5 86.0693 87.5 79.1655C87.5 72.2618 81.9037 66.6655 75 66.6655C68.0962 66.6655 62.5 72.2618 62.5 79.1655C62.5 86.0693 68.0962 91.6655 75 91.6655Z" stroke="white" stroke-width="6.25" stroke-linecap="round" stroke-linejoin="round"/>
<path d="M75 33.3345C81.9037 33.3345 87.5 27.738 87.5 20.8345C87.5 13.9309 81.9037 8.33447 75 8.33447C68.0962 8.33447 62.5 13.9309 62.5 20.8345C62.5 27.738 68.0962 33.3345 75 33.3345Z" stroke="white" stroke-width="6.25" stroke-linecap="round" stroke-linejoin="round"/>
<path d="M25 62.5C31.9035 62.5 37.5 56.9037 37.5 50C37.5 43.0962 31.9035 37.5 25 37.5C18.0965 37.5 12.5 43.0962 12.5 50C12.5 56.9037 18.0965 62.5 25 62.5Z" stroke="white" stroke-width="6.25" stroke-linecap="round" stroke-linejoin="round"/>
<path d="M64.5839 27.0845L35.4172 43.7511" stroke="white" stroke-width="6.25"/>
<path d="M35.4172 56.25L64.5839 72.9167" stroke="white" stroke-width="6.25"/>
</svg>
