<svg width="25" height="24" viewBox="0 0 25 24" fill="none" xmlns="http://www.w3.org/2000/svg">
<path d="M22.4813 10.7229L18.2531 14.4129L19.5197 19.9067C19.5867 20.1939 19.5676 20.4945 19.4647 20.7709C19.3618 21.0472 19.1798 21.2872 18.9413 21.4606C18.7028 21.6341 18.4184 21.7334 18.1238 21.7462C17.8292 21.7589 17.5373 21.6845 17.2847 21.5323L12.4931 18.6261L7.7119 21.5323C7.45931 21.6845 7.16745 21.7589 6.87281 21.7462C6.57817 21.7334 6.29383 21.6341 6.05533 21.4606C5.81683 21.2872 5.63476 21.0472 5.53188 20.7709C5.429 20.4945 5.40987 20.1939 5.4769 19.9067L6.74158 14.4186L2.51252 10.7229C2.28884 10.53 2.1271 10.2754 2.04757 9.99089C1.96805 9.70642 1.97428 9.4048 2.06549 9.12385C2.15671 8.84291 2.32883 8.59515 2.56029 8.41164C2.79175 8.22813 3.07224 8.11705 3.36658 8.09231L8.94096 7.6095L11.1169 2.4195C11.2305 2.14717 11.4222 1.91455 11.6678 1.75093C11.9133 1.58731 12.2018 1.5 12.4969 1.5C12.792 1.5 13.0805 1.58731 13.326 1.75093C13.5716 1.91455 13.7633 2.14717 13.8769 2.4195L16.0594 7.6095L21.6319 8.09231C21.9262 8.11705 22.2067 8.22813 22.4382 8.41164C22.6696 8.59515 22.8418 8.84291 22.933 9.12385C23.0242 9.4048 23.0304 9.70642 22.9509 9.99089C22.8714 10.2754 22.7096 10.53 22.486 10.7229H22.4813Z" fill="#EEF596"/>
</svg>
