<svg width="12" height="12" viewBox="0 0 12 12" fill="none" xmlns="http://www.w3.org/2000/svg">
<rect width="12" height="12" rx="6" fill="#0D001D"/>
<path d="M9.32774 5.57431L7.91837 6.80431L8.34055 8.63556C8.36289 8.73129 8.35652 8.83149 8.32223 8.92362C8.28793 9.01575 8.22724 9.09572 8.14774 9.15355C8.06824 9.21137 7.97346 9.24448 7.87525 9.24873C7.77704 9.25297 7.67975 9.22818 7.59555 9.17744L5.99837 8.20869L4.40462 9.17744C4.32042 9.22818 4.22313 9.25297 4.12492 9.24873C4.02671 9.24448 3.93193 9.21137 3.85243 9.15355C3.77293 9.09572 3.71224 9.01575 3.67794 8.92362C3.64365 8.83149 3.63728 8.73129 3.65962 8.63556L4.08118 6.80619L2.67149 5.57431C2.59693 5.51001 2.54302 5.42512 2.51651 5.3303C2.49 5.23547 2.49208 5.13493 2.52248 5.04128C2.55289 4.94764 2.61026 4.86505 2.68742 4.80388C2.76457 4.74271 2.85806 4.70568 2.95618 4.69744L4.8143 4.5365L5.53962 2.8065C5.57749 2.71572 5.64138 2.63818 5.72324 2.58364C5.80509 2.5291 5.90125 2.5 5.99962 2.5C6.09798 2.5 6.19414 2.5291 6.276 2.58364C6.35785 2.63818 6.42174 2.71572 6.45962 2.8065L7.18712 4.5365L9.04462 4.69744C9.14273 4.70568 9.23623 4.74271 9.31338 4.80388C9.39053 4.86505 9.44791 4.94764 9.47831 5.04128C9.50872 5.13493 9.51079 5.23547 9.48429 5.3303C9.45778 5.42512 9.40386 5.51001 9.3293 5.57431H9.32774Z" fill="#EEF596"/>
</svg>
