<svg width="20" height="20" viewBox="0 0 20 20" fill="none" xmlns="http://www.w3.org/2000/svg">
<path d="M10.0039 0C15.5267 0 20.0039 4.47715 20.0039 10C20.0039 15.5228 15.5267 20 10.0039 20C7.5775 20 5.35293 19.1358 3.62119 17.6985L3.37718 17.4892L4.27852 15.5875C5.73132 17.0759 7.7597 18 10.0039 18C14.4222 18 18.0039 14.4183 18.0039 10C18.0039 5.58172 14.4222 2 10.0039 2C5.669 2 2.13937 5.44784 2.00772 9.7508L2.00391 10H4.50391L1.79757 15.7161C0.666986 14.096 0.00390625 12.1254 0.00390625 10C0.00390625 4.47715 4.48107 0 10.0039 0ZM11.0039 4V6H13.5039V8H8.00393C7.72777 8 7.50391 8.2239 7.50391 8.5C7.50391 8.7455 7.68079 8.9496 7.91404 8.9919L8.00393 9H12.0039C13.3846 9 14.5039 10.1193 14.5039 11.5C14.5039 12.8807 13.3846 14 12.0039 14H11.0039V16H9.00393V14H6.50391V12H12.0039C12.28 12 12.5039 11.7761 12.5039 11.5C12.5039 11.2545 12.327 11.0504 12.0938 11.0081L12.0039 11H8.00393C6.6232 11 5.50391 9.8807 5.50391 8.5C5.50391 7.11929 6.6232 6 8.00393 6H9.00393V4H11.0039Z" fill="#A4A7AE"/>
</svg>
