<svg width="16" height="16" viewBox="0 0 16 16" fill="none" xmlns="http://www.w3.org/2000/svg">
<path d="M4 2.66634V5.33301H12V2.66634H13.3377C13.7035 2.66634 14 2.96297 14 3.32861V14.0041C14 14.3698 13.7034 14.6663 13.3377 14.6663H2.66227C2.29651 14.6663 2 14.3697 2 14.0041V3.32861C2 2.96285 2.29663 2.66634 2.66227 2.66634H4ZM6 11.333H4.66667V12.6663H6V11.333ZM6 9.33301H4.66667V10.6663H6V9.33301ZM6 7.33301H4.66667V8.66634H6V7.33301ZM10.6667 1.33301V3.99967H5.33333V1.33301H10.6667Z" fill="#A4A7AE"/>
</svg>
