<svg width="36" height="36" viewBox="0 0 36 36" fill="none" xmlns="http://www.w3.org/2000/svg">
<g filter="url(#filter0_d_4605_40319)">
<path d="M24.667 18.0013C24.667 14.3194 21.6822 11.3346 18.0003 11.3346C14.3184 11.3346 11.3337 14.3194 11.3337 18.0013C11.3337 21.6832 14.3184 24.668 18.0003 24.668C19.3685 24.668 20.6404 24.2558 21.6987 23.5489L22.6233 24.9358C21.3005 25.8195 19.7106 26.3346 18.0003 26.3346C13.398 26.3346 9.66699 22.6036 9.66699 18.0013C9.66699 13.3989 13.398 9.66797 18.0003 9.66797C22.6027 9.66797 26.3337 13.3989 26.3337 18.0013V19.2513C26.3337 20.8621 25.0278 22.168 23.417 22.168C22.4135 22.168 21.5283 21.6611 21.0035 20.8896C20.2455 21.6776 19.1802 22.168 18.0003 22.168C15.6991 22.168 13.8337 20.3025 13.8337 18.0013C13.8337 15.7001 15.6991 13.8346 18.0003 13.8346C18.9385 13.8346 19.8042 14.1447 20.5007 14.668H22.167V19.2513C22.167 19.9416 22.7267 20.5013 23.417 20.5013C24.1073 20.5013 24.667 19.9416 24.667 19.2513V18.0013ZM18.0003 15.5013C16.6196 15.5013 15.5003 16.6206 15.5003 18.0013C15.5003 19.3821 16.6196 20.5013 18.0003 20.5013C19.3811 20.5013 20.5003 19.3821 20.5003 18.0013C20.5003 16.6206 19.3811 15.5013 18.0003 15.5013Z" fill="#FCFAFF"/>
</g>
<defs>
<filter id="filter0_d_4605_40319" x="-2" y="-1" width="40" height="40" filterUnits="userSpaceOnUse" color-interpolation-filters="sRGB">
<feFlood flood-opacity="0" result="BackgroundImageFix"/>
<feColorMatrix in="SourceAlpha" type="matrix" values="0 0 0 0 0 0 0 0 0 0 0 0 0 0 0 0 0 0 127 0" result="hardAlpha"/>
<feOffset dy="1"/>
<feGaussianBlur stdDeviation="1"/>
<feColorMatrix type="matrix" values="0 0 0 0 0.0392157 0 0 0 0 0.0496732 0 0 0 0 0.0705882 0 0 0 0.05 0"/>
<feBlend mode="normal" in2="BackgroundImageFix" result="effect1_dropShadow_4605_40319"/>
<feBlend mode="normal" in="SourceGraphic" in2="effect1_dropShadow_4605_40319" result="shape"/>
</filter>
</defs>
</svg>
