<svg width="25" height="24" viewBox="0 0 25 24" fill="none" xmlns="http://www.w3.org/2000/svg">
<g clip-path="url(#clip0_4605_40170)">
<path d="M14.4652 19.1146L8.8402 4.11456C8.7665 3.91798 8.63456 3.74857 8.46201 3.62898C8.28946 3.50939 8.08452 3.44531 7.87458 3.44531C7.66463 3.44531 7.45969 3.50939 7.28714 3.62898C7.11459 3.74857 6.98265 3.91798 6.90895 4.11456L1.28395 19.1146C1.19092 19.37 1.2025 19.6518 1.31619 19.8988C1.42988 20.1457 1.63648 20.3378 1.89104 20.4331C2.1456 20.5285 2.42753 20.5196 2.67551 20.4082C2.92348 20.2968 3.11745 20.092 3.2152 19.8383L4.9102 15.3186C4.91688 15.3008 4.92884 15.2853 4.94451 15.2745C4.96017 15.2636 4.97878 15.2577 4.99786 15.2577H10.7513C10.7704 15.2577 10.789 15.2636 10.8046 15.2745C10.8203 15.2853 10.8323 15.3008 10.839 15.3186L12.5339 19.8383C12.6317 20.092 12.8257 20.2968 13.0736 20.4082C13.3216 20.5196 13.6035 20.5285 13.8581 20.4331C14.1127 20.3378 14.3193 20.1457 14.433 19.8988C14.5466 19.6518 14.5582 19.37 14.4652 19.1146ZM5.75395 13.0677L7.78692 7.64659C7.79367 7.62881 7.80566 7.61349 7.82132 7.60268C7.83698 7.59188 7.85555 7.58609 7.87458 7.58609C7.8936 7.58609 7.91217 7.59188 7.92783 7.60268C7.94349 7.61349 7.95548 7.62881 7.96223 7.64659L9.9952 13.0686C10.0005 13.0828 10.0023 13.098 10.0004 13.113C9.99854 13.128 9.99306 13.1424 9.98445 13.1548C9.97584 13.1672 9.96435 13.1774 9.95095 13.1844C9.93756 13.1915 9.92267 13.1952 9.90754 13.1952H5.84161C5.82648 13.1952 5.81159 13.1915 5.7982 13.1844C5.7848 13.1774 5.77331 13.1672 5.7647 13.1548C5.75609 13.1424 5.75061 13.128 5.74874 13.113C5.74687 13.098 5.74866 13.0828 5.75395 13.0686V13.0677ZM19.5357 7.94519C17.58 7.93112 15.8288 9.06409 15.0825 10.8233C14.9756 11.0751 14.9731 11.359 15.0755 11.6126C15.1779 11.8662 15.3769 12.0687 15.6286 12.1757C15.8804 12.2826 16.1643 12.2851 16.4179 12.1827C16.6715 12.0803 16.8741 11.8813 16.981 11.6296C17.3972 10.6503 18.3764 10.0152 19.4804 10.0077C20.9954 9.99737 22.2183 11.2499 22.2183 12.7663C22.2183 12.7845 22.2113 12.8021 22.1986 12.8152C22.1859 12.8283 22.1686 12.836 22.1504 12.8366C21.1229 12.8652 19.9041 12.9336 18.8166 13.0616C16.2502 13.3635 14.7183 14.7627 14.7183 16.8046C14.7183 17.8916 15.129 18.8671 15.8747 19.5552C16.5746 20.1997 17.5308 20.5546 18.5621 20.5546C20.0152 20.5546 21.2663 20.1796 22.2155 19.4661H22.2183C22.2177 19.6015 22.2438 19.7358 22.2951 19.8611C22.3464 19.9864 22.4219 20.1005 22.5172 20.1966C22.6126 20.2928 22.7259 20.3693 22.8508 20.4216C22.9757 20.474 23.1097 20.5012 23.2451 20.5018C23.3805 20.5024 23.5148 20.4763 23.6401 20.425C23.7654 20.3737 23.8795 20.2983 23.9756 20.2029C24.0718 20.1076 24.1483 19.9942 24.2006 19.8693C24.253 19.7444 24.2802 19.6105 24.2808 19.475V12.7719C24.2808 10.1385 22.1714 7.96441 19.5357 7.94519ZM18.5621 18.4921C17.7404 18.4921 16.7808 18.05 16.7808 16.8046C16.7808 16.3044 16.9604 15.9542 17.3635 15.6688C17.7558 15.3908 18.3572 15.1925 19.0575 15.11C20.0475 14.9933 21.1585 14.9291 22.111 14.9005C22.1237 14.9005 22.1363 14.9031 22.148 14.9081C22.1597 14.9131 22.1702 14.9204 22.179 14.9296C22.1878 14.9388 22.1946 14.9497 22.199 14.9616C22.2034 14.9735 22.2054 14.9862 22.2047 14.9989C22.0777 17.3483 20.8805 18.4921 18.5621 18.4921Z" fill="#FDFDFF"/>
</g>
<defs>
<clipPath id="clip0_4605_40170">
<rect width="24" height="24" fill="white" transform="translate(0.75)"/>
</clipPath>
</defs>
</svg>
