<svg width="75" height="75" viewBox="0 0 75 75" fill="none" xmlns="http://www.w3.org/2000/svg">
<circle cx="37.5" cy="37.5" r="37.5" fill="#816B9A"/>
<circle cx="37.5" cy="37.5" r="29.5" fill="#C6B1DE"/>
<path d="M29.0858 22.6544L30.0788 22.2233L31.4125 24.801L30.3903 25.2618L29 22.7383L29.0858 22.6544Z" fill="#572D86"/>
<path d="M44.8716 22.6128L45 22.7383L43.6494 25.2287C43.4912 25.3764 42.8151 24.817 42.5852 24.8044L43.9166 22.2199L44.8716 22.6128Z" fill="#572D86"/>
<path d="M29.64 29.9097C29.8151 29.6668 29.9743 29.6103 30.262 29.5732L43.738 29.5732C44.0881 29.6177 44.2695 29.7118 44.4265 30.0352C44.6453 30.484 44.4895 32.6152 44.3086 33.1296L41.3687 39.3053L32.6721 39.3475L29.6896 33.1302C29.5869 32.7595 29.5163 32.3837 29.4883 32.0016C29.4592 31.5978 29.4329 30.1966 29.6389 29.9109L29.64 29.9097Z" fill="#572D86"/>
<path d="M32.8804 40.5286L41.1622 40.487L41.1686 52.742C41.1534 53.7743 40.5 54.648 39.4597 54.9017C38.9294 55.0312 35.126 55.0318 34.5828 54.9092C33.6114 54.6907 32.9487 53.9208 32.8693 52.9513L32.8804 40.5286ZM36.4236 43.2506L36.4317 45.9709C36.493 46.057 37.3676 45.9949 37.5379 46.0017L37.577 43.2512H36.423L36.4236 43.2506Z" fill="#572D86"/>
<path d="M36.4317 21L37.5683 21L37.5379 24.9248L36.4312 24.8945L36.4317 21Z" fill="#572D86"/>
<path d="M36.4236 43.2506H37.5776L37.5385 46.0012C37.3681 45.9943 36.4936 46.0565 36.4323 45.9704L36.4242 43.2501L36.4236 43.2506Z" fill="#572D86"/>
</svg>
