<svg width="13" height="15" viewBox="0 0 13 15" fill="none" xmlns="http://www.w3.org/2000/svg">
<path d="M4.3842 3.84191L4.44753 3.89724L10.1049 9.55391C10.179 9.62798 10.2347 9.71849 10.2673 9.8181C10.2999 9.9177 10.3086 10.0236 10.2926 10.1272C10.2766 10.2308 10.2364 10.3291 10.1753 10.4143C10.1142 10.4994 10.0339 10.569 9.94087 10.6172L9.86353 10.6506L2.9402 13.2019C1.63887 13.6819 0.371533 12.4586 0.766866 11.1592L0.8002 11.0619L3.35087 4.13858C3.38459 4.04686 3.43806 3.96369 3.50749 3.89493C3.57692 3.82618 3.66062 3.77353 3.75265 3.74071C3.84469 3.70789 3.94282 3.6957 4.04009 3.70501C4.13736 3.71432 4.23139 3.74489 4.31553 3.79458L4.3842 3.84191ZM10.4049 6.73791C11.0122 6.76991 11.8449 6.89791 12.5689 7.33257C12.7156 7.41959 12.8235 7.55957 12.8701 7.7237C12.9168 7.88782 12.8988 8.06359 12.8197 8.21481C12.7407 8.36604 12.6067 8.4812 12.4453 8.5366C12.2839 8.59199 12.1074 8.58339 11.9522 8.51257L11.8829 8.47591C11.4282 8.20258 10.8469 8.09591 10.3349 8.06924C10.1239 8.05758 9.9124 8.05847 9.70153 8.07191L9.49087 8.09257C9.31696 8.11502 9.14121 8.06804 9.00169 7.96181C8.86217 7.85559 8.77013 7.69868 8.74549 7.52507C8.72085 7.35145 8.7656 7.17512 8.87006 7.03428C8.97451 6.89343 9.13025 6.79941 9.30353 6.77257C9.66866 6.72546 10.0375 6.71363 10.4049 6.73724M11.7549 4.87991C11.9247 4.88026 12.088 4.94545 12.2115 5.06215C12.3349 5.17885 12.4091 5.33826 12.419 5.50784C12.4289 5.67741 12.3736 5.84436 12.2646 5.97459C12.1555 6.10482 12.0009 6.18852 11.8322 6.20858L11.7549 6.21324H11.2829C11.113 6.21289 10.9497 6.1477 10.8263 6.031C10.7028 5.9143 10.6286 5.75489 10.6187 5.58531C10.6089 5.41574 10.6641 5.24879 10.7731 5.11856C10.8822 4.98833 11.0369 4.90464 11.2055 4.88458L11.2829 4.87991H11.7549ZM9.63353 4.36858C9.74832 4.48337 9.81727 4.6361 9.82746 4.79812C9.83765 4.96014 9.78837 5.12031 9.68887 5.24858L9.63353 5.31124L8.9262 6.01857C8.80623 6.13814 8.64524 6.20756 8.47594 6.21273C8.30664 6.2179 8.14172 6.15843 8.01468 6.04641C7.88764 5.93439 7.808 5.77821 7.79193 5.60959C7.77587 5.44098 7.82459 5.27257 7.9282 5.13858L7.98353 5.07591L8.6902 4.36924C8.75211 4.30726 8.82564 4.25809 8.90657 4.22454C8.9875 4.19099 9.07426 4.17372 9.16187 4.17372C9.24948 4.17372 9.33623 4.19099 9.41716 4.22454C9.49809 4.25809 9.57162 4.30659 9.63353 4.36858ZM7.90887 0.858576C8.20753 1.75591 8.04753 2.73858 7.86087 3.42524C7.74914 3.85348 7.59505 4.26954 7.40087 4.66724C7.32192 4.82549 7.18334 4.94589 7.01562 5.00196C6.8479 5.05804 6.66478 5.04519 6.50653 4.96624C6.34829 4.8873 6.22788 4.74872 6.17181 4.581C6.11574 4.41328 6.12859 4.23015 6.20753 4.07191C6.36265 3.7525 6.48548 3.4184 6.5742 3.07458C6.72553 2.51991 6.80153 1.91791 6.68487 1.42458L6.6442 1.28058C6.61515 1.1972 6.60294 1.10889 6.6083 1.02076C6.61365 0.93263 6.63646 0.846443 6.6754 0.767201C6.71433 0.687959 6.76862 0.61724 6.83511 0.55915C6.9016 0.50106 6.97897 0.456756 7.06272 0.428809C7.14647 0.400863 7.23494 0.38983 7.32299 0.396353C7.41104 0.402876 7.49692 0.426823 7.57563 0.466806C7.65435 0.506788 7.72435 0.562009 7.78155 0.629262C7.83876 0.696515 7.88203 0.774461 7.90887 0.858576ZM11.5189 2.48391C11.6438 2.60893 11.7141 2.77847 11.7141 2.95524C11.7141 3.13202 11.6438 3.30156 11.5189 3.42658L11.0475 3.89791C10.986 3.96158 10.9125 4.01237 10.8311 4.04731C10.7498 4.08225 10.6623 4.10064 10.5738 4.10141C10.4853 4.10218 10.3975 4.08531 10.3156 4.05179C10.2336 4.01827 10.1592 3.96877 10.0966 3.90617C10.034 3.84358 9.9845 3.76914 9.95098 3.68721C9.91746 3.60528 9.9006 3.51749 9.90137 3.42897C9.90213 3.34046 9.92053 3.25298 9.95547 3.17164C9.99041 3.0903 10.0412 3.01674 10.1049 2.95524L10.5762 2.48391C10.7012 2.35893 10.8708 2.28872 11.0475 2.28872C11.2243 2.28872 11.3938 2.35893 11.5189 2.48391Z" fill="#A77ED3"/>
</svg>
