<svg width="20" height="20" viewBox="0 0 20 20" fill="none" xmlns="http://www.w3.org/2000/svg">
<path d="M1.66406 18.332C1.66406 14.6501 4.64883 11.6654 8.33073 11.6654C12.0126 11.6654 14.9974 14.6501 14.9974 18.332H1.66406ZM8.33073 10.832C5.56823 10.832 3.33073 8.59453 3.33073 5.83203C3.33073 3.06953 5.56823 0.832031 8.33073 0.832031C11.0932 0.832031 13.3307 3.06953 13.3307 5.83203C13.3307 8.59453 11.0932 10.832 8.33073 10.832ZM14.4664 12.693C17.0376 13.3501 18.9706 15.6016 19.1504 18.332H16.6641C16.6641 16.1572 15.8309 14.1769 14.4664 12.693ZM12.7808 10.7961C14.1414 9.57553 14.9974 7.80376 14.9974 5.83203C14.9974 4.65091 14.6902 3.54154 14.1515 2.57942C16.0601 2.96034 17.4974 4.64424 17.4974 6.66536C17.4974 8.96745 15.6328 10.832 13.3307 10.832C13.1443 10.832 12.9607 10.8198 12.7808 10.7961Z" fill="#A4A7AE"/>
</svg>
