<svg width="20" height="20" viewBox="0 0 20 20" fill="none" xmlns="http://www.w3.org/2000/svg">
<path d="M20.0038 10.6242C20.0038 10.79 19.9379 10.949 19.8207 11.0662C19.7035 11.1834 19.5445 11.2492 19.3788 11.2492H18.1288V12.4992C18.1288 12.665 18.0629 12.824 17.9457 12.9412C17.8285 13.0584 17.6695 13.1242 17.5038 13.1242C17.338 13.1242 17.179 13.0584 17.0618 12.9412C16.9446 12.824 16.8788 12.665 16.8788 12.4992V11.2492H15.6288C15.463 11.2492 15.304 11.1834 15.1868 11.0662C15.0696 10.949 15.0038 10.79 15.0038 10.6242C15.0038 10.4585 15.0696 10.2995 15.1868 10.1823C15.304 10.0651 15.463 9.99922 15.6288 9.99922H16.8788V8.74922C16.8788 8.58346 16.9446 8.42449 17.0618 8.30728C17.179 8.19007 17.338 8.12422 17.5038 8.12422C17.6695 8.12422 17.8285 8.19007 17.9457 8.30728C18.0629 8.42449 18.1288 8.58346 18.1288 8.74922V9.99922H19.3788C19.5445 9.99922 19.7035 10.0651 19.8207 10.1823C19.9379 10.2995 20.0038 10.4585 20.0038 10.6242ZM11.2538 12.318C12.2335 11.7077 12.9879 10.795 13.4027 9.71787C13.8176 8.64073 13.8703 7.45779 13.553 6.34801C13.2356 5.23823 12.5655 4.262 11.6439 3.56701C10.7223 2.87203 9.59944 2.49609 8.44518 2.49609C7.29092 2.49609 6.16806 2.87203 5.24648 3.56701C4.3249 4.262 3.65475 5.23823 3.3374 6.34801C3.02006 7.45779 3.07279 8.64073 3.48763 9.71787C3.90246 10.795 4.65682 11.7077 5.63658 12.318C4.0233 12.8461 2.57174 13.8328 1.40455 15.2219C1.32814 15.3127 1.27917 15.4234 1.26337 15.5411C1.24758 15.6587 1.26561 15.7784 1.31535 15.8862C1.3651 15.9939 1.4445 16.0853 1.54428 16.1496C1.64405 16.2139 1.76008 16.2485 1.87877 16.2492H15.0038C15.1229 16.2493 15.2395 16.2154 15.34 16.1515C15.4405 16.0875 15.5206 15.9962 15.5709 15.8883C15.6212 15.7803 15.6396 15.6603 15.624 15.5422C15.6084 15.4241 15.5593 15.313 15.4827 15.2219C14.3147 13.8328 12.8631 12.8461 11.2538 12.318Z" fill="#A4A7AE"/>
</svg>
