<svg width="35" height="12" viewBox="0 0 35 12" fill="none" xmlns="http://www.w3.org/2000/svg">
<g clip-path="url(#clip0_4605_64164)">
<path fill-rule="evenodd" clip-rule="evenodd" d="M11.9514 6.00342C11.9514 9.27857 9.29636 11.9336 6.02121 11.9336C2.74591 11.9336 0.0908203 9.27857 0.0908203 6.00342C0.0908203 2.72827 2.74591 0.0732555 6.02121 0.0732555C9.29636 0.0732555 11.9514 2.72827 11.9514 6.00342Z" fill="#ED342B"/>
<path fill-rule="evenodd" clip-rule="evenodd" d="M6.021 8.54175C4.69454 5.53502 3.72194 2.72617 3.72194 2.72617H1.68848C1.68848 2.72617 2.92614 6.33135 5.22512 10.8398H6.81688C9.11587 6.33135 10.3534 2.72617 10.3534 2.72617H8.31998C8.31998 2.72617 7.34747 5.53502 6.021 8.54175Z" fill="#FEFEFE"/>
<path fill-rule="evenodd" clip-rule="evenodd" d="M31.5606 5.69461C30.4111 5.69461 30.3228 6.93249 30.3228 6.93249L32.7982 6.93249C32.7982 6.93249 32.7099 5.69461 31.5606 5.69461ZM34.3014 8.17016H30.3228C30.3228 8.17016 30.4111 9.49655 32.1796 9.49655C33.0636 9.49655 33.9477 9.23103 33.9477 9.23103L34.1247 10.6456C34.1247 10.6456 33.2405 10.9995 32.0026 10.9995C30.2344 10.9995 28.6429 10.1153 28.6429 7.63972C28.6429 5.69461 29.8808 4.4568 31.6491 4.4568C34.3014 4.4568 34.4781 7.10921 34.3014 8.17016ZM20.7727 6.08107L21.0465 4.62126C21.0465 4.62126 18.9326 3.97981 17.2144 5.16853V11.0078H19.0391V6.26338C19.769 5.71618 20.7727 6.08107 20.7727 6.08107ZM13.1668 5.69461C12.0175 5.69461 11.9291 6.93249 11.9291 6.93249H14.4046C14.4046 6.93249 14.3163 5.69461 13.1668 5.69461ZM15.9076 8.17016H11.9291C11.9291 8.17016 12.0175 9.49655 13.7857 9.49655C14.6697 9.49655 15.5539 9.23103 15.5539 9.23103L15.7309 10.6456C15.7309 10.6456 14.8466 10.9995 13.6088 10.9995C11.8406 10.9995 10.249 10.1153 10.249 7.63972C10.249 5.69461 11.4869 4.4568 13.2552 4.4568C15.9076 4.4568 16.0843 7.10921 15.9076 8.17016ZM25.2258 8.77608C24.2993 6.5522 23.8362 4.45786 23.8362 4.45786L21.9835 4.45809C21.9835 4.45809 22.9099 8.03474 24.485 10.9984L25.9667 10.9984C27.5418 8.03474 28.4683 4.45861 28.4683 4.45861H26.6155C26.6155 4.45861 26.1524 6.5522 25.2258 8.77608Z" fill="#FDFDFF"/>
</g>
<defs>
<clipPath id="clip0_4605_64164">
<rect width="34.4348" height="12" fill="white"/>
</clipPath>
</defs>
</svg>
