<svg width="24" height="24" viewBox="0 0 24 24" fill="none" xmlns="http://www.w3.org/2000/svg">
<path d="M2.8048 5.2003L7.00408 7.99982L11.1903 2.13905C11.5113 1.68964 12.1359 1.58555 12.5853 1.90655C12.6751 1.97069 12.7536 2.04925 12.8178 2.13905L17.0041 7.99982L21.2033 5.2003C21.6629 4.89395 22.2837 5.01812 22.5901 5.47765C22.7218 5.67527 22.7789 5.91332 22.7512 6.14919L21.108 20.1166C21.0487 20.6202 20.6219 20.9998 20.1148 20.9998H3.89333C3.38625 20.9998 2.95943 20.6202 2.90018 20.1166L1.25695 6.14919C1.19242 5.60069 1.58476 5.10373 2.13326 5.0392C2.36914 5.01145 2.60719 5.06856 2.8048 5.2003ZM12.0041 14.9998C13.1086 14.9998 14.0041 14.1044 14.0041 12.9998C14.0041 11.8952 13.1086 10.9998 12.0041 10.9998C10.8995 10.9998 10.0041 11.8952 10.0041 12.9998C10.0041 14.1044 10.8995 14.9998 12.0041 14.9998Z" fill="#F6C3EE"/>
</svg>
