<svg width="32" height="32" viewBox="0 0 32 32" fill="none" xmlns="http://www.w3.org/2000/svg">
<path d="M29.6013 23.5113L18.6701 4.52758C18.3969 4.06249 18.007 3.67686 17.5388 3.40891C17.0707 3.14096 16.5407 3 16.0013 3C15.462 3 14.9319 3.14096 14.4638 3.40891C13.9957 3.67686 13.6058 4.06249 13.3326 4.52758L2.40134 23.5113C2.13851 23.9612 2 24.4728 2 24.9938C2 25.5148 2.13851 26.0265 2.40134 26.4763C2.671 26.9442 3.0603 27.332 3.52929 27.5997C3.99828 27.8675 4.53007 28.0057 5.07009 28.0001H26.9326C27.4722 28.0052 28.0035 27.8669 28.472 27.5991C28.9405 27.3314 29.3294 26.9439 29.5988 26.4763C29.8621 26.0267 30.001 25.5152 30.0014 24.9942C30.0019 24.4732 29.8638 23.9614 29.6013 23.5113ZM27.8676 25.4751C27.7723 25.6376 27.6355 25.7719 27.4712 25.8642C27.3069 25.9564 27.121 26.0033 26.9326 26.0001H5.07009C4.88169 26.0033 4.69581 25.9564 4.5315 25.8642C4.3672 25.7719 4.23039 25.6376 4.13509 25.4751C4.04877 25.3289 4.00324 25.1623 4.00324 24.9926C4.00324 24.8228 4.04877 24.6562 4.13509 24.5101L15.0663 5.52633C15.1636 5.36455 15.301 5.23068 15.4653 5.13774C15.6296 5.04479 15.8151 4.99595 16.0038 4.99595C16.1926 4.99595 16.3781 5.04479 16.5424 5.13774C16.7067 5.23068 16.8441 5.36455 16.9413 5.52633L27.8726 24.5101C27.9582 24.6567 28.0028 24.8235 28.0019 24.9933C28.0011 25.163 27.9547 25.3294 27.8676 25.4751ZM15.0013 18.0001V13.0001C15.0013 12.7349 15.1067 12.4805 15.2942 12.293C15.4818 12.1054 15.7361 12.0001 16.0013 12.0001C16.2666 12.0001 16.5209 12.1054 16.7084 12.293C16.896 12.4805 17.0013 12.7349 17.0013 13.0001V18.0001C17.0013 18.2653 16.896 18.5197 16.7084 18.7072C16.5209 18.8947 16.2666 19.0001 16.0013 19.0001C15.7361 19.0001 15.4818 18.8947 15.2942 18.7072C15.1067 18.5197 15.0013 18.2653 15.0013 18.0001ZM17.5013 22.5001C17.5013 22.7968 17.4134 23.0868 17.2485 23.3334C17.0837 23.5801 16.8495 23.7724 16.5754 23.8859C16.3013 23.9994 15.9997 24.0291 15.7087 23.9713C15.4177 23.9134 15.1505 23.7705 14.9407 23.5607C14.7309 23.351 14.588 23.0837 14.5302 22.7927C14.4723 22.5017 14.502 22.2001 14.6155 21.9261C14.7291 21.652 14.9213 21.4177 15.168 21.2529C15.4147 21.0881 15.7047 21.0001 16.0013 21.0001C16.3992 21.0001 16.7807 21.1581 17.062 21.4394C17.3433 21.7207 17.5013 22.1023 17.5013 22.5001Z" fill="#FDB022"/>
</svg>
