<svg width="25" height="24" viewBox="0 0 25 24" fill="none" xmlns="http://www.w3.org/2000/svg">
<path d="M10.0784 5L8.07843 7H4.25V19H20.25V7H16.4216L14.4216 5H10.0784ZM9.25 3H15.25L17.25 5H21.25C21.8023 5 22.25 5.44772 22.25 6V20C22.25 20.5523 21.8023 21 21.25 21H3.25C2.69772 21 2.25 20.5523 2.25 20V6C2.25 5.44772 2.69772 5 3.25 5H7.25L9.25 3ZM12.25 18C9.21243 18 6.75 15.5376 6.75 12.5C6.75 9.46243 9.21243 7 12.25 7C15.2876 7 17.75 9.46243 17.75 12.5C17.75 15.5376 15.2876 18 12.25 18ZM12.25 16C14.183 16 15.75 14.433 15.75 12.5C15.75 10.567 14.183 9 12.25 9C10.317 9 8.75 10.567 8.75 12.5C8.75 14.433 10.317 16 12.25 16Z" fill="#FDFDFF"/>
</svg>
