<svg width="12" height="12" viewBox="0 0 12 12" fill="none" xmlns="http://www.w3.org/2000/svg">
    <g clip-path="url(#clip0_4640_67103)">
        <path
            d="M1.28599 4.11183C1.25609 3.86517 1.24114 3.74185 1.25552 3.64097C1.29738 3.34716 1.50341 3.1065 1.78093 3.02722C1.87623 3 1.99675 3 2.23781 3H9.76219C10.0032 3 10.1238 3 10.2191 3.02722C10.4966 3.1065 10.7026 3.34716 10.7445 3.64097C10.7589 3.74185 10.7439 3.86517 10.714 4.11183C10.6344 4.76887 10.5945 5.09739 10.497 5.36887C10.2145 6.15468 9.56901 6.74228 8.77782 6.93382C8.50447 7 8.18341 7 7.54128 7H4.45872C3.81659 7 3.49553 7 3.22218 6.93382C2.43099 6.74228 1.7855 6.15468 1.50305 5.36887C1.40546 5.09739 1.36564 4.76887 1.28599 4.11183Z"
            stroke="#FFFFFF" stroke-width="1.5" />
        <path d="M6 5.5H6.00449" stroke="#FFFFFF" stroke-width="2" stroke-linecap="round"
            stroke-linejoin="round" />
        <path
            d="M1.75 6L1.75 7.51C1.75 9.03735 1.75 9.80103 2.30324 10.2755C2.85649 10.75 3.74692 10.75 5.52778 10.75H6.47222C8.25308 10.75 9.14351 10.75 9.69676 10.2755C10.25 9.80103 10.25 9.03735 10.25 7.51V6"
            stroke="#FFFFFF" stroke-width="1.5" stroke-linecap="round" stroke-linejoin="round" />
        <path
            d="M8 3L7.95585 2.84547C7.73584 2.07545 7.62584 1.69043 7.36395 1.47022C7.10206 1.25 6.7542 1.25 6.05848 1.25H5.94152C5.2458 1.25 4.89794 1.25 4.63605 1.47022C4.37416 1.69043 4.26416 2.07545 4.04415 2.84547L4 3"
            stroke="#FFFFFF" stroke-width="1.5" />
    </g>
    <defs>
        <clipPath id="clip0_4640_67103">
            <rect width="12" height="12" fill="white" />
        </clipPath>
    </defs>
</svg>